# File exported by Houdini 17.0.459 (www.sidefx.com)
# 40 points
# 56 vertices
# 14 primitives
# Bounds: [-0.587400019, -0.850584507, 6.8382659] to [0.587400019, -0.634874046, 7.22486115]
g 
v -0.570218563 -0.850584507 7.18469143
v -0.190072834 -0.850584507 7.20552874
v 0.190072834 -0.850584507 7.20552874
v 0.570218563 -0.850584507 7.18469143
v -0.587400019 -0.672584534 7.2028079
v -0.195799991 -0.672584534 7.22486115
v 0.195799991 -0.672584534 7.22486115
v 0.587400019 -0.672584534 7.2028079
v -0.550965607 -0.812903881 6.8382659
v -0.180439025 -0.812874019 6.85857201
v -0.186166182 -0.634874046 6.87790442
v -0.568147063 -0.634903908 6.85638237
v 0.180439025 -0.812874019 6.85857201
v 0.186166182 -0.634874046 6.87790442
v 0.550965607 -0.812903881 6.8382659
v 0.568147063 -0.634903908 6.85638237
v 0.568147063 -0.634903908 6.85638237
v 0.568147063 -0.634903908 6.85638237
v 0.550965607 -0.812903881 6.8382659
v 0.550965607 -0.812903881 6.8382659
v 0.186166182 -0.634874046 6.87790442
v 0.180439025 -0.812874019 6.85857201
v -0.568147063 -0.634903908 6.85638237
v -0.568147063 -0.634903908 6.85638237
v -0.186166182 -0.634874046 6.87790442
v -0.180439025 -0.812874019 6.85857201
v -0.550965607 -0.812903881 6.8382659
v -0.550965607 -0.812903881 6.8382659
v 0.587400019 -0.672584534 7.2028079
v 0.587400019 -0.672584534 7.2028079
v 0.195799991 -0.672584534 7.22486115
v -0.195799991 -0.672584534 7.22486115
v -0.587400019 -0.672584534 7.2028079
v -0.587400019 -0.672584534 7.2028079
v 0.570218563 -0.850584507 7.18469143
v 0.570218563 -0.850584507 7.18469143
v 0.190072834 -0.850584507 7.20552874
v -0.190072834 -0.850584507 7.20552874
v -0.570218563 -0.850584507 7.18469143
v -0.570218563 -0.850584507 7.18469143
vn -0.993882537 -0.089324221 -0.0649518147
vn 0.00297522754 -0.99415195 -0.107949793
vn -0.00297522754 -0.99415195 -0.107949793
vn -0.00595042901 -0.994149923 -0.10784559
vn -0.00611291686 0.994149625 0.107838549
vn -0.0275939442 -0.108011872 0.993766665
vn 0.0275939442 -0.108011864 0.993766606
vn 0.993882537 -0.089324221 -0.0649518147
vn 0.00595042901 -0.994149923 -0.10784559
vn 0.0275938548 0.108011894 -0.993766665
vn -0.0030564731 0.994152129 0.107946217
vn -0.993882537 -0.089324221 -0.0649518147
vn -0.0275938548 0.108011894 -0.993766665
vn 0.00305647333 0.994152129 0.107946225
vn 0.993882537 -0.089324221 -0.0649518147
vn 0.00611291733 0.994149625 0.107838556
vn -0.0551666915 0.107967451 -0.992622674
vn 0.993882537 -0.089324221 -0.0649518147
vn -0.0551666915 0.107967451 -0.992622674
vn -0.00595042901 -0.994149923 -0.10784559
vn -0.0275938548 0.108011894 -0.993766665
vn -0.00297522754 -0.99415195 -0.107949793
vn 0.0551666915 0.107967444 -0.992622674
vn -0.00611291686 0.994149625 0.107838549
vn 0.0275938548 0.108011894 -0.993766665
vn 0.00297522754 -0.99415195 -0.107949793
vn 0.0551666915 0.107967444 -0.992622674
vn -0.993882537 -0.089324221 -0.0649518147
vn 0.0551668778 -0.107967369 0.992622674
vn 0.00611291733 0.994149625 0.107838556
vn 0.00305647333 0.994152129 0.107946225
vn -0.0030564731 0.994152129 0.107946217
vn -0.0551668704 -0.107967354 0.992622614
vn -0.993882537 -0.089324221 -0.0649518147
vn 0.0551668778 -0.107967369 0.992622674
vn 0.993882537 -0.089324221 -0.0649518147
vn 0.0275939442 -0.108011864 0.993766606
vn -0.0275939442 -0.108011872 0.993766665
vn -0.0551668704 -0.107967354 0.992622614
vn 0.00595042901 -0.994149923 -0.10784559
g 
f 39//39 38//38 6//6 33//33
f 38//38 37//37 7//7 6//6
f 37//37 35//35 29//29 7//7
f 27//27 23//23 25//25 10//10
f 10//10 25//25 21//21 13//13
f 13//13 21//21 17//17 19//19
f 40//40 9//9 26//26 2//2
f 2//2 26//26 22//22 3//3
f 3//3 22//22 20//20 4//4
f 36//36 15//15 18//18 8//8
f 30//30 16//16 14//14 31//31
f 31//31 14//14 11//11 32//32
f 32//32 11//11 24//24 5//5
f 34//34 12//12 28//28 1//1
