# File exported by Houdini 17.0.459 (www.sidefx.com)
# 172 points
# 408 vertices
# 102 primitives
# Bounds: [-0.44994843, -4.23258448, 5.54888391] to [0.44994843, -1.98774922, 6.9369626]
g 
v -0.243770972 -4.23258448 5.83008051
v -0.0812569857 -4.23258448 5.83481979
v 0.0812569857 -4.23258448 5.83481979
v 0.243770972 -4.23258448 5.83008051
v -0.260952443 -4.0545845 5.9601965
v -0.0869841427 -4.0545845 5.96550369
v 0.0869841427 -4.0545845 5.96550369
v 0.260952443 -4.0545845 5.9601965
v -0.278133869 -3.87658453 6.08191776
v -0.0927112848 -3.87658453 6.08782005
v 0.0927112848 -3.87658453 6.08782005
v 0.278133869 -3.87658453 6.08191776
v -0.295315325 -3.69858456 6.19576073
v -0.0984384269 -3.69858456 6.20228672
v 0.0984384269 -3.69858456 6.20228672
v 0.295315325 -3.69858456 6.19576073
v -0.312496752 -3.52058458 6.30217028
v -0.104165584 -3.52058458 6.30934954
v 0.104165584 -3.52058458 6.30934954
v 0.312496752 -3.52058458 6.30217028
v -0.329678237 -3.34258461 6.4015336
v -0.109892741 -3.34258461 6.40939379
v 0.109892741 -3.34258461 6.40939379
v 0.329678237 -3.34258461 6.4015336
v -0.346859694 -3.1645844 6.49418736
v -0.11561989 -3.1645844 6.5027585
v 0.11561989 -3.1645844 6.5027585
v 0.346859694 -3.1645844 6.49418736
v -0.364041179 -2.98658442 6.58042574
v -0.121347047 -2.98658442 6.58973789
v 0.121347047 -2.98658442 6.58973789
v 0.364041179 -2.98658442 6.58042574
v -0.381222546 -2.80858469 6.66050911
v -0.127074197 -2.80858469 6.67059278
v 0.127074197 -2.80858469 6.67059278
v 0.381222546 -2.80858469 6.66050911
v -0.398404032 -2.63058472 6.73466539
v -0.132801339 -2.63058472 6.74555159
v 0.132801339 -2.63058472 6.74555159
v 0.398404032 -2.63058472 6.73466539
v -0.415585488 -2.45258451 6.80309629
v -0.138528496 -2.45258451 6.81481743
v 0.138528496 -2.45258451 6.81481743
v 0.415585488 -2.45258451 6.80309629
v -0.432766974 -2.27458429 6.86598015
v -0.144255638 -2.27458429 6.87856865
v 0.144255638 -2.27458429 6.87856865
v 0.432766974 -2.27458429 6.86598015
v -0.44994843 -2.09658432 6.92347288
v -0.149982795 -2.09658432 6.9369626
v 0.149982795 -2.09658432 6.9369626
v 0.44994843 -2.09658432 6.92347288
v -0.235375181 -4.02604389 5.54888391
v -0.0770584792 -4.02601385 5.55351973
v -0.0826489851 -3.85241032 5.68106079
v -0.25226891 -3.85243773 5.67578125
v 0.0770584792 -4.02601385 5.55351973
v 0.0826489851 -3.85241032 5.68106079
v 0.235375181 -4.02604389 5.54888391
v 0.25226891 -3.85243773 5.67578125
v -0.0880908668 -3.68328905 5.79727459
v -0.268879265 -3.68332767 5.79140854
v 0.0880908668 -3.68328929 5.79727459
v 0.268879265 -3.68332767 5.79140854
v -0.0935325027 -3.51416683 5.90603161
v -0.28548941 -3.51421714 5.89955044
v 0.0935325027 -3.51416683 5.90603161
v 0.28548941 -3.51421714 5.89955044
v -0.0989734307 -3.34504461 6.00775433
v -0.302099138 -3.3451066 6.00062943
v 0.0989734307 -3.34504461 6.00775433
v 0.302099138 -3.3451066 6.00062943
v -0.10441532 -3.17592216 6.10280848
v -0.318709314 -3.17599607 6.09501362
v 0.10441532 -3.17592216 6.10280848
v 0.318709314 -3.17599607 6.09501362
v -0.109856762 -3.00679898 6.1915164
v -0.335319489 -3.00688529 6.1830225
v 0.109856762 -3.00679898 6.19151688
v 0.335319489 -3.00688529 6.1830225
v -0.115298145 -2.83767557 6.274158
v -0.351929426 -2.83777475 6.26493549
v 0.115298145 -2.83767557 6.274158
v 0.351929426 -2.83777475 6.26493549
v -0.120739527 -2.6685524 6.35098076
v -0.368539304 -2.66866446 6.34100008
v 0.120739527 -2.6685524 6.35098076
v 0.368539304 -2.66866446 6.34100008
v -0.126181036 -2.49942875 6.42220163
v -0.3851493 -2.49955416 6.41143274
v 0.126181036 -2.49942875 6.42220163
v 0.3851493 -2.49955416 6.41143274
v -0.131622255 -2.33030391 6.48801374
v -0.401759207 -2.33044314 6.47642517
v 0.131622255 -2.33030391 6.48801374
v 0.401759207 -2.33044314 6.47642517
v -0.137063652 -2.16117978 6.54858589
v -0.418369174 -2.16133285 6.53614712
v 0.137063652 -2.16117978 6.54858589
v 0.418369174 -2.16133285 6.53614712
v -0.142639101 -1.98774922 6.60536671
v -0.435267538 -1.98779762 6.59218597
v 0.142639101 -1.98774922 6.60536671
v 0.435267538 -1.98779762 6.59218597
v 0.435267538 -1.98779762 6.59218597
v 0.435267538 -1.98779762 6.59218597
v 0.142639101 -1.98774922 6.60536671
v -0.435267538 -1.98779762 6.59218597
v -0.435267538 -1.98779762 6.59218597
v -0.142639101 -1.98774922 6.60536671
v 0.418369174 -2.16133285 6.53614712
v -0.418369174 -2.16133285 6.53614712
v 0.401759207 -2.33044314 6.47642517
v -0.401759207 -2.33044314 6.47642517
v 0.3851493 -2.49955416 6.41143274
v -0.3851493 -2.49955416 6.41143274
v 0.368539304 -2.66866446 6.34100008
v -0.368539304 -2.66866446 6.34100008
v 0.351929426 -2.83777475 6.26493549
v -0.351929426 -2.83777475 6.26493549
v 0.335319489 -3.00688529 6.1830225
v -0.335319489 -3.00688529 6.1830225
v 0.318709314 -3.17599607 6.09501362
v -0.318709314 -3.17599607 6.09501362
v 0.302099138 -3.3451066 6.00062943
v -0.302099138 -3.3451066 6.00062943
v 0.28548941 -3.51421714 5.89955044
v -0.28548941 -3.51421714 5.89955044
v 0.268879265 -3.68332767 5.79140854
v -0.268879265 -3.68332767 5.79140854
v 0.25226891 -3.85243773 5.67578125
v 0.235375181 -4.02604389 5.54888391
v 0.235375181 -4.02604389 5.54888391
v 0.0770584792 -4.02601385 5.55351973
v -0.25226891 -3.85243773 5.67578125
v -0.0770584792 -4.02601385 5.55351973
v -0.235375181 -4.02604389 5.54888391
v -0.235375181 -4.02604389 5.54888391
v 0.44994843 -2.09658432 6.92347288
v 0.44994843 -2.09658432 6.92347288
v 0.149982795 -2.09658432 6.9369626
v -0.149982795 -2.09658432 6.9369626
v -0.44994843 -2.09658432 6.92347288
v -0.44994843 -2.09658432 6.92347288
v 0.432766974 -2.27458429 6.86598015
v -0.432766974 -2.27458429 6.86598015
v 0.415585488 -2.45258451 6.80309629
v -0.415585488 -2.45258451 6.80309629
v 0.398404032 -2.63058472 6.73466539
v -0.398404032 -2.63058472 6.73466539
v 0.381222546 -2.80858469 6.66050911
v -0.381222546 -2.80858469 6.66050911
v 0.364041179 -2.98658442 6.58042574
v -0.364041179 -2.98658442 6.58042574
v 0.346859694 -3.1645844 6.49418736
v -0.346859694 -3.1645844 6.49418736
v 0.329678237 -3.34258461 6.4015336
v -0.329678237 -3.34258461 6.4015336
v 0.312496752 -3.52058458 6.30217028
v -0.312496752 -3.52058458 6.30217028
v 0.295315325 -3.69858456 6.19576073
v -0.295315325 -3.69858456 6.19576073
v 0.278133869 -3.87658453 6.08191776
v -0.278133869 -3.87658453 6.08191776
v 0.260952443 -4.0545845 5.9601965
v -0.260952443 -4.0545845 5.9601965
v 0.243770972 -4.23258448 5.83008051
v 0.243770972 -4.23258448 5.83008051
v 0.0812569857 -4.23258448 5.83481979
v -0.0812569857 -4.23258448 5.83481979
v -0.243770972 -4.23258448 5.83008051
v -0.243770972 -4.23258448 5.83008051
vn -0.996667027 -0.0488108061 -0.0653641149
vn 0.00868214201 -0.806063592 -0.591765344
vn -0.00868214201 -0.806063592 -0.591765344
vn -0.0173636302 -0.806049109 -0.59159404
vn -0.0248774998 -0.579146922 0.814843535
vn -0.0124397101 -0.579191625 0.815096498
vn 0.0124397017 -0.579191387 0.815096676
vn 0.996561646 -0.0501651801 -0.0659434572
vn -0.0265149195 -0.553680122 0.83230716
vn -0.0132586239 -0.553728461 0.832591653
vn 0.0132586211 -0.553728402 0.832591712
vn 0.996366501 -0.0527743697 -0.0668483749
vn -0.0281528626 -0.528214097 0.848644376
vn -0.0140778255 -0.528266728 0.848961771
vn 0.0140778292 -0.528266788 0.848961711
vn 0.996191621 -0.0552624762 -0.067442596
vn -0.0297915936 -0.502747595 0.863919735
vn -0.014897448 -0.502803504 0.864272296
vn 0.0148974471 -0.502803504 0.864272296
vn 0.996020019 -0.0577081479 -0.0679265857
vn -0.0314267091 -0.477280915 0.87818867
vn -0.0157152936 -0.477339834 0.878578246
vn 0.0157152973 -0.477339894 0.878578186
vn 0.995851874 -0.0601112507 -0.0683063716
vn -0.0330633037 -0.451813608 0.89149946
vn -0.0165339094 -0.451875627 0.89192766
vn 0.016533915 -0.451875687 0.8919276
vn 0.995687246 -0.0624708831 -0.0685877204
vn -0.0347019508 -0.426346481 0.903894067
vn -0.0173535887 -0.426410973 0.904363155
vn 0.0173535887 -0.426410913 0.904363096
vn 0.995526195 -0.0647872984 -0.0687771514
vn -0.0363400206 -0.400878608 0.915410161
vn -0.018173011 -0.400945157 0.915921867
vn 0.0181730185 -0.400945276 0.915921807
vn 0.99536854 -0.0670613647 -0.0688799098
vn -0.0379776955 -0.375409931 0.926080525
vn -0.0189922713 -0.375478297 0.926636577
vn 0.0189922825 -0.375478446 0.926636517
vn 0.995214224 -0.0692924261 -0.0689001232
vn -0.0396136194 -0.349942565 0.935933292
vn -0.0198106933 -0.350012004 0.936535656
vn 0.0198106952 -0.350012004 0.936535656
vn 0.995063543 -0.0714802146 -0.0688420907
vn -0.0412497148 -0.324473262 0.944995046
vn -0.0206292421 -0.32454294 0.945645928
vn 0.0206292458 -0.324542969 0.945645928
vn 0.994929433 -0.0734125301 -0.068746604
vn -0.0140955178 0.950153887 0.311462939
vn -0.0210367702 -0.31177932 0.949921548
vn 0.0210367814 -0.311779439 0.949921548
vn 0.994869769 -0.0742614642 -0.0686990246
vn 0.0173636302 -0.806049109 -0.59159404
vn 0.0121294865 0.592043221 -0.805814922
vn 0.0125905639 0.579288781 -0.81502521
vn -0.996561646 -0.0501651131 -0.0659433976
vn -0.0121294865 0.592043221 -0.805814922
vn -0.0125904856 0.579289019 -0.815025032
vn 0.996667027 -0.0488108546 -0.0653641149
vn -0.0251791235 0.579212368 -0.814787686
vn 0.013456028 0.553728282 -0.832588673
vn -0.996366501 -0.0527743548 -0.0668483749
vn -0.0134559423 0.553728282 -0.832588673
vn -0.0269096103 0.553679824 -0.832294703
vn 0.0142698856 0.528267384 -0.848958135
vn -0.996191621 -0.0552624799 -0.0674426183
vn -0.0142698763 0.528267205 -0.848958254
vn -0.0285368487 0.528213918 -0.84863162
vn 0.0150852688 0.502803624 -0.864268959
vn -0.996020019 -0.0577081814 -0.0679265559
vn -0.0150852688 0.502803624 -0.864269018
vn -0.0301671084 0.502746463 -0.863907337
vn 0.0159007292 0.477339357 -0.878575206
vn -0.995851934 -0.0601113625 -0.0683064088
vn -0.0159007329 0.477339715 -0.878574908
vn -0.0317974463 0.477279365 -0.878176153
vn 0.0167185832 0.451874524 -0.891924798
vn -0.995687246 -0.0624709353 -0.06858778
vn -0.0167178717 0.451874703 -0.891924679
vn -0.0334324837 0.451810986 -0.891487122
vn 0.0175374988 0.426409751 -0.904360056
vn -0.995526195 -0.064787358 -0.0687772408
vn -0.0175367799 0.426409513 -0.904360175
vn -0.0350695811 0.42634216 -0.903881907
vn 0.0183556434 0.40094462 -0.915918469
vn -0.995368481 -0.067061469 -0.0688799694
vn -0.0183556434 0.40094462 -0.915918469
vn -0.0367051065 0.400874496 -0.915397346
vn 0.0191755462 0.375477135 -0.926633239
vn -0.995214224 -0.0692924261 -0.0689000562
vn -0.0191755462 0.375477135 -0.926633239
vn -0.038344048 0.375405073 -0.926067352
vn 0.0199970417 0.350010335 -0.936532378
vn -0.995063484 -0.0714801475 -0.0688420236
vn -0.0199970417 0.350010335 -0.936532378
vn -0.0399860889 0.349936992 -0.935919523
vn 0.0207739398 0.324330688 -0.945715606
vn -0.994929433 -0.0734125301 -0.068746604
vn -0.0207739417 0.324330688 -0.945715606
vn -0.0415388756 0.324327797 -0.945032239
vn -0.00704793353 0.950166523 0.31166324
vn -0.994869769 -0.0742614642 -0.0686990246
vn 0.0070479326 0.950166523 0.31166321
vn 0.0140955159 0.950153887 0.311462909
vn -0.0422668122 0.311422825 -0.949330986
vn 0.994869769 -0.0742614642 -0.0686990246
vn -0.0211381298 0.311354488 -0.950058699
vn 0.0422668122 0.311422825 -0.949330986
vn -0.0140955178 0.950153887 0.311462939
vn 0.0211381298 0.311354488 -0.950058699
vn 0.994929433 -0.0734125301 -0.068746604
vn 0.0415388718 0.324327797 -0.945032239
vn 0.995063543 -0.0714802146 -0.0688420907
vn 0.0399860889 0.349936992 -0.935919464
vn 0.995214224 -0.0692924261 -0.0689001232
vn 0.038344048 0.375405073 -0.926067352
vn 0.99536854 -0.0670613647 -0.0688799098
vn 0.0367051065 0.400874496 -0.915397346
vn 0.995526195 -0.0647872984 -0.0687771514
vn 0.0350682028 0.426342666 -0.903881788
vn 0.995687246 -0.0624708831 -0.0685877204
vn 0.0334310904 0.451810628 -0.891487241
vn 0.995851874 -0.0601112507 -0.0683063716
vn 0.0317974389 0.47727859 -0.87817663
vn 0.996020019 -0.0577081479 -0.0679265857
vn 0.0301671084 0.502746522 -0.863907337
vn 0.996191621 -0.0552624762 -0.067442596
vn 0.0285368674 0.528214335 -0.848631382
vn 0.996366501 -0.0527743697 -0.0668483749
vn 0.026909465 0.553679883 -0.832294703
vn 0.996561646 -0.0501651801 -0.0659434572
vn -0.0242571887 0.591936529 -0.805619478
vn -0.0173636302 -0.806049109 -0.59159404
vn -0.00868214201 -0.806063592 -0.591765344
vn 0.0251789596 0.57921207 -0.814787984
vn 0.00868214201 -0.806063592 -0.591765344
vn 0.0242571887 0.591936529 -0.805619478
vn -0.996667027 -0.0488108061 -0.0653641149
vn 0.042064257 -0.311709791 0.94924587
vn 0.0140955159 0.950153887 0.311462909
vn 0.0070479326 0.950166523 0.31166321
vn -0.00704793353 0.950166523 0.31166324
vn -0.0420642346 -0.311709613 0.94924587
vn -0.994869769 -0.0742614642 -0.0686990246
vn 0.0412497222 -0.324473321 0.944995046
vn -0.994929433 -0.0734125301 -0.068746604
vn 0.0396136232 -0.349942625 0.935933232
vn -0.995063484 -0.0714801475 -0.0688420236
vn 0.0379777178 -0.375410169 0.926080406
vn -0.995214224 -0.0692924261 -0.0689000562
vn 0.0363400355 -0.400878787 0.915410101
vn -0.995368481 -0.067061469 -0.0688799694
vn 0.0347019546 -0.426346511 0.903894067
vn -0.995526195 -0.064787358 -0.0687772408
vn 0.0330633186 -0.451813847 0.8914994
vn -0.995687246 -0.0624709353 -0.06858778
vn 0.0314267203 -0.477281094 0.87818867
vn -0.995851934 -0.0601113625 -0.0683064088
vn 0.0297915917 -0.502747536 0.863919854
vn -0.996020019 -0.0577081814 -0.0679265559
vn 0.02815287 -0.528214216 0.848644257
vn -0.996191621 -0.0552624799 -0.0674426183
vn 0.0265149157 -0.553680003 0.832307279
vn -0.996366501 -0.0527743548 -0.0668483749
vn 0.0248774793 -0.579146445 0.814843893
vn -0.996561646 -0.0501651131 -0.0659433976
vn 0.0240549129 -0.591806293 0.805721283
vn 0.996667027 -0.0488108546 -0.0653641149
vn 0.0120283263 -0.591849625 0.805958629
vn -0.0120283375 -0.591849923 0.805958509
vn -0.0240549315 -0.59180671 0.805720866
vn 0.0173636302 -0.806049109 -0.59159404
g 
f 171//171 170//170 6//6 5//5
f 170//170 169//169 7//7 6//6
f 169//169 167//167 165//165 7//7
f 5//5 6//6 10//10 9//9
f 6//6 7//7 11//11 10//10
f 7//7 165//165 163//163 11//11
f 9//9 10//10 14//14 13//13
f 10//10 11//11 15//15 14//14
f 11//11 163//163 161//161 15//15
f 13//13 14//14 18//18 17//17
f 14//14 15//15 19//19 18//18
f 15//15 161//161 159//159 19//19
f 17//17 18//18 22//22 21//21
f 18//18 19//19 23//23 22//22
f 19//19 159//159 157//157 23//23
f 21//21 22//22 26//26 25//25
f 22//22 23//23 27//27 26//26
f 23//23 157//157 155//155 27//27
f 25//25 26//26 30//30 29//29
f 26//26 27//27 31//31 30//30
f 27//27 155//155 153//153 31//31
f 29//29 30//30 34//34 33//33
f 30//30 31//31 35//35 34//34
f 31//31 153//153 151//151 35//35
f 33//33 34//34 38//38 37//37
f 34//34 35//35 39//39 38//38
f 35//35 151//151 149//149 39//39
f 37//37 38//38 42//42 41//41
f 38//38 39//39 43//43 42//42
f 39//39 149//149 147//147 43//43
f 41//41 42//42 46//46 45//45
f 42//42 43//43 47//47 46//46
f 43//43 147//147 145//145 47//47
f 45//45 46//46 50//50 143//143
f 46//46 47//47 51//51 50//50
f 47//47 145//145 139//139 51//51
f 137//137 135//135 55//55 54//54
f 54//54 55//55 58//58 57//57
f 57//57 58//58 60//60 132//132
f 135//135 130//130 61//61 55//55
f 55//55 61//61 63//63 58//58
f 58//58 63//63 64//64 60//60
f 130//130 128//128 65//65 61//61
f 61//61 65//65 67//67 63//63
f 63//63 67//67 68//68 64//64
f 128//128 126//126 69//69 65//65
f 65//65 69//69 71//71 67//67
f 67//67 71//71 72//72 68//68
f 126//126 124//124 73//73 69//69
f 69//69 73//73 75//75 71//71
f 71//71 75//75 76//76 72//72
f 124//124 122//122 77//77 73//73
f 73//73 77//77 79//79 75//75
f 75//75 79//79 80//80 76//76
f 122//122 120//120 81//81 77//77
f 77//77 81//81 83//83 79//79
f 79//79 83//83 84//84 80//80
f 120//120 118//118 85//85 81//81
f 81//81 85//85 87//87 83//83
f 83//83 87//87 88//88 84//84
f 118//118 116//116 89//89 85//85
f 85//85 89//89 91//91 87//87
f 87//87 91//91 92//92 88//88
f 116//116 114//114 93//93 89//89
f 89//89 93//93 95//95 91//91
f 91//91 95//95 96//96 92//92
f 114//114 112//112 97//97 93//93
f 93//93 97//97 99//99 95//95
f 95//95 99//99 100//100 96//96
f 112//112 108//108 110//110 97//97
f 97//97 110//110 107//107 99//99
f 99//99 107//107 105//105 100//100
f 172//172 53//53 136//136 2//2
f 2//2 136//136 134//134 3//3
f 3//3 134//134 133//133 4//4
f 168//168 59//59 131//131 8//8
f 8//8 131//131 129//129 12//12
f 12//12 129//129 127//127 16//16
f 16//16 127//127 125//125 20//20
f 20//20 125//125 123//123 24//24
f 24//24 123//123 121//121 28//28
f 28//28 121//121 119//119 32//32
f 32//32 119//119 117//117 36//36
f 36//36 117//117 115//115 40//40
f 40//40 115//115 113//113 44//44
f 44//44 113//113 111//111 48//48
f 48//48 111//111 106//106 52//52
f 140//140 104//104 103//103 141//141
f 141//141 103//103 101//101 142//142
f 142//142 101//101 109//109 49//49
f 144//144 102//102 98//98 146//146
f 146//146 98//98 94//94 148//148
f 148//148 94//94 90//90 150//150
f 150//150 90//90 86//86 152//152
f 152//152 86//86 82//82 154//154
f 154//154 82//82 78//78 156//156
f 156//156 78//78 74//74 158//158
f 158//158 74//74 70//70 160//160
f 160//160 70//70 66//66 162//162
f 162//162 66//66 62//62 164//164
f 164//164 62//62 56//56 166//166
f 166//166 56//56 138//138 1//1
