# File exported by Houdini 17.0.459 (www.sidefx.com)
# 136 points
# 312 vertices
# 78 primitives
# Bounds: [-0.398404032, -4.23258448, 5.54888391] to [0.398404032, -2.49508858, 6.74555159]
g 
v -0.243770972 -4.23258448 5.83008051
v -0.0812569857 -4.23258448 5.83481979
v 0.0812569857 -4.23258448 5.83481979
v 0.243770972 -4.23258448 5.83008051
v -0.260952443 -4.0545845 5.9601965
v -0.0869841427 -4.0545845 5.96550369
v 0.0869841427 -4.0545845 5.96550369
v 0.260952443 -4.0545845 5.9601965
v -0.278133869 -3.87658453 6.08191776
v -0.0927112848 -3.87658453 6.08782005
v 0.0927112848 -3.87658453 6.08782005
v 0.278133869 -3.87658453 6.08191776
v -0.295315325 -3.69858456 6.19576073
v -0.0984384269 -3.69858456 6.20228672
v 0.0984384269 -3.69858456 6.20228672
v 0.295315325 -3.69858456 6.19576073
v -0.312496752 -3.52058458 6.30217028
v -0.104165584 -3.52058458 6.30934954
v 0.104165584 -3.52058458 6.30934954
v 0.312496752 -3.52058458 6.30217028
v -0.329678237 -3.34258461 6.4015336
v -0.109892741 -3.34258461 6.40939379
v 0.109892741 -3.34258461 6.40939379
v 0.329678237 -3.34258461 6.4015336
v -0.346859694 -3.1645844 6.49418736
v -0.11561989 -3.1645844 6.5027585
v 0.11561989 -3.1645844 6.5027585
v 0.346859694 -3.1645844 6.49418736
v -0.364041179 -2.98658442 6.58042574
v -0.121347047 -2.98658442 6.58973789
v 0.121347047 -2.98658442 6.58973789
v 0.364041179 -2.98658442 6.58042574
v -0.381222546 -2.80858469 6.66050911
v -0.127074197 -2.80858469 6.67059278
v 0.127074197 -2.80858469 6.67059278
v 0.381222546 -2.80858469 6.66050911
v -0.398404032 -2.63058472 6.73466539
v -0.132801339 -2.63058472 6.74555159
v 0.132801339 -2.63058472 6.74555159
v 0.398404032 -2.63058472 6.73466539
v -0.235375181 -4.02604389 5.54888391
v -0.0770584792 -4.02601385 5.55351973
v -0.0826489851 -3.85241032 5.68106079
v -0.25226891 -3.85243773 5.67578125
v 0.0770584792 -4.02601385 5.55351973
v 0.0826489851 -3.85241032 5.68106079
v 0.235375181 -4.02604389 5.54888391
v 0.25226891 -3.85243773 5.67578125
v -0.0880908668 -3.68328905 5.79727459
v -0.268879265 -3.68332767 5.79140854
v 0.0880908668 -3.68328929 5.79727459
v 0.268879265 -3.68332767 5.79140854
v -0.0935325027 -3.51416683 5.90603161
v -0.28548941 -3.51421714 5.89955044
v 0.0935325027 -3.51416683 5.90603161
v 0.28548941 -3.51421714 5.89955044
v -0.0989734307 -3.34504461 6.00775433
v -0.302099138 -3.3451066 6.00062943
v 0.0989734307 -3.34504461 6.00775433
v 0.302099138 -3.3451066 6.00062943
v -0.10441532 -3.17592216 6.10280848
v -0.318709314 -3.17599607 6.09501362
v 0.10441532 -3.17592216 6.10280848
v 0.318709314 -3.17599607 6.09501362
v -0.109856762 -3.00679898 6.1915164
v -0.335319489 -3.00688529 6.1830225
v 0.109856762 -3.00679898 6.19151688
v 0.335319489 -3.00688529 6.1830225
v -0.115298145 -2.83767557 6.274158
v -0.351929426 -2.83777475 6.26493549
v 0.115298145 -2.83767557 6.274158
v 0.351929426 -2.83777475 6.26493549
v -0.120739527 -2.6685524 6.35098076
v -0.368539304 -2.66866446 6.34100008
v 0.120739527 -2.6685524 6.35098076
v 0.368539304 -2.66866446 6.34100008
v -0.126315862 -2.49508858 6.42392778
v -0.385437548 -2.49513531 6.41328335
v 0.126315862 -2.49508858 6.42392778
v 0.385437548 -2.49513531 6.41328335
v 0.385437548 -2.49513531 6.41328335
v 0.385437548 -2.49513531 6.41328335
v 0.126315862 -2.49508858 6.42392778
v -0.385437548 -2.49513531 6.41328335
v -0.385437548 -2.49513531 6.41328335
v -0.126315862 -2.49508858 6.42392778
v 0.368539304 -2.66866446 6.34100008
v -0.368539304 -2.66866446 6.34100008
v 0.351929426 -2.83777475 6.26493549
v -0.351929426 -2.83777475 6.26493549
v 0.335319489 -3.00688529 6.1830225
v -0.335319489 -3.00688529 6.1830225
v 0.318709314 -3.17599607 6.09501362
v -0.318709314 -3.17599607 6.09501362
v 0.302099138 -3.3451066 6.00062943
v -0.302099138 -3.3451066 6.00062943
v 0.28548941 -3.51421714 5.89955044
v -0.28548941 -3.51421714 5.89955044
v 0.268879265 -3.68332767 5.79140854
v -0.268879265 -3.68332767 5.79140854
v 0.25226891 -3.85243773 5.67578125
v 0.235375181 -4.02604389 5.54888391
v 0.235375181 -4.02604389 5.54888391
v 0.0770584792 -4.02601385 5.55351973
v -0.25226891 -3.85243773 5.67578125
v -0.0770584792 -4.02601385 5.55351973
v -0.235375181 -4.02604389 5.54888391
v -0.235375181 -4.02604389 5.54888391
v 0.398404032 -2.63058472 6.73466539
v 0.398404032 -2.63058472 6.73466539
v 0.132801339 -2.63058472 6.74555159
v -0.132801339 -2.63058472 6.74555159
v -0.398404032 -2.63058472 6.73466539
v -0.398404032 -2.63058472 6.73466539
v 0.381222546 -2.80858469 6.66050911
v -0.381222546 -2.80858469 6.66050911
v 0.364041179 -2.98658442 6.58042574
v -0.364041179 -2.98658442 6.58042574
v 0.346859694 -3.1645844 6.49418736
v -0.346859694 -3.1645844 6.49418736
v 0.329678237 -3.34258461 6.4015336
v -0.329678237 -3.34258461 6.4015336
v 0.312496752 -3.52058458 6.30217028
v -0.312496752 -3.52058458 6.30217028
v 0.295315325 -3.69858456 6.19576073
v -0.295315325 -3.69858456 6.19576073
v 0.278133869 -3.87658453 6.08191776
v -0.278133869 -3.87658453 6.08191776
v 0.260952443 -4.0545845 5.9601965
v -0.260952443 -4.0545845 5.9601965
v 0.243770972 -4.23258448 5.83008051
v 0.243770972 -4.23258448 5.83008051
v 0.0812569857 -4.23258448 5.83481979
v -0.0812569857 -4.23258448 5.83481979
v -0.243770972 -4.23258448 5.83008051
v -0.243770972 -4.23258448 5.83008051
vn -0.996667027 -0.0488108061 -0.0653641149
vn 0.00868214201 -0.806063592 -0.591765344
vn -0.00868214201 -0.806063592 -0.591765344
vn -0.0173636302 -0.806049109 -0.59159404
vn -0.0248774998 -0.579146922 0.814843535
vn -0.0124397101 -0.579191625 0.815096498
vn 0.0124397017 -0.579191387 0.815096676
vn 0.996561646 -0.0501651801 -0.0659434572
vn -0.0265149195 -0.553680122 0.83230716
vn -0.0132586239 -0.553728461 0.832591653
vn 0.0132586211 -0.553728402 0.832591712
vn 0.996366501 -0.0527743697 -0.0668483749
vn -0.0281528626 -0.528214097 0.848644376
vn -0.0140778255 -0.528266728 0.848961771
vn 0.0140778292 -0.528266788 0.848961711
vn 0.996191621 -0.0552624762 -0.067442596
vn -0.0297915936 -0.502747595 0.863919735
vn -0.014897448 -0.502803504 0.864272296
vn 0.0148974471 -0.502803504 0.864272296
vn 0.996020019 -0.0577081479 -0.0679265857
vn -0.0314267091 -0.477280915 0.87818867
vn -0.0157152936 -0.477339834 0.878578246
vn 0.0157152973 -0.477339894 0.878578186
vn 0.995851874 -0.0601112507 -0.0683063716
vn -0.0330633037 -0.451813608 0.89149946
vn -0.0165339094 -0.451875627 0.89192766
vn 0.016533915 -0.451875687 0.8919276
vn 0.995687246 -0.0624708831 -0.0685877204
vn -0.0347019508 -0.426346481 0.903894067
vn -0.0173535887 -0.426410973 0.904363155
vn 0.0173535887 -0.426410913 0.904363096
vn 0.995526195 -0.0647872984 -0.0687771514
vn -0.0363400206 -0.400878608 0.915410161
vn -0.018173011 -0.400945157 0.915921867
vn 0.0181730185 -0.400945276 0.915921807
vn 0.995381117 -0.0668517798 -0.0689010322
vn -0.0159955248 0.921584487 0.387848079
vn -0.0185812134 -0.388173968 0.921398818
vn 0.0185812265 -0.388174117 0.921398759
vn 0.995315552 -0.0677688494 -0.0689524934
vn 0.0173636302 -0.806049109 -0.59159404
vn 0.0121294865 0.592043221 -0.805814922
vn 0.0125905639 0.579288781 -0.81502521
vn -0.996561646 -0.0501651131 -0.0659433976
vn -0.0121294865 0.592043221 -0.805814922
vn -0.0125904856 0.579289019 -0.815025032
vn 0.996667027 -0.0488108546 -0.0653641149
vn -0.0251791235 0.579212368 -0.814787686
vn 0.013456028 0.553728282 -0.832588673
vn -0.996366501 -0.0527743548 -0.0668483749
vn -0.0134559423 0.553728282 -0.832588673
vn -0.0269096103 0.553679824 -0.832294703
vn 0.0142698856 0.528267384 -0.848958135
vn -0.996191621 -0.0552624799 -0.0674426183
vn -0.0142698763 0.528267205 -0.848958254
vn -0.0285368487 0.528213918 -0.84863162
vn 0.0150852688 0.502803624 -0.864268959
vn -0.996020019 -0.0577081814 -0.0679265559
vn -0.0150852688 0.502803624 -0.864269018
vn -0.0301671084 0.502746463 -0.863907337
vn 0.0159007292 0.477339357 -0.878575206
vn -0.995851934 -0.0601113625 -0.0683064088
vn -0.0159007329 0.477339715 -0.878574908
vn -0.0317974463 0.477279365 -0.878176153
vn 0.0167185832 0.451874524 -0.891924798
vn -0.995687246 -0.0624709353 -0.06858778
vn -0.0167178717 0.451874703 -0.891924679
vn -0.0334324837 0.451810986 -0.891487122
vn 0.0175374988 0.426409751 -0.904360056
vn -0.995526195 -0.064787358 -0.0687772408
vn -0.0175367799 0.426409513 -0.904360175
vn -0.0350695811 0.42634216 -0.903881907
vn 0.0183128323 0.400773853 -0.915994048
vn -0.995381176 -0.0668518916 -0.0689011067
vn -0.0183128305 0.400773793 -0.915994108
vn -0.0366194881 0.400761336 -0.915450335
vn -0.00799801853 0.921600819 0.388056815
vn -0.995315552 -0.0677689612 -0.0689524934
vn 0.00799801853 0.921600819 0.388056815
vn 0.0159955248 0.921584487 0.387848079
vn -0.0373479612 0.387874931 -0.920955062
vn 0.995315552 -0.0677688494 -0.0689524934
vn -0.0186772402 0.387829781 -0.92154181
vn 0.0373479612 0.387874931 -0.920955062
vn -0.0159955248 0.921584487 0.387848079
vn 0.0186772402 0.387829781 -0.92154181
vn 0.995381117 -0.0668517798 -0.0689010322
vn 0.0366194881 0.400761336 -0.915450335
vn 0.995526195 -0.0647872984 -0.0687771514
vn 0.0350682028 0.426342666 -0.903881788
vn 0.995687246 -0.0624708831 -0.0685877204
vn 0.0334310904 0.451810628 -0.891487241
vn 0.995851874 -0.0601112507 -0.0683063716
vn 0.0317974389 0.47727859 -0.87817663
vn 0.996020019 -0.0577081479 -0.0679265857
vn 0.0301671084 0.502746522 -0.863907337
vn 0.996191621 -0.0552624762 -0.067442596
vn 0.0285368674 0.528214335 -0.848631382
vn 0.996366501 -0.0527743697 -0.0668483749
vn 0.026909465 0.553679883 -0.832294703
vn 0.996561646 -0.0501651801 -0.0659434572
vn -0.0242571887 0.591936529 -0.805619478
vn -0.0173636302 -0.806049109 -0.59159404
vn -0.00868214201 -0.806063592 -0.591765344
vn 0.0251789596 0.57921207 -0.814787984
vn 0.00868214201 -0.806063592 -0.591765344
vn 0.0242571887 0.591936529 -0.805619478
vn -0.996667027 -0.0488108061 -0.0653641149
vn 0.0371560343 -0.388106823 0.920865119
vn 0.0159955248 0.921584487 0.387848079
vn 0.00799801853 0.921600819 0.388056815
vn -0.00799801853 0.921600819 0.388056815
vn -0.0371560082 -0.388106525 0.920865238
vn -0.995315552 -0.0677689612 -0.0689524934
vn 0.0363400355 -0.400878787 0.915410101
vn -0.995381176 -0.0668518916 -0.0689011067
vn 0.0347019546 -0.426346511 0.903894067
vn -0.995526195 -0.064787358 -0.0687772408
vn 0.0330633186 -0.451813847 0.8914994
vn -0.995687246 -0.0624709353 -0.06858778
vn 0.0314267203 -0.477281094 0.87818867
vn -0.995851934 -0.0601113625 -0.0683064088
vn 0.0297915917 -0.502747536 0.863919854
vn -0.996020019 -0.0577081814 -0.0679265559
vn 0.02815287 -0.528214216 0.848644257
vn -0.996191621 -0.0552624799 -0.0674426183
vn 0.0265149157 -0.553680003 0.832307279
vn -0.996366501 -0.0527743548 -0.0668483749
vn 0.0248774793 -0.579146445 0.814843893
vn -0.996561646 -0.0501651131 -0.0659433976
vn 0.0240549129 -0.591806293 0.805721283
vn 0.996667027 -0.0488108546 -0.0653641149
vn 0.0120283263 -0.591849625 0.805958629
vn -0.0120283375 -0.591849923 0.805958509
vn -0.0240549315 -0.59180671 0.805720866
vn 0.0173636302 -0.806049109 -0.59159404
g 
f 135//135 134//134 6//6 5//5
f 134//134 133//133 7//7 6//6
f 133//133 131//131 129//129 7//7
f 5//5 6//6 10//10 9//9
f 6//6 7//7 11//11 10//10
f 7//7 129//129 127//127 11//11
f 9//9 10//10 14//14 13//13
f 10//10 11//11 15//15 14//14
f 11//11 127//127 125//125 15//15
f 13//13 14//14 18//18 17//17
f 14//14 15//15 19//19 18//18
f 15//15 125//125 123//123 19//19
f 17//17 18//18 22//22 21//21
f 18//18 19//19 23//23 22//22
f 19//19 123//123 121//121 23//23
f 21//21 22//22 26//26 25//25
f 22//22 23//23 27//27 26//26
f 23//23 121//121 119//119 27//27
f 25//25 26//26 30//30 29//29
f 26//26 27//27 31//31 30//30
f 27//27 119//119 117//117 31//31
f 29//29 30//30 34//34 33//33
f 30//30 31//31 35//35 34//34
f 31//31 117//117 115//115 35//35
f 33//33 34//34 38//38 113//113
f 34//34 35//35 39//39 38//38
f 35//35 115//115 109//109 39//39
f 107//107 105//105 43//43 42//42
f 42//42 43//43 46//46 45//45
f 45//45 46//46 48//48 102//102
f 105//105 100//100 49//49 43//43
f 43//43 49//49 51//51 46//46
f 46//46 51//51 52//52 48//48
f 100//100 98//98 53//53 49//49
f 49//49 53//53 55//55 51//51
f 51//51 55//55 56//56 52//52
f 98//98 96//96 57//57 53//53
f 53//53 57//57 59//59 55//55
f 55//55 59//59 60//60 56//56
f 96//96 94//94 61//61 57//57
f 57//57 61//61 63//63 59//59
f 59//59 63//63 64//64 60//60
f 94//94 92//92 65//65 61//61
f 61//61 65//65 67//67 63//63
f 63//63 67//67 68//68 64//64
f 92//92 90//90 69//69 65//65
f 65//65 69//69 71//71 67//67
f 67//67 71//71 72//72 68//68
f 90//90 88//88 73//73 69//69
f 69//69 73//73 75//75 71//71
f 71//71 75//75 76//76 72//72
f 88//88 84//84 86//86 73//73
f 73//73 86//86 83//83 75//75
f 75//75 83//83 81//81 76//76
f 136//136 41//41 106//106 2//2
f 2//2 106//106 104//104 3//3
f 3//3 104//104 103//103 4//4
f 132//132 47//47 101//101 8//8
f 8//8 101//101 99//99 12//12
f 12//12 99//99 97//97 16//16
f 16//16 97//97 95//95 20//20
f 20//20 95//95 93//93 24//24
f 24//24 93//93 91//91 28//28
f 28//28 91//91 89//89 32//32
f 32//32 89//89 87//87 36//36
f 36//36 87//87 82//82 40//40
f 110//110 80//80 79//79 111//111
f 111//111 79//79 77//77 112//112
f 112//112 77//77 85//85 37//37
f 114//114 78//78 74//74 116//116
f 116//116 74//74 70//70 118//118
f 118//118 70//70 66//66 120//120
f 120//120 66//66 62//62 122//122
f 122//122 62//62 58//58 124//124
f 124//124 58//58 54//54 126//126
f 126//126 54//54 50//50 128//128
f 128//128 50//50 44//44 130//130
f 130//130 44//44 108//108 1//1
