# File exported by Houdini 17.0.459 (www.sidefx.com)
# 76 points
# 152 vertices
# 38 primitives
# Bounds: [-0.312496752, -4.23258448, 5.54888391] to [0.312496752, -3.34066343, 6.30934954]
g 
v -0.243770972 -4.23258448 5.83008051
v -0.0812569857 -4.23258448 5.83481979
v 0.0812569857 -4.23258448 5.83481979
v 0.243770972 -4.23258448 5.83008051
v -0.260952443 -4.0545845 5.9601965
v -0.0869841427 -4.0545845 5.96550369
v 0.0869841427 -4.0545845 5.96550369
v 0.260952443 -4.0545845 5.9601965
v -0.278133869 -3.87658453 6.08191776
v -0.0927112848 -3.87658453 6.08782005
v 0.0927112848 -3.87658453 6.08782005
v 0.278133869 -3.87658453 6.08191776
v -0.295315325 -3.69858456 6.19576073
v -0.0984384269 -3.69858456 6.20228672
v 0.0984384269 -3.69858456 6.20228672
v 0.295315325 -3.69858456 6.19576073
v -0.312496752 -3.52058458 6.30217028
v -0.104165584 -3.52058458 6.30934954
v 0.104165584 -3.52058458 6.30934954
v 0.312496752 -3.52058458 6.30217028
v -0.235375181 -4.02604389 5.54888391
v -0.0770584792 -4.02601385 5.55351973
v -0.0826489851 -3.85241032 5.68106079
v -0.25226891 -3.85243773 5.67578125
v 0.0770584792 -4.02601385 5.55351973
v 0.0826489851 -3.85241032 5.68106079
v 0.235375181 -4.02604389 5.54888391
v 0.25226891 -3.85243773 5.67578125
v -0.0880908668 -3.68328905 5.79727459
v -0.268879265 -3.68332767 5.79140854
v 0.0880908668 -3.68328929 5.79727459
v 0.268879265 -3.68332767 5.79140854
v -0.0935325027 -3.51416683 5.90603161
v -0.28548941 -3.51421714 5.89955044
v 0.0935325027 -3.51416683 5.90603161
v 0.28548941 -3.51421714 5.89955044
v -0.0991097242 -3.34066343 6.01030207
v -0.302387148 -3.34070158 6.00327063
v 0.0991097242 -3.34066343 6.01030207
v 0.302387148 -3.34070158 6.00327063
v 0.302387148 -3.34070158 6.00327063
v 0.302387148 -3.34070158 6.00327063
v 0.0991097242 -3.34066343 6.01030207
v -0.302387148 -3.34070158 6.00327063
v -0.302387148 -3.34070158 6.00327063
v -0.0991097242 -3.34066343 6.01030207
v 0.28548941 -3.51421714 5.89955044
v -0.28548941 -3.51421714 5.89955044
v 0.268879265 -3.68332767 5.79140854
v -0.268879265 -3.68332767 5.79140854
v 0.25226891 -3.85243773 5.67578125
v 0.235375181 -4.02604389 5.54888391
v 0.235375181 -4.02604389 5.54888391
v 0.0770584792 -4.02601385 5.55351973
v -0.25226891 -3.85243773 5.67578125
v -0.0770584792 -4.02601385 5.55351973
v -0.235375181 -4.02604389 5.54888391
v -0.235375181 -4.02604389 5.54888391
v 0.312496752 -3.52058458 6.30217028
v 0.312496752 -3.52058458 6.30217028
v 0.104165584 -3.52058458 6.30934954
v -0.104165584 -3.52058458 6.30934954
v -0.312496752 -3.52058458 6.30217028
v -0.312496752 -3.52058458 6.30217028
v 0.295315325 -3.69858456 6.19576073
v -0.295315325 -3.69858456 6.19576073
v 0.278133869 -3.87658453 6.08191776
v -0.278133869 -3.87658453 6.08191776
v 0.260952443 -4.0545845 5.9601965
v -0.260952443 -4.0545845 5.9601965
v 0.243770972 -4.23258448 5.83008051
v 0.243770972 -4.23258448 5.83008051
v 0.0812569857 -4.23258448 5.83481979
v -0.0812569857 -4.23258448 5.83481979
v -0.243770972 -4.23258448 5.83008051
v -0.243770972 -4.23258448 5.83008051
vn -0.996667027 -0.0488108061 -0.0653641149
vn 0.00868214201 -0.806063592 -0.591765344
vn -0.00868214201 -0.806063592 -0.591765344
vn -0.0173636302 -0.806049109 -0.59159404
vn -0.0248774998 -0.579146922 0.814843535
vn -0.0124397101 -0.579191625 0.815096498
vn 0.0124397017 -0.579191387 0.815096676
vn 0.996561646 -0.0501651801 -0.0659434572
vn -0.0265149195 -0.553680122 0.83230716
vn -0.0132586239 -0.553728461 0.832591653
vn 0.0132586211 -0.553728402 0.832591712
vn 0.996366501 -0.0527743697 -0.0668483749
vn -0.0281528626 -0.528214097 0.848644376
vn -0.0140778255 -0.528266728 0.848961771
vn 0.0140778292 -0.528266788 0.848961711
vn 0.996202707 -0.0550646894 -0.0674402267
vn -0.0178657919 0.856900573 0.515172005
vn -0.014486393 -0.515479088 0.856779754
vn 0.0144863967 -0.515479088 0.856779695
vn 0.99612689 -0.056100063 -0.0677064061
vn 0.0173636302 -0.806049109 -0.59159404
vn 0.0121294865 0.592043221 -0.805814922
vn 0.0125905639 0.579288781 -0.81502521
vn -0.996561646 -0.0501651131 -0.0659433976
vn -0.0121294865 0.592043221 -0.805814922
vn -0.0125904856 0.579289019 -0.815025032
vn 0.996667027 -0.0488108546 -0.0653641149
vn -0.0251791235 0.579212368 -0.814787686
vn 0.013456028 0.553728282 -0.832588673
vn -0.996366501 -0.0527743548 -0.0668483749
vn -0.0134559423 0.553728282 -0.832588673
vn -0.0269096103 0.553679824 -0.832294703
vn 0.0142251914 0.528149128 -0.849032462
vn -0.996202707 -0.0550647415 -0.0674402863
vn -0.0142251821 0.528148949 -0.849032521
vn -0.0284474678 0.52813518 -0.848683715
vn -0.00893325265 0.856919408 0.515372932
vn -0.99612689 -0.0561001152 -0.0677064061
vn 0.00893325265 0.856919467 0.515372932
vn 0.0178657901 0.856900573 0.515171945
vn -0.0291703735 0.515265048 -0.856534421
vn 0.99612689 -0.056100063 -0.0677064061
vn -0.0145867374 0.515241027 -0.856921196
vn 0.0291703697 0.515265048 -0.856534302
vn -0.0178657919 0.856900573 0.515172005
vn 0.0145867374 0.515241086 -0.856921196
vn 0.996202707 -0.0550646894 -0.0674402267
vn 0.0284474865 0.528135538 -0.848683476
vn 0.996366501 -0.0527743697 -0.0668483749
vn 0.026909465 0.553679883 -0.832294703
vn 0.996561646 -0.0501651801 -0.0659434572
vn -0.0242571887 0.591936529 -0.805619478
vn -0.0173636302 -0.806049109 -0.59159404
vn -0.00868214201 -0.806063592 -0.591765344
vn 0.0251789596 0.57921207 -0.814787984
vn 0.00868214201 -0.806063592 -0.591765344
vn 0.0242571887 0.591936529 -0.805619478
vn -0.996667027 -0.0488108061 -0.0653641149
vn 0.0289697554 -0.515424371 0.856445372
vn 0.0178657901 0.856900573 0.515171945
vn 0.00893325265 0.856919467 0.515372932
vn -0.00893325265 0.856919408 0.515372932
vn -0.0289697442 -0.515424252 0.856445312
vn -0.99612689 -0.0561001152 -0.0677064061
vn 0.02815287 -0.528214216 0.848644257
vn -0.996202707 -0.0550647415 -0.0674402863
vn 0.0265149157 -0.553680003 0.832307279
vn -0.996366501 -0.0527743548 -0.0668483749
vn 0.0248774793 -0.579146445 0.814843893
vn -0.996561646 -0.0501651131 -0.0659433976
vn 0.0240549129 -0.591806293 0.805721283
vn 0.996667027 -0.0488108546 -0.0653641149
vn 0.0120283263 -0.591849625 0.805958629
vn -0.0120283375 -0.591849923 0.805958509
vn -0.0240549315 -0.59180671 0.805720866
vn 0.0173636302 -0.806049109 -0.59159404
g 
f 75//75 74//74 6//6 5//5
f 74//74 73//73 7//7 6//6
f 73//73 71//71 69//69 7//7
f 5//5 6//6 10//10 9//9
f 6//6 7//7 11//11 10//10
f 7//7 69//69 67//67 11//11
f 9//9 10//10 14//14 13//13
f 10//10 11//11 15//15 14//14
f 11//11 67//67 65//65 15//15
f 13//13 14//14 18//18 63//63
f 14//14 15//15 19//19 18//18
f 15//15 65//65 59//59 19//19
f 57//57 55//55 23//23 22//22
f 22//22 23//23 26//26 25//25
f 25//25 26//26 28//28 52//52
f 55//55 50//50 29//29 23//23
f 23//23 29//29 31//31 26//26
f 26//26 31//31 32//32 28//28
f 50//50 48//48 33//33 29//29
f 29//29 33//33 35//35 31//31
f 31//31 35//35 36//36 32//32
f 48//48 44//44 46//46 33//33
f 33//33 46//46 43//43 35//35
f 35//35 43//43 41//41 36//36
f 76//76 21//21 56//56 2//2
f 2//2 56//56 54//54 3//3
f 3//3 54//54 53//53 4//4
f 72//72 27//27 51//51 8//8
f 8//8 51//51 49//49 12//12
f 12//12 49//49 47//47 16//16
f 16//16 47//47 42//42 20//20
f 60//60 40//40 39//39 61//61
f 61//61 39//39 37//37 62//62
f 62//62 37//37 45//45 17//17
f 64//64 38//38 34//34 66//66
f 66//66 34//34 30//30 68//68
f 68//68 30//30 24//24 70//70
f 70//70 24//24 58//58 1//1
