# File exported by Houdini 17.0.459 (www.sidefx.com)
# 52 points
# 88 vertices
# 22 primitives
# Bounds: [-0.587400019, -1.02858472, 6.81652117] to [0.587400019, -0.634874046, 7.22486115]
g 
v -0.553037107 -1.02858472 7.16189528
v -0.184345692 -1.02858472 7.18156242
v 0.184345692 -1.02858472 7.18156242
v 0.553037107 -1.02858472 7.16189528
v -0.570218563 -0.850584507 7.18469143
v -0.190072834 -0.850584507 7.20552874
v 0.190072834 -0.850584507 7.20552874
v 0.570218563 -0.850584507 7.18469143
v -0.587400019 -0.672584534 7.2028079
v -0.195799991 -0.672584534 7.22486115
v 0.195799991 -0.672584534 7.22486115
v 0.587400019 -0.672584534 7.2028079
v -0.534355879 -0.982015908 6.81652117
v -0.174998373 -0.981981993 6.83568811
v -0.180592909 -0.80817914 6.85924435
v -0.551248372 -0.808452845 6.83873463
v 0.174998373 -0.981981993 6.83568811
v 0.180592909 -0.80817914 6.85924435
v 0.534355879 -0.982015908 6.81652117
v 0.551248372 -0.808452845 6.83873463
v -0.186166182 -0.634874046 6.87790442
v -0.568147063 -0.634903908 6.85638237
v 0.186166182 -0.634874046 6.87790442
v 0.568147063 -0.634903908 6.85638237
v 0.568147063 -0.634903908 6.85638237
v 0.568147063 -0.634903908 6.85638237
v 0.186166182 -0.634874046 6.87790442
v -0.568147063 -0.634903908 6.85638237
v -0.568147063 -0.634903908 6.85638237
v -0.186166182 -0.634874046 6.87790442
v 0.551248372 -0.808452845 6.83873463
v 0.534355879 -0.982015908 6.81652117
v 0.534355879 -0.982015908 6.81652117
v 0.174998373 -0.981981993 6.83568811
v -0.551248372 -0.808452845 6.83873463
v -0.174998373 -0.981981993 6.83568811
v -0.534355879 -0.982015908 6.81652117
v -0.534355879 -0.982015908 6.81652117
v 0.587400019 -0.672584534 7.2028079
v 0.587400019 -0.672584534 7.2028079
v 0.195799991 -0.672584534 7.22486115
v -0.195799991 -0.672584534 7.22486115
v -0.587400019 -0.672584534 7.2028079
v -0.587400019 -0.672584534 7.2028079
v 0.570218563 -0.850584507 7.18469143
v -0.570218563 -0.850584507 7.18469143
v 0.553037107 -1.02858472 7.16189528
v 0.553037107 -1.02858472 7.16189528
v 0.184345692 -1.02858472 7.18156242
v -0.184345692 -1.02858472 7.18156242
v -0.553037107 -1.02858472 7.16189528
v -0.553037107 -1.02858472 7.16189528
vn -0.993973374 -0.0879613012 -0.0654198751
vn 0.00357789127 -0.991054118 -0.133412525
vn -0.00357789127 -0.991054118 -0.133412525
vn -0.00715573644 -0.991051078 -0.13329117
vn -0.0543517731 -0.120711148 0.991198659
vn -0.0271859281 -0.120758176 0.99230957
vn 0.0271859318 -0.120758191 0.99230957
vn 0.993902564 -0.0888364762 -0.0653128847
vn -0.00611291686 0.994149625 0.107838549
vn -0.0275939442 -0.108011872 0.993766665
vn 0.0275939442 -0.108011864 0.993766606
vn 0.993831098 -0.0897115916 -0.0652058646
vn 0.00715573644 -0.991051078 -0.13329117
vn 0.0268732216 0.134132698 -0.990598977
vn 0.0272925217 0.120735921 -0.992309451
vn -0.993902564 -0.0888364762 -0.0653128847
vn -0.0268732216 0.134132698 -0.990598977
vn -0.0272925217 0.120735921 -0.992309451
vn 0.993973374 -0.0879613012 -0.0654198751
vn -0.0545645468 0.120690875 -0.99118942
vn -0.0030564731 0.994152129 0.107946217
vn -0.993831098 -0.0897115916 -0.0652058646
vn 0.00305647333 0.994152129 0.107946225
vn 0.00611291733 0.994149625 0.107838556
vn -0.0553924143 0.107498109 -0.992661059
vn 0.993831098 -0.0897115916 -0.0652058646
vn -0.0277068447 0.107316777 -0.993838727
vn 0.0553924143 0.107498109 -0.992661059
vn -0.00611291686 0.994149625 0.107838549
vn 0.0277068447 0.107316777 -0.993838727
vn 0.993902564 -0.0888364762 -0.0653128847
vn -0.0537270308 0.133862287 -0.989542484
vn -0.00715573644 -0.991051078 -0.13329117
vn -0.00357789127 -0.991054118 -0.133412525
vn 0.0545645468 0.120690875 -0.99118942
vn 0.00357789127 -0.991054118 -0.133412525
vn 0.0537270308 0.133862287 -0.989542484
vn -0.993973374 -0.0879613012 -0.0654198751
vn 0.0551668778 -0.107967369 0.992622674
vn 0.00611291733 0.994149625 0.107838556
vn 0.00305647333 0.994152129 0.107946225
vn -0.0030564731 0.994152129 0.107946217
vn -0.0551668704 -0.107967354 0.992622614
vn -0.993831098 -0.0897115916 -0.0652058646
vn 0.0543517806 -0.120711163 0.991198719
vn -0.993902564 -0.0888364762 -0.0653128847
vn 0.0535277016 -0.133435011 0.98961097
vn 0.993973374 -0.0879613012 -0.0654198751
vn 0.0267734509 -0.133484349 0.990689278
vn -0.0267734472 -0.133484334 0.990689278
vn -0.0535276942 -0.133434996 0.98961097
vn 0.00715573644 -0.991051078 -0.13329117
g 
f 51//51 50//50 6//6 5//5
f 50//50 49//49 7//7 6//6
f 49//49 47//47 45//45 7//7
f 5//5 6//6 10//10 43//43
f 6//6 7//7 11//11 10//10
f 7//7 45//45 39//39 11//11
f 37//37 35//35 15//15 14//14
f 14//14 15//15 18//18 17//17
f 17//17 18//18 20//20 32//32
f 35//35 28//28 30//30 15//15
f 15//15 30//30 27//27 18//18
f 18//18 27//27 25//25 20//20
f 52//52 13//13 36//36 2//2
f 2//2 36//36 34//34 3//3
f 3//3 34//34 33//33 4//4
f 48//48 19//19 31//31 8//8
f 8//8 31//31 26//26 12//12
f 40//40 24//24 23//23 41//41
f 41//41 23//23 21//21 42//42
f 42//42 21//21 29//29 9//9
f 44//44 22//22 16//16 46//46
f 46//46 16//16 38//38 1//1
