# File exported by Houdini 17.0.459 (www.sidefx.com)
# 112 points
# 248 vertices
# 62 primitives
# Bounds: [-0.364041179, -4.23258448, 5.54888391] to [0.364041179, -2.83331704, 6.58973789]
g 
v -0.243770972 -4.23258448 5.83008051
v -0.0812569857 -4.23258448 5.83481979
v 0.0812569857 -4.23258448 5.83481979
v 0.243770972 -4.23258448 5.83008051
v -0.260952443 -4.0545845 5.9601965
v -0.0869841427 -4.0545845 5.96550369
v 0.0869841427 -4.0545845 5.96550369
v 0.260952443 -4.0545845 5.9601965
v -0.278133869 -3.87658453 6.08191776
v -0.0927112848 -3.87658453 6.08782005
v 0.0927112848 -3.87658453 6.08782005
v 0.278133869 -3.87658453 6.08191776
v -0.295315325 -3.69858456 6.19576073
v -0.0984384269 -3.69858456 6.20228672
v 0.0984384269 -3.69858456 6.20228672
v 0.295315325 -3.69858456 6.19576073
v -0.312496752 -3.52058458 6.30217028
v -0.104165584 -3.52058458 6.30934954
v 0.104165584 -3.52058458 6.30934954
v 0.312496752 -3.52058458 6.30217028
v -0.329678237 -3.34258461 6.4015336
v -0.109892741 -3.34258461 6.40939379
v 0.109892741 -3.34258461 6.40939379
v 0.329678237 -3.34258461 6.4015336
v -0.346859694 -3.1645844 6.49418736
v -0.11561989 -3.1645844 6.5027585
v 0.11561989 -3.1645844 6.5027585
v 0.346859694 -3.1645844 6.49418736
v -0.364041179 -2.98658442 6.58042574
v -0.121347047 -2.98658442 6.58973789
v 0.121347047 -2.98658442 6.58973789
v 0.364041179 -2.98658442 6.58042574
v -0.235375181 -4.02604389 5.54888391
v -0.0770584792 -4.02601385 5.55351973
v -0.0826489851 -3.85241032 5.68106079
v -0.25226891 -3.85243773 5.67578125
v 0.0770584792 -4.02601385 5.55351973
v 0.0826489851 -3.85241032 5.68106079
v 0.235375181 -4.02604389 5.54888391
v 0.25226891 -3.85243773 5.67578125
v -0.0880908668 -3.68328905 5.79727459
v -0.268879265 -3.68332767 5.79140854
v 0.0880908668 -3.68328929 5.79727459
v 0.268879265 -3.68332767 5.79140854
v -0.0935325027 -3.51416683 5.90603161
v -0.28548941 -3.51421714 5.89955044
v 0.0935325027 -3.51416683 5.90603161
v 0.28548941 -3.51421714 5.89955044
v -0.0989734307 -3.34504461 6.00775433
v -0.302099138 -3.3451066 6.00062943
v 0.0989734307 -3.34504461 6.00775433
v 0.302099138 -3.3451066 6.00062943
v -0.10441532 -3.17592216 6.10280848
v -0.318709314 -3.17599607 6.09501362
v 0.10441532 -3.17592216 6.10280848
v 0.318709314 -3.17599607 6.09501362
v -0.109856762 -3.00679898 6.1915164
v -0.335319489 -3.00688529 6.1830225
v 0.109856762 -3.00679898 6.19151688
v 0.335319489 -3.00688529 6.1830225
v -0.115433544 -2.83331704 6.27619362
v -0.352217585 -2.83336115 6.26708269
v 0.115433544 -2.83331704 6.27619362
v 0.352217585 -2.83336115 6.26708269
v 0.352217585 -2.83336115 6.26708269
v 0.352217585 -2.83336115 6.26708269
v 0.115433544 -2.83331704 6.27619362
v -0.352217585 -2.83336115 6.26708269
v -0.352217585 -2.83336115 6.26708269
v -0.115433544 -2.83331704 6.27619362
v 0.335319489 -3.00688529 6.1830225
v -0.335319489 -3.00688529 6.1830225
v 0.318709314 -3.17599607 6.09501362
v -0.318709314 -3.17599607 6.09501362
v 0.302099138 -3.3451066 6.00062943
v -0.302099138 -3.3451066 6.00062943
v 0.28548941 -3.51421714 5.89955044
v -0.28548941 -3.51421714 5.89955044
v 0.268879265 -3.68332767 5.79140854
v -0.268879265 -3.68332767 5.79140854
v 0.25226891 -3.85243773 5.67578125
v 0.235375181 -4.02604389 5.54888391
v 0.235375181 -4.02604389 5.54888391
v 0.0770584792 -4.02601385 5.55351973
v -0.25226891 -3.85243773 5.67578125
v -0.0770584792 -4.02601385 5.55351973
v -0.235375181 -4.02604389 5.54888391
v -0.235375181 -4.02604389 5.54888391
v 0.364041179 -2.98658442 6.58042574
v 0.364041179 -2.98658442 6.58042574
v 0.121347047 -2.98658442 6.58973789
v -0.121347047 -2.98658442 6.58973789
v -0.364041179 -2.98658442 6.58042574
v -0.364041179 -2.98658442 6.58042574
v 0.346859694 -3.1645844 6.49418736
v -0.346859694 -3.1645844 6.49418736
v 0.329678237 -3.34258461 6.4015336
v -0.329678237 -3.34258461 6.4015336
v 0.312496752 -3.52058458 6.30217028
v -0.312496752 -3.52058458 6.30217028
v 0.295315325 -3.69858456 6.19576073
v -0.295315325 -3.69858456 6.19576073
v 0.278133869 -3.87658453 6.08191776
v -0.278133869 -3.87658453 6.08191776
v 0.260952443 -4.0545845 5.9601965
v -0.260952443 -4.0545845 5.9601965
v 0.243770972 -4.23258448 5.83008051
v 0.243770972 -4.23258448 5.83008051
v 0.0812569857 -4.23258448 5.83481979
v -0.0812569857 -4.23258448 5.83481979
v -0.243770972 -4.23258448 5.83008051
v -0.243770972 -4.23258448 5.83008051
vn -0.996667027 -0.0488108061 -0.0653641149
vn 0.00868214201 -0.806063592 -0.591765344
vn -0.00868214201 -0.806063592 -0.591765344
vn -0.0173636302 -0.806049109 -0.59159404
vn -0.0248774998 -0.579146922 0.814843535
vn -0.0124397101 -0.579191625 0.815096498
vn 0.0124397017 -0.579191387 0.815096676
vn 0.996561646 -0.0501651801 -0.0659434572
vn -0.0265149195 -0.553680122 0.83230716
vn -0.0132586239 -0.553728461 0.832591653
vn 0.0132586211 -0.553728402 0.832591712
vn 0.996366501 -0.0527743697 -0.0668483749
vn -0.0281528626 -0.528214097 0.848644376
vn -0.0140778255 -0.528266728 0.848961771
vn 0.0140778292 -0.528266788 0.848961711
vn 0.996191621 -0.0552624762 -0.067442596
vn -0.0297915936 -0.502747595 0.863919735
vn -0.014897448 -0.502803504 0.864272296
vn 0.0148974471 -0.502803504 0.864272296
vn 0.996020019 -0.0577081479 -0.0679265857
vn -0.0314267091 -0.477280915 0.87818867
vn -0.0157152936 -0.477339834 0.878578246
vn 0.0157152973 -0.477339894 0.878578186
vn 0.995851874 -0.0601112507 -0.0683063716
vn -0.0330633037 -0.451813608 0.89149946
vn -0.0165339094 -0.451875627 0.89192766
vn 0.016533915 -0.451875687 0.8919276
vn 0.995699346 -0.0622653067 -0.0685992092
vn -0.0169416778 0.898437798 0.43877393
vn -0.0169424415 -0.439098477 0.89827919
vn 0.0169424396 -0.439098477 0.89827925
vn 0.995629847 -0.0632287487 -0.068727687
vn 0.0173636302 -0.806049109 -0.59159404
vn 0.0121294865 0.592043221 -0.805814922
vn 0.0125905639 0.579288781 -0.81502521
vn -0.996561646 -0.0501651131 -0.0659433976
vn -0.0121294865 0.592043221 -0.805814922
vn -0.0125904856 0.579289019 -0.815025032
vn 0.996667027 -0.0488108546 -0.0653641149
vn -0.0251791235 0.579212368 -0.814787686
vn 0.013456028 0.553728282 -0.832588673
vn -0.996366501 -0.0527743548 -0.0668483749
vn -0.0134559423 0.553728282 -0.832588673
vn -0.0269096103 0.553679824 -0.832294703
vn 0.0142698856 0.528267384 -0.848958135
vn -0.996191621 -0.0552624799 -0.0674426183
vn -0.0142698763 0.528267205 -0.848958254
vn -0.0285368487 0.528213918 -0.84863162
vn 0.0150852688 0.502803624 -0.864268959
vn -0.996020019 -0.0577081814 -0.0679265559
vn -0.0150852688 0.502803624 -0.864269018
vn -0.0301671084 0.502746463 -0.863907337
vn 0.0159007292 0.477339357 -0.878575206
vn -0.995851934 -0.0601113625 -0.0683064088
vn -0.0159007329 0.477339715 -0.878574908
vn -0.0317974463 0.477279365 -0.878176153
vn 0.0166750625 0.451727957 -0.8919999
vn -0.995699346 -0.0622652471 -0.0685991421
vn -0.0166750699 0.451728076 -0.891999722
vn -0.0333454795 0.451713592 -0.891539693
vn -0.0084711425 0.898455083 0.438983709
vn -0.995629787 -0.0632285178 -0.0687274933
vn 0.0084711425 0.898455083 0.438983709
vn 0.0169416778 0.898437798 0.43877393
vn -0.0340743139 0.438834786 -0.897921503
vn 0.995629847 -0.0632287487 -0.068727687
vn -0.0170396306 0.43880105 -0.898422599
vn 0.0340742953 0.43883571 -0.897921026
vn -0.0169416778 0.898437798 0.43877393
vn 0.0170396231 0.438801557 -0.89842248
vn 0.995699346 -0.0622653067 -0.0685992092
vn 0.0333454609 0.451713204 -0.891539872
vn 0.995851874 -0.0601112507 -0.0683063716
vn 0.0317974389 0.47727859 -0.87817663
vn 0.996020019 -0.0577081479 -0.0679265857
vn 0.0301671084 0.502746522 -0.863907337
vn 0.996191621 -0.0552624762 -0.067442596
vn 0.0285368674 0.528214335 -0.848631382
vn 0.996366501 -0.0527743697 -0.0668483749
vn 0.026909465 0.553679883 -0.832294703
vn 0.996561646 -0.0501651801 -0.0659434572
vn -0.0242571887 0.591936529 -0.805619478
vn -0.0173636302 -0.806049109 -0.59159404
vn -0.00868214201 -0.806063592 -0.591765344
vn 0.0251789596 0.57921207 -0.814787984
vn 0.00868214201 -0.806063592 -0.591765344
vn 0.0242571887 0.591936529 -0.805619478
vn -0.996667027 -0.0488108061 -0.0653641149
vn 0.0338800177 -0.439035267 0.897830904
vn 0.0169416778 0.898437798 0.43877393
vn 0.0084711425 0.898455083 0.438983709
vn -0.0084711425 0.898455083 0.438983709
vn -0.0338800214 -0.439035296 0.897830844
vn -0.995629787 -0.0632285178 -0.0687274933
vn 0.0330633186 -0.451813847 0.8914994
vn -0.995699346 -0.0622652471 -0.0685991421
vn 0.0314267203 -0.477281094 0.87818867
vn -0.995851934 -0.0601113625 -0.0683064088
vn 0.0297915917 -0.502747536 0.863919854
vn -0.996020019 -0.0577081814 -0.0679265559
vn 0.02815287 -0.528214216 0.848644257
vn -0.996191621 -0.0552624799 -0.0674426183
vn 0.0265149157 -0.553680003 0.832307279
vn -0.996366501 -0.0527743548 -0.0668483749
vn 0.0248774793 -0.579146445 0.814843893
vn -0.996561646 -0.0501651131 -0.0659433976
vn 0.0240549129 -0.591806293 0.805721283
vn 0.996667027 -0.0488108546 -0.0653641149
vn 0.0120283263 -0.591849625 0.805958629
vn -0.0120283375 -0.591849923 0.805958509
vn -0.0240549315 -0.59180671 0.805720866
vn 0.0173636302 -0.806049109 -0.59159404
g 
f 111//111 110//110 6//6 5//5
f 110//110 109//109 7//7 6//6
f 109//109 107//107 105//105 7//7
f 5//5 6//6 10//10 9//9
f 6//6 7//7 11//11 10//10
f 7//7 105//105 103//103 11//11
f 9//9 10//10 14//14 13//13
f 10//10 11//11 15//15 14//14
f 11//11 103//103 101//101 15//15
f 13//13 14//14 18//18 17//17
f 14//14 15//15 19//19 18//18
f 15//15 101//101 99//99 19//19
f 17//17 18//18 22//22 21//21
f 18//18 19//19 23//23 22//22
f 19//19 99//99 97//97 23//23
f 21//21 22//22 26//26 25//25
f 22//22 23//23 27//27 26//26
f 23//23 97//97 95//95 27//27
f 25//25 26//26 30//30 93//93
f 26//26 27//27 31//31 30//30
f 27//27 95//95 89//89 31//31
f 87//87 85//85 35//35 34//34
f 34//34 35//35 38//38 37//37
f 37//37 38//38 40//40 82//82
f 85//85 80//80 41//41 35//35
f 35//35 41//41 43//43 38//38
f 38//38 43//43 44//44 40//40
f 80//80 78//78 45//45 41//41
f 41//41 45//45 47//47 43//43
f 43//43 47//47 48//48 44//44
f 78//78 76//76 49//49 45//45
f 45//45 49//49 51//51 47//47
f 47//47 51//51 52//52 48//48
f 76//76 74//74 53//53 49//49
f 49//49 53//53 55//55 51//51
f 51//51 55//55 56//56 52//52
f 74//74 72//72 57//57 53//53
f 53//53 57//57 59//59 55//55
f 55//55 59//59 60//60 56//56
f 72//72 68//68 70//70 57//57
f 57//57 70//70 67//67 59//59
f 59//59 67//67 65//65 60//60
f 112//112 33//33 86//86 2//2
f 2//2 86//86 84//84 3//3
f 3//3 84//84 83//83 4//4
f 108//108 39//39 81//81 8//8
f 8//8 81//81 79//79 12//12
f 12//12 79//79 77//77 16//16
f 16//16 77//77 75//75 20//20
f 20//20 75//75 73//73 24//24
f 24//24 73//73 71//71 28//28
f 28//28 71//71 66//66 32//32
f 90//90 64//64 63//63 91//91
f 91//91 63//63 61//61 92//92
f 92//92 61//61 69//69 29//29
f 94//94 62//62 58//58 96//96
f 96//96 58//58 54//54 98//98
f 98//98 54//54 50//50 100//100
f 100//100 50//50 46//46 102//102
f 102//102 46//46 42//42 104//104
f 104//104 42//42 36//36 106//106
f 106//106 36//36 88//88 1//1
