# File exported by Houdini 17.0.459 (www.sidefx.com)
# 172 points
# 408 vertices
# 102 primitives
# Bounds: [-0.587400019, -2.80858469, 6.33912706] to [0.587400019, -0.634874046, 7.22486115]
g 
v -0.381222546 -2.80858469 6.66050911
v -0.127074197 -2.80858469 6.67059278
v 0.127074197 -2.80858469 6.67059278
v 0.381222546 -2.80858469 6.66050911
v -0.398404032 -2.63058472 6.73466539
v -0.132801339 -2.63058472 6.74555159
v 0.132801339 -2.63058472 6.74555159
v 0.398404032 -2.63058472 6.73466539
v -0.415585488 -2.45258451 6.80309629
v -0.138528496 -2.45258451 6.81481743
v 0.138528496 -2.45258451 6.81481743
v 0.415585488 -2.45258451 6.80309629
v -0.432766974 -2.27458429 6.86598015
v -0.144255638 -2.27458429 6.87856865
v 0.144255638 -2.27458429 6.87856865
v 0.432766974 -2.27458429 6.86598015
v -0.44994843 -2.09658432 6.92347288
v -0.149982795 -2.09658432 6.9369626
v 0.149982795 -2.09658432 6.9369626
v 0.44994843 -2.09658432 6.92347288
v -0.467129827 -1.91858459 6.97571373
v -0.155709937 -1.91858459 6.99013948
v 0.155709937 -1.91858459 6.99013948
v 0.467129827 -1.91858459 6.97571373
v -0.484311312 -1.74058461 7.02282476
v -0.161437079 -1.74058461 7.03822184
v 0.161437079 -1.74058461 7.03822184
v 0.484311312 -1.74058461 7.02282476
v -0.501492739 -1.5625844 7.06491184
v -0.167164236 -1.5625844 7.0813179
v 0.167164236 -1.5625844 7.0813179
v 0.501492739 -1.5625844 7.06491184
v -0.518674254 -1.38458443 7.10206795
v -0.172891393 -1.38458443 7.11952114
v 0.172891393 -1.38458443 7.11952114
v 0.518674254 -1.38458443 7.10206795
v -0.535855651 -1.20658445 7.13437319
v -0.178618535 -1.20658445 7.15291262
v 0.178618535 -1.20658445 7.15291262
v 0.535855651 -1.20658445 7.13437319
v -0.553037107 -1.02858472 7.16189528
v -0.184345692 -1.02858472 7.18156242
v 0.184345692 -1.02858472 7.18156242
v 0.553037107 -1.02858472 7.16189528
v -0.570218563 -0.850584507 7.18469143
v -0.190072834 -0.850584507 7.20552874
v 0.190072834 -0.850584507 7.20552874
v 0.570218563 -0.850584507 7.18469143
v -0.587400019 -0.672584534 7.2028079
v -0.195799991 -0.672584534 7.22486115
v 0.195799991 -0.672584534 7.22486115
v 0.587400019 -0.672584534 7.2028079
v -0.368256062 -2.67313528 6.33912706
v -0.12058872 -2.67308855 6.34896898
v -0.126181036 -2.49942875 6.42220163
v -0.3851493 -2.49955416 6.41143274
v 0.12058872 -2.67308855 6.34896898
v 0.126181036 -2.49942875 6.42220163
v 0.368256062 -2.67313528 6.33912706
v 0.3851493 -2.49955416 6.41143274
v -0.131622255 -2.33030391 6.48801374
v -0.401759207 -2.33044314 6.47642517
v 0.131622255 -2.33030391 6.48801374
v 0.401759207 -2.33044314 6.47642517
v -0.137063652 -2.16117978 6.54858589
v -0.418369174 -2.16133285 6.53614712
v 0.137063652 -2.16117978 6.54858589
v 0.418369174 -2.16133285 6.53614712
v -0.142504945 -1.99205542 6.6040678
v -0.434979081 -1.99222279 6.59074593
v 0.142504945 -1.99205542 6.6040678
v 0.434979081 -1.99222279 6.59074593
v -0.147946134 -1.82293093 6.65459347
v -0.451588959 -1.82311249 6.64035416
v 0.147946134 -1.82293093 6.65459347
v 0.451588959 -1.82311249 6.64035416
v -0.153387547 -1.65380585 6.70027876
v -0.468198985 -1.65400219 6.68508816
v 0.153387547 -1.65380585 6.70027876
v 0.468198985 -1.65400219 6.68508816
v -0.158828557 -1.48468018 6.7412262
v -0.484808713 -1.48489189 6.72504807
v 0.158828557 -1.48468018 6.7412262
v 0.484808713 -1.48489189 6.72504807
v -0.164269581 -1.31555533 6.77752447
v -0.501418531 -1.31578195 6.76032257
v 0.164269581 -1.31555533 6.77752447
v 0.501418531 -1.31578195 6.76032257
v -0.1697108 -1.14643025 6.80925131
v -0.518028498 -1.14667213 6.79098701
v 0.1697108 -1.14643025 6.80925131
v 0.518028498 -1.14667213 6.79098701
v -0.17515181 -0.977305353 6.83647251
v -0.534638524 -0.977562845 6.81710625
v 0.17515181 -0.977305353 6.83647251
v 0.534638524 -0.977562845 6.81710625
v -0.180592909 -0.80817914 6.85924435
v -0.551248372 -0.808452845 6.83873463
v 0.180592909 -0.80817914 6.85924435
v 0.551248372 -0.808452845 6.83873463
v -0.186166182 -0.634874046 6.87790442
v -0.568147063 -0.634903908 6.85638237
v 0.186166182 -0.634874046 6.87790442
v 0.568147063 -0.634903908 6.85638237
v 0.568147063 -0.634903908 6.85638237
v 0.568147063 -0.634903908 6.85638237
v 0.186166182 -0.634874046 6.87790442
v -0.568147063 -0.634903908 6.85638237
v -0.568147063 -0.634903908 6.85638237
v -0.186166182 -0.634874046 6.87790442
v 0.551248372 -0.808452845 6.83873463
v -0.551248372 -0.808452845 6.83873463
v 0.534638524 -0.977562845 6.81710625
v -0.534638524 -0.977562845 6.81710625
v 0.518028498 -1.14667213 6.79098701
v -0.518028498 -1.14667213 6.79098701
v 0.501418531 -1.31578195 6.76032257
v -0.501418531 -1.31578195 6.76032257
v 0.484808713 -1.48489189 6.72504807
v -0.484808713 -1.48489189 6.72504807
v 0.468198985 -1.65400219 6.68508816
v -0.468198985 -1.65400219 6.68508816
v 0.451588959 -1.82311249 6.64035416
v -0.451588959 -1.82311249 6.64035416
v 0.434979081 -1.99222279 6.59074593
v -0.434979081 -1.99222279 6.59074593
v 0.418369174 -2.16133285 6.53614712
v -0.418369174 -2.16133285 6.53614712
v 0.401759207 -2.33044314 6.47642517
v -0.401759207 -2.33044314 6.47642517
v 0.3851493 -2.49955416 6.41143274
v 0.368256062 -2.67313528 6.33912706
v 0.368256062 -2.67313528 6.33912706
v 0.12058872 -2.67308855 6.34896898
v -0.3851493 -2.49955416 6.41143274
v -0.12058872 -2.67308855 6.34896898
v -0.368256062 -2.67313528 6.33912706
v -0.368256062 -2.67313528 6.33912706
v 0.587400019 -0.672584534 7.2028079
v 0.587400019 -0.672584534 7.2028079
v 0.195799991 -0.672584534 7.22486115
v -0.195799991 -0.672584534 7.22486115
v -0.587400019 -0.672584534 7.2028079
v -0.587400019 -0.672584534 7.2028079
v 0.570218563 -0.850584507 7.18469143
v -0.570218563 -0.850584507 7.18469143
v 0.553037107 -1.02858472 7.16189528
v -0.553037107 -1.02858472 7.16189528
v 0.535855651 -1.20658445 7.13437319
v -0.535855651 -1.20658445 7.13437319
v 0.518674254 -1.38458443 7.10206795
v -0.518674254 -1.38458443 7.10206795
v 0.501492739 -1.5625844 7.06491184
v -0.501492739 -1.5625844 7.06491184
v 0.484311312 -1.74058461 7.02282476
v -0.484311312 -1.74058461 7.02282476
v 0.467129827 -1.91858459 6.97571373
v -0.467129827 -1.91858459 6.97571373
v 0.44994843 -2.09658432 6.92347288
v -0.44994843 -2.09658432 6.92347288
v 0.432766974 -2.27458429 6.86598015
v -0.432766974 -2.27458429 6.86598015
v 0.415585488 -2.45258451 6.80309629
v -0.415585488 -2.45258451 6.80309629
v 0.398404032 -2.63058472 6.73466539
v -0.398404032 -2.63058472 6.73466539
v 0.381222546 -2.80858469 6.66050911
v 0.381222546 -2.80858469 6.66050911
v 0.127074197 -2.80858469 6.67059278
v -0.127074197 -2.80858469 6.67059278
v -0.381222546 -2.80858469 6.66050911
v -0.381222546 -2.80858469 6.66050911
vn -0.995333374 -0.0679059625 -0.0685594603
vn 0.00774366874 -0.921599865 -0.388063997
vn -0.00774366921 -0.921599984 -0.388064027
vn -0.0154868728 -0.921586394 -0.387864441
vn -0.0379776955 -0.375409931 0.926080525
vn -0.0189922713 -0.375478297 0.926636577
vn 0.0189922825 -0.375478446 0.926636517
vn 0.995236158 -0.0691514313 -0.0687247664
vn -0.0396136194 -0.349942565 0.935933292
vn -0.0198106933 -0.350012004 0.936535656
vn 0.0198106952 -0.350012004 0.936535656
vn 0.995063543 -0.0714802146 -0.0688420907
vn -0.0412497148 -0.324473262 0.944995046
vn -0.0206292421 -0.32454294 0.945645928
vn 0.0206292458 -0.324542969 0.945645928
vn 0.994916201 -0.0736254454 -0.0687099174
vn -0.0428873375 -0.29900378 0.95328778
vn -0.0214485992 -0.299073309 0.953989089
vn 0.0214486029 -0.299073368 0.953989089
vn 0.994772434 -0.0757276639 -0.0685069636
vn -0.0445251912 -0.273535132 0.960830927
vn -0.0222681146 -0.273603648 0.961584747
vn 0.0222681202 -0.273603648 0.961584628
vn 0.994632125 -0.077787064 -0.06823688
vn -0.0461620204 -0.248065606 0.967642844
vn -0.0230871625 -0.248132825 0.968450963
vn 0.0230871718 -0.248132855 0.968450844
vn 0.994495153 -0.0798032507 -0.0679027513
vn -0.0478004515 -0.222595692 0.973738313
vn -0.0239070542 -0.222661003 0.974602818
vn 0.0239070579 -0.222661003 0.974602818
vn 0.994361818 -0.0817766711 -0.0675075948
vn -0.0494405217 -0.197125077 0.979130983
vn -0.0247278195 -0.197186828 0.98005408
vn 0.0247278251 -0.197186857 0.98005408
vn 0.99423182 -0.0837077722 -0.0670540407
vn -0.0510773547 -0.17165412 0.983832359
vn -0.025547009 -0.171711609 0.984815896
vn 0.0255470164 -0.171711639 0.984815955
vn 0.994105339 -0.0855958089 -0.0665440336
vn -0.0527132004 -0.146182388 0.987852335
vn -0.0263657626 -0.14623481 0.988898516
vn 0.0263657626 -0.14623481 0.988898516
vn 0.993982315 -0.0874404684 -0.0659802854
vn -0.0543517731 -0.120711148 0.991198659
vn -0.0271859281 -0.120758176 0.99230957
vn 0.0271859318 -0.120758191 0.99230957
vn 0.993876457 -0.0890317708 -0.0654456466
vn -0.00611291686 0.994149625 0.107838549
vn -0.0275939442 -0.108011872 0.993766665
vn 0.0275939442 -0.108011864 0.993766606
vn 0.993831098 -0.0897115916 -0.0652058646
vn 0.0154868737 -0.921586394 -0.3878645
vn 0.0186662748 0.38851732 -0.92125237
vn 0.0191272534 0.375650078 -0.926564217
vn -0.995236158 -0.0691513717 -0.0687246993
vn -0.0186662748 0.38851732 -0.92125237
vn -0.0191272534 0.375650078 -0.926564217
vn 0.995333374 -0.0679059625 -0.0685594603
vn -0.038247481 0.37552163 -0.926024139
vn 0.0199970417 0.350010335 -0.936532378
vn -0.995063484 -0.0714801475 -0.0688420236
vn -0.0199970417 0.350010335 -0.936532378
vn -0.0399860889 0.349936992 -0.935919523
vn 0.0208176374 0.324540257 -0.945642769
vn -0.994916201 -0.0736254454 -0.0687098876
vn -0.0208176374 0.324540257 -0.945642769
vn -0.041626256 0.324466318 -0.94498086
vn 0.0216389261 0.299069941 -0.95398587
vn -0.994772434 -0.0757276639 -0.0685069412
vn -0.0216389261 0.299069941 -0.95398587
vn -0.0432677232 0.29899478 -0.953273356
vn 0.0224615149 0.273600996 -0.961580932
vn -0.994632125 -0.077787064 -0.0682369098
vn -0.0224615149 0.273600996 -0.961580992
vn -0.0449117012 0.273526132 -0.960815489
vn 0.0232839342 0.248129457 -0.96844703
vn -0.994495153 -0.0798032507 -0.0679027811
vn -0.0232839342 0.248129457 -0.968447089
vn -0.0465552509 0.24805586 -0.967626512
vn 0.0241066106 0.222656339 -0.974598825
vn -0.994361818 -0.0817766711 -0.0675075799
vn -0.024106605 0.222656325 -0.974598944
vn -0.0481992029 0.222584486 -0.973721266
vn 0.024928892 0.197181851 -0.980049908
vn -0.99423182 -0.083707653 -0.0670540109
vn -0.0249288864 0.197181821 -0.980049908
vn -0.0498422831 0.197112858 -0.979112983
vn 0.0257507171 0.171705678 -0.984811604
vn -0.994105339 -0.0855956897 -0.0665440187
vn -0.0257507171 0.171705678 -0.984811664
vn -0.0514843613 0.171640217 -0.983813465
vn 0.026573915 0.146228537 -0.988893867
vn -0.993982315 -0.0874404684 -0.0659803003
vn -0.026573915 0.146228537 -0.988893867
vn -0.0531290732 0.14616771 -0.987832129
vn 0.0273477342 0.120408356 -0.992347658
vn -0.993876457 -0.0890317708 -0.0654456615
vn -0.0273477342 0.120408356 -0.992347658
vn -0.0546749309 0.120469585 -0.991210282
vn -0.0030564731 0.994152129 0.107946217
vn -0.993831098 -0.0897115916 -0.0652058646
vn 0.00305647333 0.994152129 0.107946225
vn 0.00611291733 0.994149625 0.107838556
vn -0.0553924143 0.107498109 -0.992661059
vn 0.993831098 -0.0897115916 -0.0652058646
vn -0.0277068447 0.107316777 -0.993838727
vn 0.0553924143 0.107498109 -0.992661059
vn -0.00611291686 0.994149625 0.107838549
vn 0.0277068447 0.107316777 -0.993838727
vn 0.993876457 -0.0890317708 -0.0654456466
vn 0.0546749309 0.120469585 -0.991210282
vn 0.993982315 -0.0874404684 -0.0659802854
vn 0.0531290732 0.146167696 -0.987832129
vn 0.994105339 -0.0855958089 -0.0665440336
vn 0.0514843613 0.171640202 -0.983813465
vn 0.99423182 -0.0837077722 -0.0670540407
vn 0.0498422943 0.197112918 -0.979112983
vn 0.994361818 -0.0817766711 -0.0675075948
vn 0.0481992178 0.222584546 -0.973721266
vn 0.994495153 -0.0798032507 -0.0679027513
vn 0.0465552509 0.24805586 -0.967626512
vn 0.994632125 -0.077787064 -0.06823688
vn 0.0449117012 0.273526132 -0.960815489
vn 0.994772434 -0.0757276639 -0.0685069636
vn 0.0432677232 0.29899478 -0.953273356
vn 0.994916201 -0.0736254454 -0.0687099174
vn 0.041626256 0.324466318 -0.94498086
vn 0.995063543 -0.0714802146 -0.0688420907
vn 0.0399860889 0.349936992 -0.935919464
vn 0.995236158 -0.0691514313 -0.0687247664
vn -0.0373260453 0.388334394 -0.9207623
vn -0.0154868728 -0.921586394 -0.387864441
vn -0.00774366921 -0.921599984 -0.388064027
vn 0.038247481 0.37552163 -0.926024139
vn 0.00774366874 -0.921599865 -0.388063997
vn 0.0373260453 0.388334394 -0.9207623
vn -0.995333374 -0.0679059625 -0.0685594603
vn 0.0551668778 -0.107967369 0.992622674
vn 0.00611291733 0.994149625 0.107838556
vn 0.00305647333 0.994152129 0.107946225
vn -0.0030564731 0.994152129 0.107946217
vn -0.0551668704 -0.107967354 0.992622614
vn -0.993831098 -0.0897115916 -0.0652058646
vn 0.0543517806 -0.120711163 0.991198719
vn -0.993876457 -0.0890317708 -0.0654456615
vn 0.0527132004 -0.146182388 0.987852275
vn -0.993982315 -0.0874404684 -0.0659803003
vn 0.0510773696 -0.17165418 0.983832359
vn -0.994105339 -0.0855956897 -0.0665440187
vn 0.0494405329 -0.197125122 0.979130864
vn -0.99423182 -0.083707653 -0.0670540109
vn 0.047800459 -0.222595721 0.973738313
vn -0.994361818 -0.0817766711 -0.0675075799
vn 0.0461620465 -0.248065755 0.967642784
vn -0.994495153 -0.0798032507 -0.0679027811
vn 0.0445252061 -0.273535252 0.960830927
vn -0.994632125 -0.077787064 -0.0682369098
vn 0.0428873375 -0.29900381 0.953287661
vn -0.994772434 -0.0757276639 -0.0685069412
vn 0.0412497222 -0.324473321 0.944995046
vn -0.994916201 -0.0736254454 -0.0687098876
vn 0.0396136232 -0.349942625 0.935933232
vn -0.995063484 -0.0714801475 -0.0688420236
vn 0.0379777178 -0.375410169 0.926080406
vn -0.995236158 -0.0691513717 -0.0687246993
vn 0.0371560343 -0.388106823 0.920865119
vn 0.995333374 -0.0679059625 -0.0685594603
vn 0.0185812265 -0.388174117 0.921398759
vn -0.0185812134 -0.388173968 0.921398818
vn -0.0371560082 -0.388106525 0.920865238
vn 0.0154868737 -0.921586394 -0.3878645
g 
f 171//171 170//170 6//6 5//5
f 170//170 169//169 7//7 6//6
f 169//169 167//167 165//165 7//7
f 5//5 6//6 10//10 9//9
f 6//6 7//7 11//11 10//10
f 7//7 165//165 163//163 11//11
f 9//9 10//10 14//14 13//13
f 10//10 11//11 15//15 14//14
f 11//11 163//163 161//161 15//15
f 13//13 14//14 18//18 17//17
f 14//14 15//15 19//19 18//18
f 15//15 161//161 159//159 19//19
f 17//17 18//18 22//22 21//21
f 18//18 19//19 23//23 22//22
f 19//19 159//159 157//157 23//23
f 21//21 22//22 26//26 25//25
f 22//22 23//23 27//27 26//26
f 23//23 157//157 155//155 27//27
f 25//25 26//26 30//30 29//29
f 26//26 27//27 31//31 30//30
f 27//27 155//155 153//153 31//31
f 29//29 30//30 34//34 33//33
f 30//30 31//31 35//35 34//34
f 31//31 153//153 151//151 35//35
f 33//33 34//34 38//38 37//37
f 34//34 35//35 39//39 38//38
f 35//35 151//151 149//149 39//39
f 37//37 38//38 42//42 41//41
f 38//38 39//39 43//43 42//42
f 39//39 149//149 147//147 43//43
f 41//41 42//42 46//46 45//45
f 42//42 43//43 47//47 46//46
f 43//43 147//147 145//145 47//47
f 45//45 46//46 50//50 143//143
f 46//46 47//47 51//51 50//50
f 47//47 145//145 139//139 51//51
f 137//137 135//135 55//55 54//54
f 54//54 55//55 58//58 57//57
f 57//57 58//58 60//60 132//132
f 135//135 130//130 61//61 55//55
f 55//55 61//61 63//63 58//58
f 58//58 63//63 64//64 60//60
f 130//130 128//128 65//65 61//61
f 61//61 65//65 67//67 63//63
f 63//63 67//67 68//68 64//64
f 128//128 126//126 69//69 65//65
f 65//65 69//69 71//71 67//67
f 67//67 71//71 72//72 68//68
f 126//126 124//124 73//73 69//69
f 69//69 73//73 75//75 71//71
f 71//71 75//75 76//76 72//72
f 124//124 122//122 77//77 73//73
f 73//73 77//77 79//79 75//75
f 75//75 79//79 80//80 76//76
f 122//122 120//120 81//81 77//77
f 77//77 81//81 83//83 79//79
f 79//79 83//83 84//84 80//80
f 120//120 118//118 85//85 81//81
f 81//81 85//85 87//87 83//83
f 83//83 87//87 88//88 84//84
f 118//118 116//116 89//89 85//85
f 85//85 89//89 91//91 87//87
f 87//87 91//91 92//92 88//88
f 116//116 114//114 93//93 89//89
f 89//89 93//93 95//95 91//91
f 91//91 95//95 96//96 92//92
f 114//114 112//112 97//97 93//93
f 93//93 97//97 99//99 95//95
f 95//95 99//99 100//100 96//96
f 112//112 108//108 110//110 97//97
f 97//97 110//110 107//107 99//99
f 99//99 107//107 105//105 100//100
f 172//172 53//53 136//136 2//2
f 2//2 136//136 134//134 3//3
f 3//3 134//134 133//133 4//4
f 168//168 59//59 131//131 8//8
f 8//8 131//131 129//129 12//12
f 12//12 129//129 127//127 16//16
f 16//16 127//127 125//125 20//20
f 20//20 125//125 123//123 24//24
f 24//24 123//123 121//121 28//28
f 28//28 121//121 119//119 32//32
f 32//32 119//119 117//117 36//36
f 36//36 117//117 115//115 40//40
f 40//40 115//115 113//113 44//44
f 44//44 113//113 111//111 48//48
f 48//48 111//111 106//106 52//52
f 140//140 104//104 103//103 141//141
f 141//141 103//103 101//101 142//142
f 142//142 101//101 109//109 49//49
f 144//144 102//102 98//98 146//146
f 146//146 98//98 94//94 148//148
f 148//148 94//94 90//90 150//150
f 150//150 90//90 86//86 152//152
f 152//152 86//86 82//82 154//154
f 154//154 82//82 78//78 156//156
f 156//156 78//78 74//74 158//158
f 158//158 74//74 70//70 160//160
f 160//160 70//70 66//66 162//162
f 162//162 66//66 62//62 164//164
f 164//164 62//62 56//56 166//166
f 166//166 56//56 138//138 1//1
