# File exported by Houdini 17.0.459 (www.sidefx.com)
# 88 points
# 184 vertices
# 46 primitives
# Bounds: [-0.587400019, -1.5625844, 6.7241044] to [0.587400019, -0.634874046, 7.22486115]
g 
v -0.501492739 -1.5625844 7.06491184
v -0.167164236 -1.5625844 7.0813179
v 0.167164236 -1.5625844 7.0813179
v 0.501492739 -1.5625844 7.06491184
v -0.518674254 -1.38458443 7.10206795
v -0.172891393 -1.38458443 7.11952114
v 0.172891393 -1.38458443 7.11952114
v 0.518674254 -1.38458443 7.10206795
v -0.535855651 -1.20658445 7.13437319
v -0.178618535 -1.20658445 7.15291262
v 0.178618535 -1.20658445 7.15291262
v 0.535855651 -1.20658445 7.13437319
v -0.553037107 -1.02858472 7.16189528
v -0.184345692 -1.02858472 7.18156242
v 0.184345692 -1.02858472 7.18156242
v 0.553037107 -1.02858472 7.16189528
v -0.570218563 -0.850584507 7.18469143
v -0.190072834 -0.850584507 7.20552874
v 0.190072834 -0.850584507 7.20552874
v 0.570218563 -0.850584507 7.18469143
v -0.587400019 -0.672584534 7.2028079
v -0.195799991 -0.672584534 7.22486115
v 0.195799991 -0.672584534 7.22486115
v 0.587400019 -0.672584534 7.2028079
v -0.484525681 -1.48934925 6.7241044
v -0.158675686 -1.48930526 6.740098
v -0.164269581 -1.31555533 6.77752447
v -0.501418531 -1.31578195 6.76032257
v 0.158675686 -1.48930526 6.740098
v 0.164269581 -1.31555533 6.77752447
v 0.484525681 -1.48934925 6.7241044
v 0.501418531 -1.31578195 6.76032257
v -0.1697108 -1.14643025 6.80925131
v -0.518028498 -1.14667213 6.79098701
v 0.1697108 -1.14643025 6.80925131
v 0.518028498 -1.14667213 6.79098701
v -0.17515181 -0.977305353 6.83647251
v -0.534638524 -0.977562845 6.81710625
v 0.17515181 -0.977305353 6.83647251
v 0.534638524 -0.977562845 6.81710625
v -0.180592909 -0.80817914 6.85924435
v -0.551248372 -0.808452845 6.83873463
v 0.180592909 -0.80817914 6.85924435
v 0.551248372 -0.808452845 6.83873463
v -0.186166182 -0.634874046 6.87790442
v -0.568147063 -0.634903908 6.85638237
v 0.186166182 -0.634874046 6.87790442
v 0.568147063 -0.634903908 6.85638237
v 0.568147063 -0.634903908 6.85638237
v 0.568147063 -0.634903908 6.85638237
v 0.186166182 -0.634874046 6.87790442
v -0.568147063 -0.634903908 6.85638237
v -0.568147063 -0.634903908 6.85638237
v -0.186166182 -0.634874046 6.87790442
v 0.551248372 -0.808452845 6.83873463
v -0.551248372 -0.808452845 6.83873463
v 0.534638524 -0.977562845 6.81710625
v -0.534638524 -0.977562845 6.81710625
v 0.518028498 -1.14667213 6.79098701
v -0.518028498 -1.14667213 6.79098701
v 0.501418531 -1.31578195 6.76032257
v 0.484525681 -1.48934925 6.7241044
v 0.484525681 -1.48934925 6.7241044
v 0.158675686 -1.48930526 6.740098
v -0.501418531 -1.31578195 6.76032257
v -0.158675686 -1.48930526 6.740098
v -0.484525681 -1.48934925 6.7241044
v -0.484525681 -1.48934925 6.7241044
v 0.587400019 -0.672584534 7.2028079
v 0.587400019 -0.672584534 7.2028079
v 0.195799991 -0.672584534 7.22486115
v -0.195799991 -0.672584534 7.22486115
v -0.587400019 -0.672584534 7.2028079
v -0.587400019 -0.672584534 7.2028079
v 0.570218563 -0.850584507 7.18469143
v -0.570218563 -0.850584507 7.18469143
v 0.553037107 -1.02858472 7.16189528
v -0.553037107 -1.02858472 7.16189528
v 0.535855651 -1.20658445 7.13437319
v -0.535855651 -1.20658445 7.13437319
v 0.518674254 -1.38458443 7.10206795
v -0.518674254 -1.38458443 7.10206795
v 0.501492739 -1.5625844 7.06491184
v 0.501492739 -1.5625844 7.06491184
v 0.167164236 -1.5625844 7.0813179
v -0.167164236 -1.5625844 7.0813179
v -0.501492739 -1.5625844 7.06491184
v -0.501492739 -1.5625844 7.06491184
vn -0.994345427 -0.0823897123 -0.0670009479
vn 0.00517725619 -0.97772795 -0.209812313
vn -0.00517725665 -0.977728009 -0.20981206
vn -0.0103543755 -0.97772187 -0.20964931
vn -0.0494405217 -0.197125077 0.979130983
vn -0.0247278195 -0.197186828 0.98005408
vn 0.0247278251 -0.197186857 0.98005408
vn 0.994256914 -0.0835261941 -0.0669069588
vn -0.0510773547 -0.17165412 0.983832359
vn -0.025547009 -0.171711609 0.984815896
vn 0.0255470164 -0.171711639 0.984815955
vn 0.994105339 -0.0855958089 -0.0665440336
vn -0.0527132004 -0.146182388 0.987852335
vn -0.0263657626 -0.14623481 0.988898516
vn 0.0263657626 -0.14623481 0.988898516
vn 0.993982315 -0.0874404684 -0.0659802854
vn -0.0543517731 -0.120711148 0.991198659
vn -0.0271859281 -0.120758176 0.99230957
vn 0.0271859318 -0.120758191 0.99230957
vn 0.993876457 -0.0890317708 -0.0654456466
vn -0.00611291686 0.994149625 0.107838549
vn -0.0275939442 -0.108011872 0.993766665
vn 0.0275939442 -0.108011864 0.993766606
vn 0.993831098 -0.0897115916 -0.0652058646
vn 0.0103543745 -0.977721751 -0.209649801
vn 0.0244081039 0.210451096 -0.977299631
vn 0.0248750318 0.197457388 -0.979995847
vn -0.994256914 -0.0835260749 -0.066906929
vn -0.0244081039 0.210451096 -0.977299631
vn -0.0248750318 0.197457403 -0.979995847
vn 0.994345427 -0.0823897123 -0.0670009777
vn -0.0497346222 0.197298884 -0.979081035
vn 0.0257507171 0.171705678 -0.984811604
vn -0.994105339 -0.0855956897 -0.0665440187
vn -0.0257507171 0.171705678 -0.984811664
vn -0.0514843613 0.171640217 -0.983813465
vn 0.026573915 0.146228537 -0.988893867
vn -0.993982315 -0.0874404684 -0.0659803003
vn -0.026573915 0.146228537 -0.988893867
vn -0.0531290732 0.14616771 -0.987832129
vn 0.0273477342 0.120408356 -0.992347658
vn -0.993876457 -0.0890317708 -0.0654456615
vn -0.0273477342 0.120408356 -0.992347658
vn -0.0546749309 0.120469585 -0.991210282
vn -0.0030564731 0.994152129 0.107946217
vn -0.993831098 -0.0897115916 -0.0652058646
vn 0.00305647333 0.994152129 0.107946225
vn 0.00611291733 0.994149625 0.107838556
vn -0.0553924143 0.107498109 -0.992661059
vn 0.993831098 -0.0897115916 -0.0652058646
vn -0.0277068447 0.107316777 -0.993838727
vn 0.0553924143 0.107498109 -0.992661059
vn -0.00611291686 0.994149625 0.107838549
vn 0.0277068447 0.107316777 -0.993838727
vn 0.993876457 -0.0890317708 -0.0654456466
vn 0.0546749309 0.120469585 -0.991210282
vn 0.993982315 -0.0874404684 -0.0659802854
vn 0.0531290732 0.146167696 -0.987832129
vn 0.994105339 -0.0855958089 -0.0665440336
vn 0.0514843613 0.171640202 -0.983813465
vn 0.994256914 -0.0835261941 -0.0669069588
vn -0.0488016717 0.210202336 -0.976439238
vn -0.0103543755 -0.97772187 -0.20964931
vn -0.00517725665 -0.977728009 -0.20981206
vn 0.0497346222 0.197298884 -0.979081035
vn 0.00517725619 -0.97772795 -0.209812313
vn 0.0488016717 0.210202336 -0.976439238
vn -0.994345427 -0.0823897123 -0.0670009479
vn 0.0551668778 -0.107967369 0.992622674
vn 0.00611291733 0.994149625 0.107838556
vn 0.00305647333 0.994152129 0.107946225
vn -0.0030564731 0.994152129 0.107946217
vn -0.0551668704 -0.107967354 0.992622614
vn -0.993831098 -0.0897115916 -0.0652058646
vn 0.0543517806 -0.120711163 0.991198719
vn -0.993876457 -0.0890317708 -0.0654456615
vn 0.0527132004 -0.146182388 0.987852275
vn -0.993982315 -0.0874404684 -0.0659803003
vn 0.0510773696 -0.17165418 0.983832359
vn -0.994105339 -0.0855956897 -0.0665440187
vn 0.0494405329 -0.197125122 0.979130864
vn -0.994256914 -0.0835260749 -0.066906929
vn 0.0486164689 -0.209842801 0.976525784
vn 0.994345427 -0.0823897123 -0.0670009777
vn 0.0243154205 -0.209906578 0.977419078
vn -0.0243154205 -0.209906578 0.977419078
vn -0.0486164689 -0.209842801 0.976525784
vn 0.0103543745 -0.977721751 -0.209649801
g 
f 87//87 86//86 6//6 5//5
f 86//86 85//85 7//7 6//6
f 85//85 83//83 81//81 7//7
f 5//5 6//6 10//10 9//9
f 6//6 7//7 11//11 10//10
f 7//7 81//81 79//79 11//11
f 9//9 10//10 14//14 13//13
f 10//10 11//11 15//15 14//14
f 11//11 79//79 77//77 15//15
f 13//13 14//14 18//18 17//17
f 14//14 15//15 19//19 18//18
f 15//15 77//77 75//75 19//19
f 17//17 18//18 22//22 73//73
f 18//18 19//19 23//23 22//22
f 19//19 75//75 69//69 23//23
f 67//67 65//65 27//27 26//26
f 26//26 27//27 30//30 29//29
f 29//29 30//30 32//32 62//62
f 65//65 60//60 33//33 27//27
f 27//27 33//33 35//35 30//30
f 30//30 35//35 36//36 32//32
f 60//60 58//58 37//37 33//33
f 33//33 37//37 39//39 35//35
f 35//35 39//39 40//40 36//36
f 58//58 56//56 41//41 37//37
f 37//37 41//41 43//43 39//39
f 39//39 43//43 44//44 40//40
f 56//56 52//52 54//54 41//41
f 41//41 54//54 51//51 43//43
f 43//43 51//51 49//49 44//44
f 88//88 25//25 66//66 2//2
f 2//2 66//66 64//64 3//3
f 3//3 64//64 63//63 4//4
f 84//84 31//31 61//61 8//8
f 8//8 61//61 59//59 12//12
f 12//12 59//59 57//57 16//16
f 16//16 57//57 55//55 20//20
f 20//20 55//55 50//50 24//24
f 70//70 48//48 47//47 71//71
f 71//71 47//47 45//45 72//72
f 72//72 45//45 53//53 21//21
f 74//74 46//46 42//42 76//76
f 76//76 42//42 38//38 78//78
f 78//78 38//38 34//34 80//80
f 80//80 34//34 28//28 82//82
f 82//82 28//28 68//68 1//1
