# File exported by Houdini 17.0.459 (www.sidefx.com)
# 136 points
# 312 vertices
# 78 primitives
# Bounds: [-0.587400019, -2.27458429, 6.53469324] to [0.587400019, -0.634874046, 7.22486115]
g 
v -0.432766974 -2.27458429 6.86598015
v -0.144255638 -2.27458429 6.87856865
v 0.144255638 -2.27458429 6.87856865
v 0.432766974 -2.27458429 6.86598015
v -0.44994843 -2.09658432 6.92347288
v -0.149982795 -2.09658432 6.9369626
v 0.149982795 -2.09658432 6.9369626
v 0.44994843 -2.09658432 6.92347288
v -0.467129827 -1.91858459 6.97571373
v -0.155709937 -1.91858459 6.99013948
v 0.155709937 -1.91858459 6.99013948
v 0.467129827 -1.91858459 6.97571373
v -0.484311312 -1.74058461 7.02282476
v -0.161437079 -1.74058461 7.03822184
v 0.161437079 -1.74058461 7.03822184
v 0.484311312 -1.74058461 7.02282476
v -0.501492739 -1.5625844 7.06491184
v -0.167164236 -1.5625844 7.0813179
v 0.167164236 -1.5625844 7.0813179
v 0.501492739 -1.5625844 7.06491184
v -0.518674254 -1.38458443 7.10206795
v -0.172891393 -1.38458443 7.11952114
v 0.172891393 -1.38458443 7.11952114
v 0.518674254 -1.38458443 7.10206795
v -0.535855651 -1.20658445 7.13437319
v -0.178618535 -1.20658445 7.15291262
v 0.178618535 -1.20658445 7.15291262
v 0.535855651 -1.20658445 7.13437319
v -0.553037107 -1.02858472 7.16189528
v -0.184345692 -1.02858472 7.18156242
v 0.184345692 -1.02858472 7.18156242
v 0.553037107 -1.02858472 7.16189528
v -0.570218563 -0.850584507 7.18469143
v -0.190072834 -0.850584507 7.20552874
v 0.190072834 -0.850584507 7.20552874
v 0.570218563 -0.850584507 7.18469143
v -0.587400019 -0.672584534 7.2028079
v -0.195799991 -0.672584534 7.22486115
v 0.195799991 -0.672584534 7.22486115
v 0.587400019 -0.672584534 7.2028079
v -0.418086082 -2.16579771 6.53469324
v -0.136911944 -2.16574907 6.54697275
v -0.142504945 -1.99205542 6.6040678
v -0.434979081 -1.99222279 6.59074593
v 0.136911944 -2.16574907 6.54697275
v 0.142504945 -1.99205542 6.6040678
v 0.418086082 -2.16579771 6.53469324
v 0.434979081 -1.99222279 6.59074593
v -0.147946134 -1.82293093 6.65459347
v -0.451588959 -1.82311249 6.64035416
v 0.147946134 -1.82293093 6.65459347
v 0.451588959 -1.82311249 6.64035416
v -0.153387547 -1.65380585 6.70027876
v -0.468198985 -1.65400219 6.68508816
v 0.153387547 -1.65380585 6.70027876
v 0.468198985 -1.65400219 6.68508816
v -0.158828557 -1.48468018 6.7412262
v -0.484808713 -1.48489189 6.72504807
v 0.158828557 -1.48468018 6.7412262
v 0.484808713 -1.48489189 6.72504807
v -0.164269581 -1.31555533 6.77752447
v -0.501418531 -1.31578195 6.76032257
v 0.164269581 -1.31555533 6.77752447
v 0.501418531 -1.31578195 6.76032257
v -0.1697108 -1.14643025 6.80925131
v -0.518028498 -1.14667213 6.79098701
v 0.1697108 -1.14643025 6.80925131
v 0.518028498 -1.14667213 6.79098701
v -0.17515181 -0.977305353 6.83647251
v -0.534638524 -0.977562845 6.81710625
v 0.17515181 -0.977305353 6.83647251
v 0.534638524 -0.977562845 6.81710625
v -0.180592909 -0.80817914 6.85924435
v -0.551248372 -0.808452845 6.83873463
v 0.180592909 -0.80817914 6.85924435
v 0.551248372 -0.808452845 6.83873463
v -0.186166182 -0.634874046 6.87790442
v -0.568147063 -0.634903908 6.85638237
v 0.186166182 -0.634874046 6.87790442
v 0.568147063 -0.634903908 6.85638237
v 0.568147063 -0.634903908 6.85638237
v 0.568147063 -0.634903908 6.85638237
v 0.186166182 -0.634874046 6.87790442
v -0.568147063 -0.634903908 6.85638237
v -0.568147063 -0.634903908 6.85638237
v -0.186166182 -0.634874046 6.87790442
v 0.551248372 -0.808452845 6.83873463
v -0.551248372 -0.808452845 6.83873463
v 0.534638524 -0.977562845 6.81710625
v -0.534638524 -0.977562845 6.81710625
v 0.518028498 -1.14667213 6.79098701
v -0.518028498 -1.14667213 6.79098701
v 0.501418531 -1.31578195 6.76032257
v -0.501418531 -1.31578195 6.76032257
v 0.484808713 -1.48489189 6.72504807
v -0.484808713 -1.48489189 6.72504807
v 0.468198985 -1.65400219 6.68508816
v -0.468198985 -1.65400219 6.68508816
v 0.451588959 -1.82311249 6.64035416
v -0.451588959 -1.82311249 6.64035416
v 0.434979081 -1.99222279 6.59074593
v 0.418086082 -2.16579771 6.53469324
v 0.418086082 -2.16579771 6.53469324
v 0.136911944 -2.16574907 6.54697275
v -0.434979081 -1.99222279 6.59074593
v -0.136911944 -2.16574907 6.54697275
v -0.418086082 -2.16579771 6.53469324
v -0.418086082 -2.16579771 6.53469324
v 0.587400019 -0.672584534 7.2028079
v 0.587400019 -0.672584534 7.2028079
v 0.195799991 -0.672584534 7.22486115
v -0.195799991 -0.672584534 7.22486115
v -0.587400019 -0.672584534 7.2028079
v -0.587400019 -0.672584534 7.2028079
v 0.570218563 -0.850584507 7.18469143
v -0.570218563 -0.850584507 7.18469143
v 0.553037107 -1.02858472 7.16189528
v -0.553037107 -1.02858472 7.16189528
v 0.535855651 -1.20658445 7.13437319
v -0.535855651 -1.20658445 7.13437319
v 0.518674254 -1.38458443 7.10206795
v -0.518674254 -1.38458443 7.10206795
v 0.501492739 -1.5625844 7.06491184
v -0.501492739 -1.5625844 7.06491184
v 0.484311312 -1.74058461 7.02282476
v -0.484311312 -1.74058461 7.02282476
v 0.467129827 -1.91858459 6.97571373
v -0.467129827 -1.91858459 6.97571373
v 0.44994843 -2.09658432 6.92347288
v -0.44994843 -2.09658432 6.92347288
v 0.432766974 -2.27458429 6.86598015
v 0.432766974 -2.27458429 6.86598015
v 0.144255638 -2.27458429 6.87856865
v -0.144255638 -2.27458429 6.87856865
v -0.432766974 -2.27458429 6.86598015
v -0.432766974 -2.27458429 6.86598015
vn -0.994889617 -0.0743668452 -0.0682966262
vn 0.00683924742 -0.950165749 -0.311670333
vn -0.00683924742 -0.950165749 -0.311670333
vn -0.0136781735 -0.950154901 -0.311477989
vn -0.0428873375 -0.29900378 0.95328778
vn -0.0214485992 -0.299073309 0.953989089
vn 0.0214486029 -0.299073368 0.953989089
vn 0.994795918 -0.0755674616 -0.0683424547
vn -0.0445251912 -0.273535132 0.960830927
vn -0.0222681146 -0.273603648 0.961584747
vn 0.0222681202 -0.273603648 0.961584628
vn 0.994632125 -0.077787064 -0.06823688
vn -0.0461620204 -0.248065606 0.967642844
vn -0.0230871625 -0.248132825 0.968450963
vn 0.0230871718 -0.248132855 0.968450844
vn 0.994495153 -0.0798032507 -0.0679027513
vn -0.0478004515 -0.222595692 0.973738313
vn -0.0239070542 -0.222661003 0.974602818
vn 0.0239070579 -0.222661003 0.974602818
vn 0.994361818 -0.0817766711 -0.0675075948
vn -0.0494405217 -0.197125077 0.979130983
vn -0.0247278195 -0.197186828 0.98005408
vn 0.0247278251 -0.197186857 0.98005408
vn 0.99423182 -0.0837077722 -0.0670540407
vn -0.0510773547 -0.17165412 0.983832359
vn -0.025547009 -0.171711609 0.984815896
vn 0.0255470164 -0.171711639 0.984815955
vn 0.994105339 -0.0855958089 -0.0665440336
vn -0.0527132004 -0.146182388 0.987852335
vn -0.0263657626 -0.14623481 0.988898516
vn 0.0263657626 -0.14623481 0.988898516
vn 0.993982315 -0.0874404684 -0.0659802854
vn -0.0543517731 -0.120711148 0.991198659
vn -0.0271859281 -0.120758176 0.99230957
vn 0.0271859318 -0.120758191 0.99230957
vn 0.993876457 -0.0890317708 -0.0654456466
vn -0.00611291686 0.994149625 0.107838549
vn -0.0275939442 -0.108011872 0.993766665
vn 0.0275939442 -0.108011864 0.993766606
vn 0.993831098 -0.0897115916 -0.0652058646
vn 0.0136781735 -0.950154901 -0.311477989
vn 0.0211264882 0.312200248 -0.949781299
vn 0.0215894077 0.299283296 -0.953920066
vn -0.994795918 -0.0755674616 -0.0683424845
vn -0.0211264882 0.312200248 -0.949781299
vn -0.0215894077 0.299283266 -0.953920066
vn 0.994889617 -0.0743668452 -0.0682965666
vn -0.0431687161 0.299138963 -0.953232527
vn 0.0224615149 0.273600996 -0.961580932
vn -0.994632125 -0.077787064 -0.0682369098
vn -0.0224615149 0.273600996 -0.961580992
vn -0.0449117012 0.273526132 -0.960815489
vn 0.0232839342 0.248129457 -0.96844703
vn -0.994495153 -0.0798032507 -0.0679027811
vn -0.0232839342 0.248129457 -0.968447089
vn -0.0465552509 0.24805586 -0.967626512
vn 0.0241066106 0.222656339 -0.974598825
vn -0.994361818 -0.0817766711 -0.0675075799
vn -0.024106605 0.222656325 -0.974598944
vn -0.0481992029 0.222584486 -0.973721266
vn 0.024928892 0.197181851 -0.980049908
vn -0.99423182 -0.083707653 -0.0670540109
vn -0.0249288864 0.197181821 -0.980049908
vn -0.0498422831 0.197112858 -0.979112983
vn 0.0257507171 0.171705678 -0.984811604
vn -0.994105339 -0.0855956897 -0.0665440187
vn -0.0257507171 0.171705678 -0.984811664
vn -0.0514843613 0.171640217 -0.983813465
vn 0.026573915 0.146228537 -0.988893867
vn -0.993982315 -0.0874404684 -0.0659803003
vn -0.026573915 0.146228537 -0.988893867
vn -0.0531290732 0.14616771 -0.987832129
vn 0.0273477342 0.120408356 -0.992347658
vn -0.993876457 -0.0890317708 -0.0654456615
vn -0.0273477342 0.120408356 -0.992347658
vn -0.0546749309 0.120469585 -0.991210282
vn -0.0030564731 0.994152129 0.107946217
vn -0.993831098 -0.0897115916 -0.0652058646
vn 0.00305647333 0.994152129 0.107946225
vn 0.00611291733 0.994149625 0.107838556
vn -0.0553924143 0.107498109 -0.992661059
vn 0.993831098 -0.0897115916 -0.0652058646
vn -0.0277068447 0.107316777 -0.993838727
vn 0.0553924143 0.107498109 -0.992661059
vn -0.00611291686 0.994149625 0.107838549
vn 0.0277068447 0.107316777 -0.993838727
vn 0.993876457 -0.0890317708 -0.0654456466
vn 0.0546749309 0.120469585 -0.991210282
vn 0.993982315 -0.0874404684 -0.0659802854
vn 0.0531290732 0.146167696 -0.987832129
vn 0.994105339 -0.0855958089 -0.0665440336
vn 0.0514843613 0.171640202 -0.983813465
vn 0.99423182 -0.0837077722 -0.0670540407
vn 0.0498422943 0.197112918 -0.979112983
vn 0.994361818 -0.0817766711 -0.0675075948
vn 0.0481992178 0.222584546 -0.973721266
vn 0.994495153 -0.0798032507 -0.0679027513
vn 0.0465552509 0.24805586 -0.967626512
vn 0.994632125 -0.077787064 -0.06823688
vn 0.0449117012 0.273526132 -0.960815489
vn 0.994795918 -0.0755674616 -0.0683424547
vn -0.0422435477 0.311988205 -0.94914639
vn -0.0136781735 -0.950154901 -0.311477989
vn -0.00683924742 -0.950165749 -0.311670333
vn 0.0431687161 0.299138963 -0.953232527
vn 0.00683924742 -0.950165749 -0.311670333
vn 0.0422435477 0.311988205 -0.94914639
vn -0.994889617 -0.0743668452 -0.0682966262
vn 0.0551668778 -0.107967369 0.992622674
vn 0.00611291733 0.994149625 0.107838556
vn 0.00305647333 0.994152129 0.107946225
vn -0.0030564731 0.994152129 0.107946217
vn -0.0551668704 -0.107967354 0.992622614
vn -0.993831098 -0.0897115916 -0.0652058646
vn 0.0543517806 -0.120711163 0.991198719
vn -0.993876457 -0.0890317708 -0.0654456615
vn 0.0527132004 -0.146182388 0.987852275
vn -0.993982315 -0.0874404684 -0.0659803003
vn 0.0510773696 -0.17165418 0.983832359
vn -0.994105339 -0.0855956897 -0.0665440187
vn 0.0494405329 -0.197125122 0.979130864
vn -0.99423182 -0.083707653 -0.0670540109
vn 0.047800459 -0.222595721 0.973738313
vn -0.994361818 -0.0817766711 -0.0675075799
vn 0.0461620465 -0.248065755 0.967642784
vn -0.994495153 -0.0798032507 -0.0679027811
vn 0.0445252061 -0.273535252 0.960830927
vn -0.994632125 -0.077787064 -0.0682369098
vn 0.0428873375 -0.29900381 0.953287661
vn -0.994795918 -0.0755674616 -0.0683424845
vn 0.042064257 -0.311709791 0.94924587
vn 0.994889617 -0.0743668452 -0.0682965666
vn 0.0210367814 -0.311779439 0.949921548
vn -0.0210367702 -0.31177932 0.949921548
vn -0.0420642346 -0.311709613 0.94924587
vn 0.0136781735 -0.950154901 -0.311477989
g 
f 135//135 134//134 6//6 5//5
f 134//134 133//133 7//7 6//6
f 133//133 131//131 129//129 7//7
f 5//5 6//6 10//10 9//9
f 6//6 7//7 11//11 10//10
f 7//7 129//129 127//127 11//11
f 9//9 10//10 14//14 13//13
f 10//10 11//11 15//15 14//14
f 11//11 127//127 125//125 15//15
f 13//13 14//14 18//18 17//17
f 14//14 15//15 19//19 18//18
f 15//15 125//125 123//123 19//19
f 17//17 18//18 22//22 21//21
f 18//18 19//19 23//23 22//22
f 19//19 123//123 121//121 23//23
f 21//21 22//22 26//26 25//25
f 22//22 23//23 27//27 26//26
f 23//23 121//121 119//119 27//27
f 25//25 26//26 30//30 29//29
f 26//26 27//27 31//31 30//30
f 27//27 119//119 117//117 31//31
f 29//29 30//30 34//34 33//33
f 30//30 31//31 35//35 34//34
f 31//31 117//117 115//115 35//35
f 33//33 34//34 38//38 113//113
f 34//34 35//35 39//39 38//38
f 35//35 115//115 109//109 39//39
f 107//107 105//105 43//43 42//42
f 42//42 43//43 46//46 45//45
f 45//45 46//46 48//48 102//102
f 105//105 100//100 49//49 43//43
f 43//43 49//49 51//51 46//46
f 46//46 51//51 52//52 48//48
f 100//100 98//98 53//53 49//49
f 49//49 53//53 55//55 51//51
f 51//51 55//55 56//56 52//52
f 98//98 96//96 57//57 53//53
f 53//53 57//57 59//59 55//55
f 55//55 59//59 60//60 56//56
f 96//96 94//94 61//61 57//57
f 57//57 61//61 63//63 59//59
f 59//59 63//63 64//64 60//60
f 94//94 92//92 65//65 61//61
f 61//61 65//65 67//67 63//63
f 63//63 67//67 68//68 64//64
f 92//92 90//90 69//69 65//65
f 65//65 69//69 71//71 67//67
f 67//67 71//71 72//72 68//68
f 90//90 88//88 73//73 69//69
f 69//69 73//73 75//75 71//71
f 71//71 75//75 76//76 72//72
f 88//88 84//84 86//86 73//73
f 73//73 86//86 83//83 75//75
f 75//75 83//83 81//81 76//76
f 136//136 41//41 106//106 2//2
f 2//2 106//106 104//104 3//3
f 3//3 104//104 103//103 4//4
f 132//132 47//47 101//101 8//8
f 8//8 101//101 99//99 12//12
f 12//12 99//99 97//97 16//16
f 16//16 97//97 95//95 20//20
f 20//20 95//95 93//93 24//24
f 24//24 93//93 91//91 28//28
f 28//28 91//91 89//89 32//32
f 32//32 89//89 87//87 36//36
f 36//36 87//87 82//82 40//40
f 110//110 80//80 79//79 111//111
f 111//111 79//79 77//77 112//112
f 112//112 77//77 85//85 37//37
f 114//114 78//78 74//74 116//116
f 116//116 74//74 70//70 118//118
f 118//118 70//70 66//66 120//120
f 120//120 66//66 62//62 122//122
f 122//122 62//62 58//58 124//124
f 124//124 58//58 54//54 126//126
f 126//126 54//54 50//50 128//128
f 128//128 50//50 44//44 130//130
f 130//130 44//44 108//108 1//1
