# File exported by Houdini 17.0.459 (www.sidefx.com)
# 64 points
# 120 vertices
# 30 primitives
# Bounds: [-0.587400019, -1.20658445, 6.79028368] to [0.587400019, -0.634874046, 7.22486115]
g 
v -0.535855651 -1.20658445 7.13437319
v -0.178618535 -1.20658445 7.15291262
v 0.178618535 -1.20658445 7.15291262
v 0.535855651 -1.20658445 7.13437319
v -0.553037107 -1.02858472 7.16189528
v -0.184345692 -1.02858472 7.18156242
v 0.184345692 -1.02858472 7.18156242
v 0.553037107 -1.02858472 7.16189528
v -0.570218563 -0.850584507 7.18469143
v -0.190072834 -0.850584507 7.20552874
v 0.190072834 -0.850584507 7.20552874
v 0.570218563 -0.850584507 7.18469143
v -0.587400019 -0.672584534 7.2028079
v -0.195799991 -0.672584534 7.22486115
v 0.195799991 -0.672584534 7.22486115
v 0.587400019 -0.672584534 7.2028079
v -0.517745793 -1.1511265 6.79028368
v -0.169557497 -1.15108848 6.80835342
v -0.17515181 -0.977305353 6.83647251
v -0.534638524 -0.977562845 6.81710625
v 0.169557497 -1.15108848 6.80835342
v 0.17515181 -0.977305353 6.83647251
v 0.517745793 -1.1511265 6.79028368
v 0.534638524 -0.977562845 6.81710625
v -0.180592909 -0.80817914 6.85924435
v -0.551248372 -0.808452845 6.83873463
v 0.180592909 -0.80817914 6.85924435
v 0.551248372 -0.808452845 6.83873463
v -0.186166182 -0.634874046 6.87790442
v -0.568147063 -0.634903908 6.85638237
v 0.186166182 -0.634874046 6.87790442
v 0.568147063 -0.634903908 6.85638237
v 0.568147063 -0.634903908 6.85638237
v 0.568147063 -0.634903908 6.85638237
v 0.186166182 -0.634874046 6.87790442
v -0.568147063 -0.634903908 6.85638237
v -0.568147063 -0.634903908 6.85638237
v -0.186166182 -0.634874046 6.87790442
v 0.551248372 -0.808452845 6.83873463
v -0.551248372 -0.808452845 6.83873463
v 0.534638524 -0.977562845 6.81710625
v 0.517745793 -1.1511265 6.79028368
v 0.517745793 -1.1511265 6.79028368
v 0.169557497 -1.15108848 6.80835342
v -0.534638524 -0.977562845 6.81710625
v -0.169557497 -1.15108848 6.80835342
v -0.517745793 -1.1511265 6.79028368
v -0.517745793 -1.1511265 6.79028368
v 0.587400019 -0.672584534 7.2028079
v 0.587400019 -0.672584534 7.2028079
v 0.195799991 -0.672584534 7.22486115
v -0.195799991 -0.672584534 7.22486115
v -0.587400019 -0.672584534 7.2028079
v -0.587400019 -0.672584534 7.2028079
v 0.570218563 -0.850584507 7.18469143
v -0.570218563 -0.850584507 7.18469143
v 0.553037107 -1.02858472 7.16189528
v -0.553037107 -1.02858472 7.16189528
v 0.535855651 -1.20658445 7.13437319
v 0.535855651 -1.20658445 7.13437319
v 0.178618535 -1.20658445 7.15291262
v -0.178618535 -1.20658445 7.15291262
v -0.535855651 -1.20658445 7.13437319
v -0.535855651 -1.20658445 7.13437319
vn -0.994093955 -0.0861468837 -0.0659995824
vn 0.00414580014 -0.98728931 -0.158879921
vn -0.00414580014 -0.98728931 -0.158879921
vn -0.00829152949 -0.987285316 -0.158742532
vn -0.0527132004 -0.146182388 0.987852335
vn -0.0263657626 -0.14623481 0.988898516
vn 0.0263657626 -0.14623481 0.988898516
vn 0.994008303 -0.0872494504 -0.0658425167
vn -0.0543517731 -0.120711148 0.991198659
vn -0.0271859281 -0.120758176 0.99230957
vn 0.0271859318 -0.120758191 0.99230957
vn 0.993876457 -0.0890317708 -0.0654456466
vn -0.00611291686 0.994149625 0.107838549
vn -0.0275939442 -0.108011872 0.993766665
vn 0.0275939442 -0.108011864 0.993766606
vn 0.993831098 -0.0897115916 -0.0652058646
vn 0.00829152949 -0.987285316 -0.158742532
vn 0.0260517299 0.159573033 -0.986842215
vn 0.0265201088 0.146538824 -0.988849342
vn -0.994008303 -0.0872494504 -0.0658425465
vn -0.0260517299 0.159573033 -0.986842215
vn -0.0265201088 0.146538824 -0.988849342
vn 0.994093955 -0.0861468837 -0.0659995526
vn -0.0530215017 0.146377623 -0.987806797
vn 0.0273477342 0.120408356 -0.992347658
vn -0.993876457 -0.0890317708 -0.0654456615
vn -0.0273477342 0.120408356 -0.992347658
vn -0.0546749309 0.120469585 -0.991210282
vn -0.0030564731 0.994152129 0.107946217
vn -0.993831098 -0.0897115916 -0.0652058646
vn 0.00305647333 0.994152129 0.107946225
vn 0.00611291733 0.994149625 0.107838556
vn -0.0553924143 0.107498109 -0.992661059
vn 0.993831098 -0.0897115916 -0.0652058646
vn -0.0277068447 0.107316777 -0.993838727
vn 0.0553924143 0.107498109 -0.992661059
vn -0.00611291686 0.994149625 0.107838549
vn 0.0277068447 0.107316777 -0.993838727
vn 0.993876457 -0.0890317708 -0.0654456466
vn 0.0546749309 0.120469585 -0.991210282
vn 0.994008303 -0.0872494504 -0.0658425167
vn -0.0520857833 0.159309611 -0.985853791
vn -0.00829152949 -0.987285316 -0.158742532
vn -0.00414580014 -0.98728931 -0.158879921
vn 0.0530215017 0.146377623 -0.987806797
vn 0.00414580014 -0.98728931 -0.158879921
vn 0.0520857833 0.159309611 -0.985853791
vn -0.994093955 -0.0861468837 -0.0659995824
vn 0.0551668778 -0.107967369 0.992622674
vn 0.00611291733 0.994149625 0.107838556
vn 0.00305647333 0.994152129 0.107946225
vn -0.0030564731 0.994152129 0.107946217
vn -0.0551668704 -0.107967354 0.992622614
vn -0.993831098 -0.0897115916 -0.0652058646
vn 0.0543517806 -0.120711163 0.991198719
vn -0.993876457 -0.0890317708 -0.0654456615
vn 0.0527132004 -0.146182388 0.987852275
vn -0.994008303 -0.0872494504 -0.0658425465
vn 0.0518899299 -0.158905447 0.985929251
vn 0.994093955 -0.0861468837 -0.0659995526
vn 0.0259537082 -0.15896073 0.986943722
vn -0.0259537119 -0.158960745 0.986943722
vn -0.0518899374 -0.158905461 0.98592931
vn 0.00829152949 -0.987285316 -0.158742532
g 
f 63//63 62//62 6//6 5//5
f 62//62 61//61 7//7 6//6
f 61//61 59//59 57//57 7//7
f 5//5 6//6 10//10 9//9
f 6//6 7//7 11//11 10//10
f 7//7 57//57 55//55 11//11
f 9//9 10//10 14//14 53//53
f 10//10 11//11 15//15 14//14
f 11//11 55//55 49//49 15//15
f 47//47 45//45 19//19 18//18
f 18//18 19//19 22//22 21//21
f 21//21 22//22 24//24 42//42
f 45//45 40//40 25//25 19//19
f 19//19 25//25 27//27 22//22
f 22//22 27//27 28//28 24//24
f 40//40 36//36 38//38 25//25
f 25//25 38//38 35//35 27//27
f 27//27 35//35 33//33 28//28
f 64//64 17//17 46//46 2//2
f 2//2 46//46 44//44 3//3
f 3//3 44//44 43//43 4//4
f 60//60 23//23 41//41 8//8
f 8//8 41//41 39//39 12//12
f 12//12 39//39 34//34 16//16
f 50//50 32//32 31//31 51//51
f 51//51 31//31 29//29 52//52
f 52//52 29//29 37//37 13//13
f 54//54 30//30 26//26 56//56
f 56//56 26//26 20//20 58//58
f 58//58 20//20 48//48 1//1
