# File exported by Houdini 17.0.459 (www.sidefx.com)
# 112 points
# 248 vertices
# 62 primitives
# Bounds: [-0.587400019, -1.91858459, 6.63916111] to [0.587400019, -0.634874046, 7.22486115]
g 
v -0.467129827 -1.91858459 6.97571373
v -0.155709937 -1.91858459 6.99013948
v 0.155709937 -1.91858459 6.99013948
v 0.467129827 -1.91858459 6.97571373
v -0.484311312 -1.74058461 7.02282476
v -0.161437079 -1.74058461 7.03822184
v 0.161437079 -1.74058461 7.03822184
v 0.484311312 -1.74058461 7.02282476
v -0.501492739 -1.5625844 7.06491184
v -0.167164236 -1.5625844 7.0813179
v 0.167164236 -1.5625844 7.0813179
v 0.501492739 -1.5625844 7.06491184
v -0.518674254 -1.38458443 7.10206795
v -0.172891393 -1.38458443 7.11952114
v 0.172891393 -1.38458443 7.11952114
v 0.518674254 -1.38458443 7.10206795
v -0.535855651 -1.20658445 7.13437319
v -0.178618535 -1.20658445 7.15291262
v 0.178618535 -1.20658445 7.15291262
v 0.535855651 -1.20658445 7.13437319
v -0.553037107 -1.02858472 7.16189528
v -0.184345692 -1.02858472 7.18156242
v 0.184345692 -1.02858472 7.18156242
v 0.553037107 -1.02858472 7.16189528
v -0.570218563 -0.850584507 7.18469143
v -0.190072834 -0.850584507 7.20552874
v 0.190072834 -0.850584507 7.20552874
v 0.570218563 -0.850584507 7.18469143
v -0.587400019 -0.672584534 7.2028079
v -0.195799991 -0.672584534 7.22486115
v 0.195799991 -0.672584534 7.22486115
v 0.587400019 -0.672584534 7.2028079
v -0.451306015 -1.82757318 6.63916111
v -0.147793964 -1.82752609 6.65322781
v -0.153387547 -1.65380585 6.70027876
v -0.468198985 -1.65400219 6.68508816
v 0.147793964 -1.82752609 6.65322781
v 0.153387547 -1.65380585 6.70027876
v 0.451306015 -1.82757318 6.63916111
v 0.468198985 -1.65400219 6.68508816
v -0.158828557 -1.48468018 6.7412262
v -0.484808713 -1.48489189 6.72504807
v 0.158828557 -1.48468018 6.7412262
v 0.484808713 -1.48489189 6.72504807
v -0.164269581 -1.31555533 6.77752447
v -0.501418531 -1.31578195 6.76032257
v 0.164269581 -1.31555533 6.77752447
v 0.501418531 -1.31578195 6.76032257
v -0.1697108 -1.14643025 6.80925131
v -0.518028498 -1.14667213 6.79098701
v 0.1697108 -1.14643025 6.80925131
v 0.518028498 -1.14667213 6.79098701
v -0.17515181 -0.977305353 6.83647251
v -0.534638524 -0.977562845 6.81710625
v 0.17515181 -0.977305353 6.83647251
v 0.534638524 -0.977562845 6.81710625
v -0.180592909 -0.80817914 6.85924435
v -0.551248372 -0.808452845 6.83873463
v 0.180592909 -0.80817914 6.85924435
v 0.551248372 -0.808452845 6.83873463
v -0.186166182 -0.634874046 6.87790442
v -0.568147063 -0.634903908 6.85638237
v 0.186166182 -0.634874046 6.87790442
v 0.568147063 -0.634903908 6.85638237
v 0.568147063 -0.634903908 6.85638237
v 0.568147063 -0.634903908 6.85638237
v 0.186166182 -0.634874046 6.87790442
v -0.568147063 -0.634903908 6.85638237
v -0.568147063 -0.634903908 6.85638237
v -0.186166182 -0.634874046 6.87790442
v 0.551248372 -0.808452845 6.83873463
v -0.551248372 -0.808452845 6.83873463
v 0.534638524 -0.977562845 6.81710625
v -0.534638524 -0.977562845 6.81710625
v 0.518028498 -1.14667213 6.79098701
v -0.518028498 -1.14667213 6.79098701
v 0.501418531 -1.31578195 6.76032257
v -0.501418531 -1.31578195 6.76032257
v 0.484808713 -1.48489189 6.72504807
v -0.484808713 -1.48489189 6.72504807
v 0.468198985 -1.65400219 6.68508816
v 0.451306015 -1.82757318 6.63916111
v 0.451306015 -1.82757318 6.63916111
v 0.147793964 -1.82752609 6.65322781
v -0.468198985 -1.65400219 6.68508816
v -0.147793964 -1.82752609 6.65322781
v -0.451306015 -1.82757318 6.63916111
v -0.451306015 -1.82757318 6.63916111
v 0.587400019 -0.672584534 7.2028079
v 0.587400019 -0.672584534 7.2028079
v 0.195799991 -0.672584534 7.22486115
v -0.195799991 -0.672584534 7.22486115
v -0.587400019 -0.672584534 7.2028079
v -0.587400019 -0.672584534 7.2028079
v 0.570218563 -0.850584507 7.18469143
v -0.570218563 -0.850584507 7.18469143
v 0.553037107 -1.02858472 7.16189528
v -0.553037107 -1.02858472 7.16189528
v 0.535855651 -1.20658445 7.13437319
v -0.535855651 -1.20658445 7.13437319
v 0.518674254 -1.38458443 7.10206795
v -0.518674254 -1.38458443 7.10206795
v 0.501492739 -1.5625844 7.06491184
v -0.501492739 -1.5625844 7.06491184
v 0.484311312 -1.74058461 7.02282476
v -0.484311312 -1.74058461 7.02282476
v 0.467129827 -1.91858459 6.97571373
v 0.467129827 -1.91858459 6.97571373
v 0.155709937 -1.91858459 6.99013948
v -0.155709937 -1.91858459 6.99013948
v -0.467129827 -1.91858459 6.97571373
v -0.467129827 -1.91858459 6.97571373
vn -0.994610727 -0.0784634054 -0.0677731186
vn 0.00607354287 -0.96538949 -0.260741651
vn -0.00607354287 -0.96538949 -0.260741651
vn -0.0121468632 -0.965380967 -0.260561407
vn -0.0461620204 -0.248065606 0.967642844
vn -0.0230871625 -0.248132825 0.968450963
vn 0.0230871718 -0.248132855 0.968450844
vn 0.994519651 -0.0796318725 -0.0677465126
vn -0.0478004515 -0.222595692 0.973738313
vn -0.0239070542 -0.222661003 0.974602818
vn 0.0239070579 -0.222661003 0.974602818
vn 0.994361818 -0.0817766711 -0.0675075948
vn -0.0494405217 -0.197125077 0.979130983
vn -0.0247278195 -0.197186828 0.98005408
vn 0.0247278251 -0.197186857 0.98005408
vn 0.99423182 -0.0837077722 -0.0670540407
vn -0.0510773547 -0.17165412 0.983832359
vn -0.025547009 -0.171711609 0.984815896
vn 0.0255470164 -0.171711639 0.984815955
vn 0.994105339 -0.0855958089 -0.0665440336
vn -0.0527132004 -0.146182388 0.987852335
vn -0.0263657626 -0.14623481 0.988898516
vn 0.0263657626 -0.14623481 0.988898516
vn 0.993982315 -0.0874404684 -0.0659802854
vn -0.0543517731 -0.120711148 0.991198659
vn -0.0271859281 -0.120758176 0.99230957
vn 0.0271859318 -0.120758191 0.99230957
vn 0.993876457 -0.0890317708 -0.0654456466
vn -0.00611291686 0.994149625 0.107838549
vn -0.0275939442 -0.108011872 0.993766665
vn 0.0275939442 -0.108011864 0.993766606
vn 0.993831098 -0.0897115916 -0.0652058646
vn 0.0121468632 -0.965380967 -0.260561407
vn 0.0227668677 0.261328489 -0.964981496
vn 0.0232320745 0.248373121 -0.968385816
vn -0.994519651 -0.079631947 -0.0677466094
vn -0.0227668677 0.261328489 -0.964981496
vn -0.0232320745 0.248373121 -0.968385816
vn 0.994610727 -0.0784632564 -0.0677729324
vn -0.0464515686 0.24822028 -0.967589319
vn 0.0241066106 0.222656339 -0.974598825
vn -0.994361818 -0.0817766711 -0.0675075799
vn -0.024106605 0.222656325 -0.974598944
vn -0.0481992029 0.222584486 -0.973721266
vn 0.024928892 0.197181851 -0.980049908
vn -0.99423182 -0.083707653 -0.0670540109
vn -0.0249288864 0.197181821 -0.980049908
vn -0.0498422831 0.197112858 -0.979112983
vn 0.0257507171 0.171705678 -0.984811604
vn -0.994105339 -0.0855956897 -0.0665440187
vn -0.0257507171 0.171705678 -0.984811664
vn -0.0514843613 0.171640217 -0.983813465
vn 0.026573915 0.146228537 -0.988893867
vn -0.993982315 -0.0874404684 -0.0659803003
vn -0.026573915 0.146228537 -0.988893867
vn -0.0531290732 0.14616771 -0.987832129
vn 0.0273477342 0.120408356 -0.992347658
vn -0.993876457 -0.0890317708 -0.0654456615
vn -0.0273477342 0.120408356 -0.992347658
vn -0.0546749309 0.120469585 -0.991210282
vn -0.0030564731 0.994152129 0.107946217
vn -0.993831098 -0.0897115916 -0.0652058646
vn 0.00305647333 0.994152129 0.107946225
vn 0.00611291733 0.994149625 0.107838556
vn -0.0553924143 0.107498109 -0.992661059
vn 0.993831098 -0.0897115916 -0.0652058646
vn -0.0277068447 0.107316777 -0.993838727
vn 0.0553924143 0.107498109 -0.992661059
vn -0.00611291686 0.994149625 0.107838549
vn 0.0277068447 0.107316777 -0.993838727
vn 0.993876457 -0.0890317708 -0.0654456466
vn 0.0546749309 0.120469585 -0.991210282
vn 0.993982315 -0.0874404684 -0.0659802854
vn 0.0531290732 0.146167696 -0.987832129
vn 0.994105339 -0.0855958089 -0.0665440336
vn 0.0514843613 0.171640202 -0.983813465
vn 0.99423182 -0.0837077722 -0.0670540407
vn 0.0498422943 0.197112918 -0.979112983
vn 0.994361818 -0.0817766711 -0.0675075948
vn 0.0481992178 0.222584546 -0.973721266
vn 0.994519651 -0.0796318725 -0.0677465126
vn -0.0455219336 0.261096776 -0.964238763
vn -0.0121468632 -0.965380967 -0.260561407
vn -0.00607354287 -0.96538949 -0.260741651
vn 0.0464515686 0.248220265 -0.967589319
vn 0.00607354287 -0.96538949 -0.260741651
vn 0.0455219336 0.261096746 -0.964238763
vn -0.994610727 -0.0784634054 -0.0677731186
vn 0.0551668778 -0.107967369 0.992622674
vn 0.00611291733 0.994149625 0.107838556
vn 0.00305647333 0.994152129 0.107946225
vn -0.0030564731 0.994152129 0.107946217
vn -0.0551668704 -0.107967354 0.992622614
vn -0.993831098 -0.0897115916 -0.0652058646
vn 0.0543517806 -0.120711163 0.991198719
vn -0.993876457 -0.0890317708 -0.0654456615
vn 0.0527132004 -0.146182388 0.987852275
vn -0.993982315 -0.0874404684 -0.0659803003
vn 0.0510773696 -0.17165418 0.983832359
vn -0.994105339 -0.0855956897 -0.0665440187
vn 0.0494405329 -0.197125122 0.979130864
vn -0.99423182 -0.083707653 -0.0670540109
vn 0.047800459 -0.222595721 0.973738313
vn -0.994361818 -0.0817766711 -0.0675075799
vn 0.0461620465 -0.248065755 0.967642784
vn -0.994519651 -0.079631947 -0.0677466094
vn 0.045339819 -0.26077795 0.964333534
vn 0.994610727 -0.0784632564 -0.0677729324
vn 0.0226757415 -0.260845453 0.965114236
vn -0.022675721 -0.260845333 0.965114295
vn -0.0453397781 -0.260777712 0.964333653
vn 0.0121468632 -0.965380967 -0.260561407
g 
f 111//111 110//110 6//6 5//5
f 110//110 109//109 7//7 6//6
f 109//109 107//107 105//105 7//7
f 5//5 6//6 10//10 9//9
f 6//6 7//7 11//11 10//10
f 7//7 105//105 103//103 11//11
f 9//9 10//10 14//14 13//13
f 10//10 11//11 15//15 14//14
f 11//11 103//103 101//101 15//15
f 13//13 14//14 18//18 17//17
f 14//14 15//15 19//19 18//18
f 15//15 101//101 99//99 19//19
f 17//17 18//18 22//22 21//21
f 18//18 19//19 23//23 22//22
f 19//19 99//99 97//97 23//23
f 21//21 22//22 26//26 25//25
f 22//22 23//23 27//27 26//26
f 23//23 97//97 95//95 27//27
f 25//25 26//26 30//30 93//93
f 26//26 27//27 31//31 30//30
f 27//27 95//95 89//89 31//31
f 87//87 85//85 35//35 34//34
f 34//34 35//35 38//38 37//37
f 37//37 38//38 40//40 82//82
f 85//85 80//80 41//41 35//35
f 35//35 41//41 43//43 38//38
f 38//38 43//43 44//44 40//40
f 80//80 78//78 45//45 41//41
f 41//41 45//45 47//47 43//43
f 43//43 47//47 48//48 44//44
f 78//78 76//76 49//49 45//45
f 45//45 49//49 51//51 47//47
f 47//47 51//51 52//52 48//48
f 76//76 74//74 53//53 49//49
f 49//49 53//53 55//55 51//51
f 51//51 55//55 56//56 52//52
f 74//74 72//72 57//57 53//53
f 53//53 57//57 59//59 55//55
f 55//55 59//59 60//60 56//56
f 72//72 68//68 70//70 57//57
f 57//57 70//70 67//67 59//59
f 59//59 67//67 65//65 60//60
f 112//112 33//33 86//86 2//2
f 2//2 86//86 84//84 3//3
f 3//3 84//84 83//83 4//4
f 108//108 39//39 81//81 8//8
f 8//8 81//81 79//79 12//12
f 12//12 79//79 77//77 16//16
f 16//16 77//77 75//75 20//20
f 20//20 75//75 73//73 24//24
f 24//24 73//73 71//71 28//28
f 28//28 71//71 66//66 32//32
f 90//90 64//64 63//63 91//91
f 91//91 63//63 61//61 92//92
f 92//92 61//61 69//69 29//29
f 94//94 62//62 58//58 96//96
f 96//96 58//58 54//54 98//98
f 98//98 54//54 50//50 100//100
f 100//100 50//50 46//46 102//102
f 102//102 46//46 42//42 104//104
f 104//104 42//42 36//36 106//106
f 106//106 36//36 88//88 1//1
