# File exported by Houdini 17.0.459 (www.sidefx.com)
# 40 points
# 56 vertices
# 14 primitives
# Bounds: [-0.260952443, -4.23258448, 5.54888391] to [0.260952443, -3.84801412, 5.96550369]
g 
v -0.243770972 -4.23258448 5.83008051
v -0.0812569857 -4.23258448 5.83481979
v 0.0812569857 -4.23258448 5.83481979
v 0.243770972 -4.23258448 5.83008051
v -0.260952443 -4.0545845 5.9601965
v -0.0869841427 -4.0545845 5.96550369
v 0.0869841427 -4.0545845 5.96550369
v 0.260952443 -4.0545845 5.9601965
v -0.235375181 -4.02604389 5.54888391
v -0.0770584792 -4.02601385 5.55351973
v -0.0827856362 -3.84801412 5.68420362
v -0.252556652 -3.84804416 5.6789999
v 0.0770584792 -4.02601385 5.55351973
v 0.0827856362 -3.84801412 5.68420362
v 0.235375181 -4.02604389 5.54888391
v 0.252556652 -3.84804392 5.6789999
v 0.252556652 -3.84804392 5.6789999
v 0.252556652 -3.84804392 5.6789999
v 0.235375181 -4.02604389 5.54888391
v 0.235375181 -4.02604389 5.54888391
v 0.0827856362 -3.84801412 5.68420362
v 0.0770584792 -4.02601385 5.55351973
v -0.252556652 -3.84804416 5.6789999
v -0.252556652 -3.84804416 5.6789999
v -0.0827856362 -3.84801412 5.68420362
v -0.0770584792 -4.02601385 5.55351973
v -0.235375181 -4.02604389 5.54888391
v -0.235375181 -4.02604389 5.54888391
v 0.260952443 -4.0545845 5.9601965
v 0.260952443 -4.0545845 5.9601965
v 0.0869841427 -4.0545845 5.96550369
v -0.0869841427 -4.0545845 5.96550369
v -0.260952443 -4.0545845 5.9601965
v -0.260952443 -4.0545845 5.9601965
v 0.243770972 -4.23258448 5.83008051
v 0.243770972 -4.23258448 5.83008051
v 0.0812569857 -4.23258448 5.83481979
v -0.0812569857 -4.23258448 5.83481979
v -0.243770972 -4.23258448 5.83008051
v -0.243770972 -4.23258448 5.83008051
vn -0.996686518 -0.0484426506 -0.0653399304
vn 0.00868214201 -0.806063592 -0.591765344
vn -0.00868214201 -0.806063592 -0.591765344
vn -0.0173636302 -0.806049109 -0.59159404
vn -0.0181608591 0.806046665 0.591573358
vn -0.0120283375 -0.591849923 0.805958509
vn 0.0120283263 -0.591849625 0.805958629
vn 0.996686518 -0.0484426245 -0.065339826
vn 0.0173636302 -0.806049109 -0.59159404
vn 0.0120287947 0.591850579 -0.805957913
vn -0.00908080395 0.80606544 0.591756761
vn -0.996686518 -0.0484426506 -0.0653399304
vn -0.0120293768 0.591850281 -0.805958271
vn 0.00908017159 0.80606544 0.591756761
vn 0.996686518 -0.0484426245 -0.065339826
vn 0.0181595944 0.806046665 0.591573358
vn -0.0240570102 0.591807306 -0.805720389
vn 0.996686518 -0.0484426245 -0.065339826
vn -0.0240570102 0.591807306 -0.805720389
vn -0.0173636302 -0.806049109 -0.59159404
vn -0.0120293768 0.591850281 -0.805958271
vn -0.00868214201 -0.806063592 -0.591765344
vn 0.0240558479 0.59180814 -0.805719852
vn -0.0181608591 0.806046665 0.591573358
vn 0.0120287947 0.591850579 -0.805957913
vn 0.00868214201 -0.806063592 -0.591765344
vn 0.0240558479 0.59180814 -0.805719852
vn -0.996686518 -0.0484426506 -0.0653399304
vn 0.0240549129 -0.591806293 0.805721283
vn 0.0181595944 0.806046665 0.591573358
vn 0.00908017159 0.80606544 0.591756761
vn -0.00908080395 0.80606544 0.591756761
vn -0.0240549315 -0.59180671 0.805720866
vn -0.996686518 -0.0484426506 -0.0653399304
vn 0.0240549129 -0.591806293 0.805721283
vn 0.996686518 -0.0484426245 -0.065339826
vn 0.0120283263 -0.591849625 0.805958629
vn -0.0120283375 -0.591849923 0.805958509
vn -0.0240549315 -0.59180671 0.805720866
vn 0.0173636302 -0.806049109 -0.59159404
g 
f 39//39 38//38 6//6 33//33
f 38//38 37//37 7//7 6//6
f 37//37 35//35 29//29 7//7
f 27//27 23//23 25//25 10//10
f 10//10 25//25 21//21 13//13
f 13//13 21//21 17//17 19//19
f 40//40 9//9 26//26 2//2
f 2//2 26//26 22//22 3//3
f 3//3 22//22 20//20 4//4
f 36//36 15//15 18//18 8//8
f 30//30 16//16 14//14 31//31
f 31//31 14//14 11//11 32//32
f 32//32 11//11 24//24 5//5
f 34//34 12//12 28//28 1//1
