# File exported by Houdini 17.0.459 (www.sidefx.com)
# 76 points
# 152 vertices
# 38 primitives
# Bounds: [-0.587400019, -1.38458443, 6.75950003] to [0.587400019, -0.634874046, 7.22486115]
g 
v -0.518674254 -1.38458443 7.10206795
v -0.172891393 -1.38458443 7.11952114
v 0.172891393 -1.38458443 7.11952114
v 0.518674254 -1.38458443 7.10206795
v -0.535855651 -1.20658445 7.13437319
v -0.178618535 -1.20658445 7.15291262
v 0.178618535 -1.20658445 7.15291262
v 0.535855651 -1.20658445 7.13437319
v -0.553037107 -1.02858472 7.16189528
v -0.184345692 -1.02858472 7.18156242
v 0.184345692 -1.02858472 7.18156242
v 0.553037107 -1.02858472 7.16189528
v -0.570218563 -0.850584507 7.18469143
v -0.190072834 -0.850584507 7.20552874
v 0.190072834 -0.850584507 7.20552874
v 0.570218563 -0.850584507 7.18469143
v -0.587400019 -0.672584534 7.2028079
v -0.195799991 -0.672584534 7.22486115
v 0.195799991 -0.672584534 7.22486115
v 0.587400019 -0.672584534 7.2028079
v -0.501135767 -1.32023787 6.75950003
v -0.164116591 -1.32019675 6.77651215
v -0.1697108 -1.14643025 6.80925131
v -0.518028498 -1.14667213 6.79098701
v 0.164116591 -1.32019675 6.77651215
v 0.1697108 -1.14643025 6.80925131
v 0.501135767 -1.32023787 6.75950003
v 0.518028498 -1.14667213 6.79098701
v -0.17515181 -0.977305353 6.83647251
v -0.534638524 -0.977562845 6.81710625
v 0.17515181 -0.977305353 6.83647251
v 0.534638524 -0.977562845 6.81710625
v -0.180592909 -0.80817914 6.85924435
v -0.551248372 -0.808452845 6.83873463
v 0.180592909 -0.80817914 6.85924435
v 0.551248372 -0.808452845 6.83873463
v -0.186166182 -0.634874046 6.87790442
v -0.568147063 -0.634903908 6.85638237
v 0.186166182 -0.634874046 6.87790442
v 0.568147063 -0.634903908 6.85638237
v 0.568147063 -0.634903908 6.85638237
v 0.568147063 -0.634903908 6.85638237
v 0.186166182 -0.634874046 6.87790442
v -0.568147063 -0.634903908 6.85638237
v -0.568147063 -0.634903908 6.85638237
v -0.186166182 -0.634874046 6.87790442
v 0.551248372 -0.808452845 6.83873463
v -0.551248372 -0.808452845 6.83873463
v 0.534638524 -0.977562845 6.81710625
v -0.534638524 -0.977562845 6.81710625
v 0.518028498 -1.14667213 6.79098701
v 0.501135767 -1.32023787 6.75950003
v 0.501135767 -1.32023787 6.75950003
v 0.164116591 -1.32019675 6.77651215
v -0.518028498 -1.14667213 6.79098701
v -0.164116591 -1.32019675 6.77651215
v -0.501135767 -1.32023787 6.75950003
v -0.501135767 -1.32023787 6.75950003
v 0.587400019 -0.672584534 7.2028079
v 0.587400019 -0.672584534 7.2028079
v 0.195799991 -0.672584534 7.22486115
v -0.195799991 -0.672584534 7.22486115
v -0.587400019 -0.672584534 7.2028079
v -0.587400019 -0.672584534 7.2028079
v 0.570218563 -0.850584507 7.18469143
v -0.570218563 -0.850584507 7.18469143
v 0.553037107 -1.02858472 7.16189528
v -0.553037107 -1.02858472 7.16189528
v 0.535855651 -1.20658445 7.13437319
v -0.535855651 -1.20658445 7.13437319
v 0.518674254 -1.38458443 7.10206795
v 0.518674254 -1.38458443 7.10206795
v 0.172891393 -1.38458443 7.11952114
v -0.172891393 -1.38458443 7.11952114
v -0.518674254 -1.38458443 7.10206795
v -0.518674254 -1.38458443 7.10206795
vn -0.994218051 -0.0842894316 -0.0665277392
vn 0.004678322 -0.982850492 -0.18434529
vn -0.004678322 -0.982850492 -0.18434529
vn -0.00935654156 -0.982845366 -0.184194595
vn -0.0510773547 -0.17165412 0.983832359
vn -0.025547009 -0.171711609 0.984815896
vn 0.0255470164 -0.171711639 0.984815955
vn 0.99413085 -0.0854094401 -0.0664015338
vn -0.0527132004 -0.146182388 0.987852335
vn -0.0263657626 -0.14623481 0.988898516
vn 0.0263657626 -0.14623481 0.988898516
vn 0.993982315 -0.0874404684 -0.0659802854
vn -0.0543517731 -0.120711148 0.991198659
vn -0.0271859281 -0.120758176 0.99230957
vn 0.0271859318 -0.120758191 0.99230957
vn 0.993876457 -0.0890317708 -0.0654456466
vn -0.00611291686 0.994149625 0.107838549
vn -0.0275939442 -0.108011872 0.993766665
vn 0.0275939442 -0.108011864 0.993766606
vn 0.993831098 -0.0897115916 -0.0652058646
vn 0.00935654156 -0.982845366 -0.184194595
vn 0.0252300408 0.185012311 -0.982412219
vn 0.0256970413 0.171998233 -0.984761953
vn -0.99413085 -0.0854092464 -0.0664014742
vn -0.0252300408 0.185012311 -0.982412219
vn -0.0256970413 0.171998233 -0.984761953
vn 0.994217932 -0.0842898265 -0.0665278584
vn -0.0513770543 0.171837926 -0.983784556
vn 0.026573915 0.146228537 -0.988893867
vn -0.993982315 -0.0874404684 -0.0659803003
vn -0.026573915 0.146228537 -0.988893867
vn -0.0531290732 0.14616771 -0.987832129
vn 0.0273477342 0.120408356 -0.992347658
vn -0.993876457 -0.0890317708 -0.0654456615
vn -0.0273477342 0.120408356 -0.992347658
vn -0.0546749309 0.120469585 -0.991210282
vn -0.0030564731 0.994152129 0.107946217
vn -0.993831098 -0.0897115916 -0.0652058646
vn 0.00305647333 0.994152129 0.107946225
vn 0.00611291733 0.994149625 0.107838556
vn -0.0553924143 0.107498109 -0.992661059
vn 0.993831098 -0.0897115916 -0.0652058646
vn -0.0277068447 0.107316777 -0.993838727
vn 0.0553924143 0.107498109 -0.992661059
vn -0.00611291686 0.994149625 0.107838549
vn 0.0277068447 0.107316777 -0.993838727
vn 0.993876457 -0.0890317708 -0.0654456466
vn 0.0546749309 0.120469585 -0.991210282
vn 0.993982315 -0.0874404684 -0.0659802854
vn 0.0531290732 0.146167696 -0.987832129
vn 0.99413085 -0.0854094401 -0.0664015338
vn -0.0504440255 0.184755504 -0.981489122
vn -0.00935654156 -0.982845366 -0.184194595
vn -0.004678322 -0.982850492 -0.18434529
vn 0.0513770543 0.171837926 -0.983784556
vn 0.004678322 -0.982850492 -0.18434529
vn 0.0504440255 0.184755504 -0.981489122
vn -0.994218051 -0.0842894316 -0.0665277392
vn 0.0551668778 -0.107967369 0.992622674
vn 0.00611291733 0.994149625 0.107838556
vn 0.00305647333 0.994152129 0.107946225
vn -0.0030564731 0.994152129 0.107946217
vn -0.0551668704 -0.107967354 0.992622614
vn -0.993831098 -0.0897115916 -0.0652058646
vn 0.0543517806 -0.120711163 0.991198719
vn -0.993876457 -0.0890317708 -0.0654456615
vn 0.0527132004 -0.146182388 0.987852275
vn -0.993982315 -0.0874404684 -0.0659803003
vn 0.0510773696 -0.17165418 0.983832359
vn -0.99413085 -0.0854092464 -0.0664014742
vn 0.0502562448 -0.184374109 0.981570482
vn 0.994217932 -0.0842898265 -0.0665278584
vn 0.0251360629 -0.184433579 0.982523561
vn -0.025136048 -0.184433505 0.982523561
vn -0.050256215 -0.184374005 0.981570542
vn 0.00935654156 -0.982845366 -0.184194595
g 
f 75//75 74//74 6//6 5//5
f 74//74 73//73 7//7 6//6
f 73//73 71//71 69//69 7//7
f 5//5 6//6 10//10 9//9
f 6//6 7//7 11//11 10//10
f 7//7 69//69 67//67 11//11
f 9//9 10//10 14//14 13//13
f 10//10 11//11 15//15 14//14
f 11//11 67//67 65//65 15//15
f 13//13 14//14 18//18 63//63
f 14//14 15//15 19//19 18//18
f 15//15 65//65 59//59 19//19
f 57//57 55//55 23//23 22//22
f 22//22 23//23 26//26 25//25
f 25//25 26//26 28//28 52//52
f 55//55 50//50 29//29 23//23
f 23//23 29//29 31//31 26//26
f 26//26 31//31 32//32 28//28
f 50//50 48//48 33//33 29//29
f 29//29 33//33 35//35 31//31
f 31//31 35//35 36//36 32//32
f 48//48 44//44 46//46 33//33
f 33//33 46//46 43//43 35//35
f 35//35 43//43 41//41 36//36
f 76//76 21//21 56//56 2//2
f 2//2 56//56 54//54 3//3
f 3//3 54//54 53//53 4//4
f 72//72 27//27 51//51 8//8
f 8//8 51//51 49//49 12//12
f 12//12 49//49 47//47 16//16
f 16//16 47//47 42//42 20//20
f 60//60 40//40 39//39 61//61
f 61//61 39//39 37//37 62//62
f 62//62 37//37 45//45 17//17
f 64//64 38//38 34//34 66//66
f 66//66 34//34 30//30 68//68
f 68//68 30//30 24//24 70//70
f 70//70 24//24 58//58 1//1
