# File exported by Houdini 17.0.459 (www.sidefx.com)
# 208 points
# 504 vertices
# 126 primitives
# Bounds: [-0.587400019, -3.34258461, 6.0926733] to [0.587400019, -0.634874046, 7.22486115]
g 
v -0.329678237 -3.34258461 6.4015336
v -0.109892741 -3.34258461 6.40939379
v 0.109892741 -3.34258461 6.40939379
v 0.329678237 -3.34258461 6.4015336
v -0.346859694 -3.1645844 6.49418736
v -0.11561989 -3.1645844 6.5027585
v 0.11561989 -3.1645844 6.5027585
v 0.346859694 -3.1645844 6.49418736
v -0.364041179 -2.98658442 6.58042574
v -0.121347047 -2.98658442 6.58973789
v 0.121347047 -2.98658442 6.58973789
v 0.364041179 -2.98658442 6.58042574
v -0.381222546 -2.80858469 6.66050911
v -0.127074197 -2.80858469 6.67059278
v 0.127074197 -2.80858469 6.67059278
v 0.381222546 -2.80858469 6.66050911
v -0.398404032 -2.63058472 6.73466539
v -0.132801339 -2.63058472 6.74555159
v 0.132801339 -2.63058472 6.74555159
v 0.398404032 -2.63058472 6.73466539
v -0.415585488 -2.45258451 6.80309629
v -0.138528496 -2.45258451 6.81481743
v 0.138528496 -2.45258451 6.81481743
v 0.415585488 -2.45258451 6.80309629
v -0.432766974 -2.27458429 6.86598015
v -0.144255638 -2.27458429 6.87856865
v 0.144255638 -2.27458429 6.87856865
v 0.432766974 -2.27458429 6.86598015
v -0.44994843 -2.09658432 6.92347288
v -0.149982795 -2.09658432 6.9369626
v 0.149982795 -2.09658432 6.9369626
v 0.44994843 -2.09658432 6.92347288
v -0.467129827 -1.91858459 6.97571373
v -0.155709937 -1.91858459 6.99013948
v 0.155709937 -1.91858459 6.99013948
v 0.467129827 -1.91858459 6.97571373
v -0.484311312 -1.74058461 7.02282476
v -0.161437079 -1.74058461 7.03822184
v 0.161437079 -1.74058461 7.03822184
v 0.484311312 -1.74058461 7.02282476
v -0.501492739 -1.5625844 7.06491184
v -0.167164236 -1.5625844 7.0813179
v 0.167164236 -1.5625844 7.0813179
v 0.501492739 -1.5625844 7.06491184
v -0.518674254 -1.38458443 7.10206795
v -0.172891393 -1.38458443 7.11952114
v 0.172891393 -1.38458443 7.11952114
v 0.518674254 -1.38458443 7.10206795
v -0.535855651 -1.20658445 7.13437319
v -0.178618535 -1.20658445 7.15291262
v 0.178618535 -1.20658445 7.15291262
v 0.535855651 -1.20658445 7.13437319
v -0.553037107 -1.02858472 7.16189528
v -0.184345692 -1.02858472 7.18156242
v 0.184345692 -1.02858472 7.18156242
v 0.553037107 -1.02858472 7.16189528
v -0.570218563 -0.850584507 7.18469143
v -0.190072834 -0.850584507 7.20552874
v 0.190072834 -0.850584507 7.20552874
v 0.570218563 -0.850584507 7.18469143
v -0.587400019 -0.672584534 7.2028079
v -0.195799991 -0.672584534 7.22486115
v 0.195799991 -0.672584534 7.22486115
v 0.587400019 -0.672584534 7.2028079
v -0.318426132 -3.18047404 6.0926733
v -0.104265228 -3.18043184 6.10035086
v -0.109856762 -3.00679898 6.1915164
v -0.335319489 -3.00688529 6.1830225
v 0.104265228 -3.18043184 6.10035086
v 0.109856762 -3.00679898 6.19151688
v 0.318426132 -3.18047404 6.0926733
v 0.335319489 -3.00688529 6.1830225
v -0.115298145 -2.83767557 6.274158
v -0.351929426 -2.83777475 6.26493549
v 0.115298145 -2.83767557 6.274158
v 0.351929426 -2.83777475 6.26493549
v -0.120739527 -2.6685524 6.35098076
v -0.368539304 -2.66866446 6.34100008
v 0.120739527 -2.6685524 6.35098076
v 0.368539304 -2.66866446 6.34100008
v -0.126181036 -2.49942875 6.42220163
v -0.3851493 -2.49955416 6.41143274
v 0.126181036 -2.49942875 6.42220163
v 0.3851493 -2.49955416 6.41143274
v -0.131622255 -2.33030391 6.48801374
v -0.401759207 -2.33044314 6.47642517
v 0.131622255 -2.33030391 6.48801374
v 0.401759207 -2.33044314 6.47642517
v -0.137063652 -2.16117978 6.54858589
v -0.418369174 -2.16133285 6.53614712
v 0.137063652 -2.16117978 6.54858589
v 0.418369174 -2.16133285 6.53614712
v -0.142504945 -1.99205542 6.6040678
v -0.434979081 -1.99222279 6.59074593
v 0.142504945 -1.99205542 6.6040678
v 0.434979081 -1.99222279 6.59074593
v -0.147946134 -1.82293093 6.65459347
v -0.451588959 -1.82311249 6.64035416
v 0.147946134 -1.82293093 6.65459347
v 0.451588959 -1.82311249 6.64035416
v -0.153387547 -1.65380585 6.70027876
v -0.468198985 -1.65400219 6.68508816
v 0.153387547 -1.65380585 6.70027876
v 0.468198985 -1.65400219 6.68508816
v -0.158828557 -1.48468018 6.7412262
v -0.484808713 -1.48489189 6.72504807
v 0.158828557 -1.48468018 6.7412262
v 0.484808713 -1.48489189 6.72504807
v -0.164269581 -1.31555533 6.77752447
v -0.501418531 -1.31578195 6.76032257
v 0.164269581 -1.31555533 6.77752447
v 0.501418531 -1.31578195 6.76032257
v -0.1697108 -1.14643025 6.80925131
v -0.518028498 -1.14667213 6.79098701
v 0.1697108 -1.14643025 6.80925131
v 0.518028498 -1.14667213 6.79098701
v -0.17515181 -0.977305353 6.83647251
v -0.534638524 -0.977562845 6.81710625
v 0.17515181 -0.977305353 6.83647251
v 0.534638524 -0.977562845 6.81710625
v -0.180592909 -0.80817914 6.85924435
v -0.551248372 -0.808452845 6.83873463
v 0.180592909 -0.80817914 6.85924435
v 0.551248372 -0.808452845 6.83873463
v -0.186166182 -0.634874046 6.87790442
v -0.568147063 -0.634903908 6.85638237
v 0.186166182 -0.634874046 6.87790442
v 0.568147063 -0.634903908 6.85638237
v 0.568147063 -0.634903908 6.85638237
v 0.568147063 -0.634903908 6.85638237
v 0.186166182 -0.634874046 6.87790442
v -0.568147063 -0.634903908 6.85638237
v -0.568147063 -0.634903908 6.85638237
v -0.186166182 -0.634874046 6.87790442
v 0.551248372 -0.808452845 6.83873463
v -0.551248372 -0.808452845 6.83873463
v 0.534638524 -0.977562845 6.81710625
v -0.534638524 -0.977562845 6.81710625
v 0.518028498 -1.14667213 6.79098701
v -0.518028498 -1.14667213 6.79098701
v 0.501418531 -1.31578195 6.76032257
v -0.501418531 -1.31578195 6.76032257
v 0.484808713 -1.48489189 6.72504807
v -0.484808713 -1.48489189 6.72504807
v 0.468198985 -1.65400219 6.68508816
v -0.468198985 -1.65400219 6.68508816
v 0.451588959 -1.82311249 6.64035416
v -0.451588959 -1.82311249 6.64035416
v 0.434979081 -1.99222279 6.59074593
v -0.434979081 -1.99222279 6.59074593
v 0.418369174 -2.16133285 6.53614712
v -0.418369174 -2.16133285 6.53614712
v 0.401759207 -2.33044314 6.47642517
v -0.401759207 -2.33044314 6.47642517
v 0.3851493 -2.49955416 6.41143274
v -0.3851493 -2.49955416 6.41143274
v 0.368539304 -2.66866446 6.34100008
v -0.368539304 -2.66866446 6.34100008
v 0.351929426 -2.83777475 6.26493549
v -0.351929426 -2.83777475 6.26493549
v 0.335319489 -3.00688529 6.1830225
v 0.318426132 -3.18047404 6.0926733
v 0.318426132 -3.18047404 6.0926733
v 0.104265228 -3.18043184 6.10035086
v -0.335319489 -3.00688529 6.1830225
v -0.104265228 -3.18043184 6.10035086
v -0.318426132 -3.18047404 6.0926733
v -0.318426132 -3.18047404 6.0926733
v 0.587400019 -0.672584534 7.2028079
v 0.587400019 -0.672584534 7.2028079
v 0.195799991 -0.672584534 7.22486115
v -0.195799991 -0.672584534 7.22486115
v -0.587400019 -0.672584534 7.2028079
v -0.587400019 -0.672584534 7.2028079
v 0.570218563 -0.850584507 7.18469143
v -0.570218563 -0.850584507 7.18469143
v 0.553037107 -1.02858472 7.16189528
v -0.553037107 -1.02858472 7.16189528
v 0.535855651 -1.20658445 7.13437319
v -0.535855651 -1.20658445 7.13437319
v 0.518674254 -1.38458443 7.10206795
v -0.518674254 -1.38458443 7.10206795
v 0.501492739 -1.5625844 7.06491184
v -0.501492739 -1.5625844 7.06491184
v 0.484311312 -1.74058461 7.02282476
v -0.484311312 -1.74058461 7.02282476
v 0.467129827 -1.91858459 6.97571373
v -0.467129827 -1.91858459 6.97571373
v 0.44994843 -2.09658432 6.92347288
v -0.44994843 -2.09658432 6.92347288
v 0.432766974 -2.27458429 6.86598015
v -0.432766974 -2.27458429 6.86598015
v 0.415585488 -2.45258451 6.80309629
v -0.415585488 -2.45258451 6.80309629
v 0.398404032 -2.63058472 6.73466539
v -0.398404032 -2.63058472 6.73466539
v 0.381222546 -2.80858469 6.66050911
v -0.381222546 -2.80858469 6.66050911
v 0.364041179 -2.98658442 6.58042574
v -0.364041179 -2.98658442 6.58042574
v 0.346859694 -3.1645844 6.49418736
v -0.346859694 -3.1645844 6.49418736
v 0.329678237 -3.34258461 6.4015336
v 0.329678237 -3.34258461 6.4015336
v 0.109892741 -3.34258461 6.40939379
v -0.109892741 -3.34258461 6.40939379
v -0.329678237 -3.34258461 6.4015336
v -0.329678237 -3.34258461 6.4015336
vn -0.995807946 -0.0610630587 -0.0681025907
vn 0.00835491437 -0.885556698 -0.464456141
vn -0.00835491344 -0.885556757 -0.464456111
vn -0.0167092439 -0.885542035 -0.464258641
vn -0.0330633037 -0.451813608 0.89149946
vn -0.0165339094 -0.451875627 0.89192766
vn 0.016533915 -0.451875687 0.8919276
vn 0.995707393 -0.0623514578 -0.0684036911
vn -0.0347019508 -0.426346481 0.903894067
vn -0.0173535887 -0.426410973 0.904363155
vn 0.0173535887 -0.426410913 0.904363096
vn 0.995526195 -0.0647872984 -0.0687771514
vn -0.0363400206 -0.400878608 0.915410161
vn -0.018173011 -0.400945157 0.915921867
vn 0.0181730185 -0.400945276 0.915921807
vn 0.99536854 -0.0670613647 -0.0688799098
vn -0.0379776955 -0.375409931 0.926080525
vn -0.0189922713 -0.375478297 0.926636577
vn 0.0189922825 -0.375478446 0.926636517
vn 0.995214224 -0.0692924261 -0.0689001232
vn -0.0396136194 -0.349942565 0.935933292
vn -0.0198106933 -0.350012004 0.936535656
vn 0.0198106952 -0.350012004 0.936535656
vn 0.995063543 -0.0714802146 -0.0688420907
vn -0.0412497148 -0.324473262 0.944995046
vn -0.0206292421 -0.32454294 0.945645928
vn 0.0206292458 -0.324542969 0.945645928
vn 0.994916201 -0.0736254454 -0.0687099174
vn -0.0428873375 -0.29900378 0.95328778
vn -0.0214485992 -0.299073309 0.953989089
vn 0.0214486029 -0.299073368 0.953989089
vn 0.994772434 -0.0757276639 -0.0685069636
vn -0.0445251912 -0.273535132 0.960830927
vn -0.0222681146 -0.273603648 0.961584747
vn 0.0222681202 -0.273603648 0.961584628
vn 0.994632125 -0.077787064 -0.06823688
vn -0.0461620204 -0.248065606 0.967642844
vn -0.0230871625 -0.248132825 0.968450963
vn 0.0230871718 -0.248132855 0.968450844
vn 0.994495153 -0.0798032507 -0.0679027513
vn -0.0478004515 -0.222595692 0.973738313
vn -0.0239070542 -0.222661003 0.974602818
vn 0.0239070579 -0.222661003 0.974602818
vn 0.994361818 -0.0817766711 -0.0675075948
vn -0.0494405217 -0.197125077 0.979130983
vn -0.0247278195 -0.197186828 0.98005408
vn 0.0247278251 -0.197186857 0.98005408
vn 0.99423182 -0.0837077722 -0.0670540407
vn -0.0510773547 -0.17165412 0.983832359
vn -0.025547009 -0.171711609 0.984815896
vn 0.0255470164 -0.171711639 0.984815955
vn 0.994105339 -0.0855958089 -0.0665440336
vn -0.0527132004 -0.146182388 0.987852335
vn -0.0263657626 -0.14623481 0.988898516
vn 0.0263657626 -0.14623481 0.988898516
vn 0.993982315 -0.0874404684 -0.0659802854
vn -0.0543517731 -0.120711148 0.991198659
vn -0.0271859281 -0.120758176 0.99230957
vn 0.0271859318 -0.120758191 0.99230957
vn 0.993876457 -0.0890317708 -0.0654456466
vn -0.00611291686 0.994149625 0.107838549
vn -0.0275939442 -0.108011872 0.993766665
vn 0.0275939442 -0.108011864 0.993766606
vn 0.993831098 -0.0897115916 -0.0652058646
vn 0.0167092476 -0.885542095 -0.46425873
vn 0.0162102859 0.464837164 -0.885247767
vn 0.0166702457 0.452014148 -0.891854942
vn -0.995707393 -0.0623515137 -0.0684037209
vn -0.0162087996 0.464837402 -0.885247767
vn -0.0166687816 0.452013999 -0.891855001
vn 0.995807946 -0.0610629506 -0.0681025907
vn -0.0333357416 0.451904386 -0.891443372
vn 0.0175374988 0.426409751 -0.904360056
vn -0.995526195 -0.064787358 -0.0687772408
vn -0.0175367799 0.426409513 -0.904360175
vn -0.0350695811 0.42634216 -0.903881907
vn 0.0183556434 0.40094462 -0.915918469
vn -0.995368481 -0.067061469 -0.0688799694
vn -0.0183556434 0.40094462 -0.915918469
vn -0.0367051065 0.400874496 -0.915397346
vn 0.0191755462 0.375477135 -0.926633239
vn -0.995214224 -0.0692924261 -0.0689000562
vn -0.0191755462 0.375477135 -0.926633239
vn -0.038344048 0.375405073 -0.926067352
vn 0.0199970417 0.350010335 -0.936532378
vn -0.995063484 -0.0714801475 -0.0688420236
vn -0.0199970417 0.350010335 -0.936532378
vn -0.0399860889 0.349936992 -0.935919523
vn 0.0208176374 0.324540257 -0.945642769
vn -0.994916201 -0.0736254454 -0.0687098876
vn -0.0208176374 0.324540257 -0.945642769
vn -0.041626256 0.324466318 -0.94498086
vn 0.0216389261 0.299069941 -0.95398587
vn -0.994772434 -0.0757276639 -0.0685069412
vn -0.0216389261 0.299069941 -0.95398587
vn -0.0432677232 0.29899478 -0.953273356
vn 0.0224615149 0.273600996 -0.961580932
vn -0.994632125 -0.077787064 -0.0682369098
vn -0.0224615149 0.273600996 -0.961580992
vn -0.0449117012 0.273526132 -0.960815489
vn 0.0232839342 0.248129457 -0.96844703
vn -0.994495153 -0.0798032507 -0.0679027811
vn -0.0232839342 0.248129457 -0.968447089
vn -0.0465552509 0.24805586 -0.967626512
vn 0.0241066106 0.222656339 -0.974598825
vn -0.994361818 -0.0817766711 -0.0675075799
vn -0.024106605 0.222656325 -0.974598944
vn -0.0481992029 0.222584486 -0.973721266
vn 0.024928892 0.197181851 -0.980049908
vn -0.99423182 -0.083707653 -0.0670540109
vn -0.0249288864 0.197181821 -0.980049908
vn -0.0498422831 0.197112858 -0.979112983
vn 0.0257507171 0.171705678 -0.984811604
vn -0.994105339 -0.0855956897 -0.0665440187
vn -0.0257507171 0.171705678 -0.984811664
vn -0.0514843613 0.171640217 -0.983813465
vn 0.026573915 0.146228537 -0.988893867
vn -0.993982315 -0.0874404684 -0.0659803003
vn -0.026573915 0.146228537 -0.988893867
vn -0.0531290732 0.14616771 -0.987832129
vn 0.0273477342 0.120408356 -0.992347658
vn -0.993876457 -0.0890317708 -0.0654456615
vn -0.0273477342 0.120408356 -0.992347658
vn -0.0546749309 0.120469585 -0.991210282
vn -0.0030564731 0.994152129 0.107946217
vn -0.993831098 -0.0897115916 -0.0652058646
vn 0.00305647333 0.994152129 0.107946225
vn 0.00611291733 0.994149625 0.107838556
vn -0.0553924143 0.107498109 -0.992661059
vn 0.993831098 -0.0897115916 -0.0652058646
vn -0.0277068447 0.107316777 -0.993838727
vn 0.0553924143 0.107498109 -0.992661059
vn -0.00611291686 0.994149625 0.107838549
vn 0.0277068447 0.107316777 -0.993838727
vn 0.993876457 -0.0890317708 -0.0654456466
vn 0.0546749309 0.120469585 -0.991210282
vn 0.993982315 -0.0874404684 -0.0659802854
vn 0.0531290732 0.146167696 -0.987832129
vn 0.994105339 -0.0855958089 -0.0665440336
vn 0.0514843613 0.171640202 -0.983813465
vn 0.99423182 -0.0837077722 -0.0670540407
vn 0.0498422943 0.197112918 -0.979112983
vn 0.994361818 -0.0817766711 -0.0675075948
vn 0.0481992178 0.222584546 -0.973721266
vn 0.994495153 -0.0798032507 -0.0679027513
vn 0.0465552509 0.24805586 -0.967626512
vn 0.994632125 -0.077787064 -0.06823688
vn 0.0449117012 0.273526132 -0.960815489
vn 0.994772434 -0.0757276639 -0.0685069636
vn 0.0432677232 0.29899478 -0.953273356
vn 0.994916201 -0.0736254454 -0.0687099174
vn 0.041626256 0.324466318 -0.94498086
vn 0.995063543 -0.0714802146 -0.0688420907
vn 0.0399860889 0.349936992 -0.935919464
vn 0.995214224 -0.0692924261 -0.0689001232
vn 0.038344048 0.375405073 -0.926067352
vn 0.99536854 -0.0670613647 -0.0688799098
vn 0.0367051065 0.400874496 -0.915397346
vn 0.995526195 -0.0647872984 -0.0687771514
vn 0.0350682028 0.426342666 -0.903881788
vn 0.995707393 -0.0623514578 -0.0684036911
vn -0.0324161761 0.464684218 -0.884882927
vn -0.0167092439 -0.885542035 -0.464258641
vn -0.00835491344 -0.885556757 -0.464456111
vn 0.0333330147 0.451904684 -0.891443312
vn 0.00835491437 -0.885556698 -0.464456141
vn 0.0324134789 0.464683861 -0.884883285
vn -0.995807946 -0.0610630587 -0.0681025907
vn 0.0551668778 -0.107967369 0.992622674
vn 0.00611291733 0.994149625 0.107838556
vn 0.00305647333 0.994152129 0.107946225
vn -0.0030564731 0.994152129 0.107946217
vn -0.0551668704 -0.107967354 0.992622614
vn -0.993831098 -0.0897115916 -0.0652058646
vn 0.0543517806 -0.120711163 0.991198719
vn -0.993876457 -0.0890317708 -0.0654456615
vn 0.0527132004 -0.146182388 0.987852275
vn -0.993982315 -0.0874404684 -0.0659803003
vn 0.0510773696 -0.17165418 0.983832359
vn -0.994105339 -0.0855956897 -0.0665440187
vn 0.0494405329 -0.197125122 0.979130864
vn -0.99423182 -0.083707653 -0.0670540109
vn 0.047800459 -0.222595721 0.973738313
vn -0.994361818 -0.0817766711 -0.0675075799
vn 0.0461620465 -0.248065755 0.967642784
vn -0.994495153 -0.0798032507 -0.0679027811
vn 0.0445252061 -0.273535252 0.960830927
vn -0.994632125 -0.077787064 -0.0682369098
vn 0.0428873375 -0.29900381 0.953287661
vn -0.994772434 -0.0757276639 -0.0685069412
vn 0.0412497222 -0.324473321 0.944995046
vn -0.994916201 -0.0736254454 -0.0687098876
vn 0.0396136232 -0.349942625 0.935933232
vn -0.995063484 -0.0714801475 -0.0688420236
vn 0.0379777178 -0.375410169 0.926080406
vn -0.995214224 -0.0692924261 -0.0689000562
vn 0.0363400355 -0.400878787 0.915410101
vn -0.995368481 -0.067061469 -0.0688799694
vn 0.0347019546 -0.426346511 0.903894067
vn -0.995526195 -0.064787358 -0.0687772408
vn 0.0330633186 -0.451813847 0.8914994
vn -0.995707393 -0.0623515137 -0.0684037209
vn 0.032239873 -0.464500248 0.884986043
vn 0.995807946 -0.0610629506 -0.0681025907
vn 0.0161220301 -0.464560717 0.885394454
vn -0.0161220152 -0.464560539 0.885394692
vn -0.0322398394 -0.464499801 0.884986281
vn 0.0167092476 -0.885542095 -0.46425873
g 
f 207//207 206//206 6//6 5//5
f 206//206 205//205 7//7 6//6
f 205//205 203//203 201//201 7//7
f 5//5 6//6 10//10 9//9
f 6//6 7//7 11//11 10//10
f 7//7 201//201 199//199 11//11
f 9//9 10//10 14//14 13//13
f 10//10 11//11 15//15 14//14
f 11//11 199//199 197//197 15//15
f 13//13 14//14 18//18 17//17
f 14//14 15//15 19//19 18//18
f 15//15 197//197 195//195 19//19
f 17//17 18//18 22//22 21//21
f 18//18 19//19 23//23 22//22
f 19//19 195//195 193//193 23//23
f 21//21 22//22 26//26 25//25
f 22//22 23//23 27//27 26//26
f 23//23 193//193 191//191 27//27
f 25//25 26//26 30//30 29//29
f 26//26 27//27 31//31 30//30
f 27//27 191//191 189//189 31//31
f 29//29 30//30 34//34 33//33
f 30//30 31//31 35//35 34//34
f 31//31 189//189 187//187 35//35
f 33//33 34//34 38//38 37//37
f 34//34 35//35 39//39 38//38
f 35//35 187//187 185//185 39//39
f 37//37 38//38 42//42 41//41
f 38//38 39//39 43//43 42//42
f 39//39 185//185 183//183 43//43
f 41//41 42//42 46//46 45//45
f 42//42 43//43 47//47 46//46
f 43//43 183//183 181//181 47//47
f 45//45 46//46 50//50 49//49
f 46//46 47//47 51//51 50//50
f 47//47 181//181 179//179 51//51
f 49//49 50//50 54//54 53//53
f 50//50 51//51 55//55 54//54
f 51//51 179//179 177//177 55//55
f 53//53 54//54 58//58 57//57
f 54//54 55//55 59//59 58//58
f 55//55 177//177 175//175 59//59
f 57//57 58//58 62//62 173//173
f 58//58 59//59 63//63 62//62
f 59//59 175//175 169//169 63//63
f 167//167 165//165 67//67 66//66
f 66//66 67//67 70//70 69//69
f 69//69 70//70 72//72 162//162
f 165//165 160//160 73//73 67//67
f 67//67 73//73 75//75 70//70
f 70//70 75//75 76//76 72//72
f 160//160 158//158 77//77 73//73
f 73//73 77//77 79//79 75//75
f 75//75 79//79 80//80 76//76
f 158//158 156//156 81//81 77//77
f 77//77 81//81 83//83 79//79
f 79//79 83//83 84//84 80//80
f 156//156 154//154 85//85 81//81
f 81//81 85//85 87//87 83//83
f 83//83 87//87 88//88 84//84
f 154//154 152//152 89//89 85//85
f 85//85 89//89 91//91 87//87
f 87//87 91//91 92//92 88//88
f 152//152 150//150 93//93 89//89
f 89//89 93//93 95//95 91//91
f 91//91 95//95 96//96 92//92
f 150//150 148//148 97//97 93//93
f 93//93 97//97 99//99 95//95
f 95//95 99//99 100//100 96//96
f 148//148 146//146 101//101 97//97
f 97//97 101//101 103//103 99//99
f 99//99 103//103 104//104 100//100
f 146//146 144//144 105//105 101//101
f 101//101 105//105 107//107 103//103
f 103//103 107//107 108//108 104//104
f 144//144 142//142 109//109 105//105
f 105//105 109//109 111//111 107//107
f 107//107 111//111 112//112 108//108
f 142//142 140//140 113//113 109//109
f 109//109 113//113 115//115 111//111
f 111//111 115//115 116//116 112//112
f 140//140 138//138 117//117 113//113
f 113//113 117//117 119//119 115//115
f 115//115 119//119 120//120 116//116
f 138//138 136//136 121//121 117//117
f 117//117 121//121 123//123 119//119
f 119//119 123//123 124//124 120//120
f 136//136 132//132 134//134 121//121
f 121//121 134//134 131//131 123//123
f 123//123 131//131 129//129 124//124
f 208//208 65//65 166//166 2//2
f 2//2 166//166 164//164 3//3
f 3//3 164//164 163//163 4//4
f 204//204 71//71 161//161 8//8
f 8//8 161//161 159//159 12//12
f 12//12 159//159 157//157 16//16
f 16//16 157//157 155//155 20//20
f 20//20 155//155 153//153 24//24
f 24//24 153//153 151//151 28//28
f 28//28 151//151 149//149 32//32
f 32//32 149//149 147//147 36//36
f 36//36 147//147 145//145 40//40
f 40//40 145//145 143//143 44//44
f 44//44 143//143 141//141 48//48
f 48//48 141//141 139//139 52//52
f 52//52 139//139 137//137 56//56
f 56//56 137//137 135//135 60//60
f 60//60 135//135 130//130 64//64
f 170//170 128//128 127//127 171//171
f 171//171 127//127 125//125 172//172
f 172//172 125//125 133//133 61//61
f 174//174 126//126 122//122 176//176
f 176//176 122//122 118//118 178//178
f 178//178 118//118 114//114 180//180
f 180//180 114//114 110//110 182//182
f 182//182 110//110 106//106 184//184
f 184//184 106//106 102//102 186//186
f 186//186 102//102 98//98 188//188
f 188//188 98//98 94//94 190//190
f 190//190 94//94 90//90 192//192
f 192//192 90//90 86//86 194//194
f 194//194 86//86 82//82 196//196
f 196//196 82//82 78//78 198//198
f 198//198 78//78 74//74 200//200
f 200//200 74//74 68//68 202//202
f 202//202 68//68 168//168 1//1
