# File exported by Houdini 17.0.459 (www.sidefx.com)
# 98 points
# 384 vertices
# 96 primitives
# Bounds: [-0.063828133, -0.362916708, -0.065608725] to [0.0583366528, -0.240158513, 0.0566128902]
g 
v -0.0370620489 -0.254076302 -0.0019582822
v -0.0376312509 -0.30652529 0.0440524071
v 0.0351594761 -0.252527505 -0.00288867904
v 0.0341439769 -0.313141525 0.0431220084
v -0.037810795 -0.295119107 -0.0522222072
v -0.0401192009 -0.345846981 -0.00763674825
v 0.0320543125 -0.2962448 -0.054134693
v 0.0292996094 -0.355137736 -0.00954923313
v -0.063828133 -0.2989887 -0.0039259363
v -0.00131230848 -0.254311204 -0.044221513
v -0.000333709933 -0.266516834 0.039238859
v 0.0583366528 -0.305666119 -0.00637792191
v -0.00417917222 -0.350343585 0.033917658
v -0.00515776966 -0.338137984 -0.0495427176
v -0.0466263108 -0.26847142 -0.0328615159
v -0.0481558889 -0.324876428 -0.0363071114
v -0.0483158678 -0.33129406 0.0243530367
v -0.0467862859 -0.274889052 0.0277986303
v 0.0432339832 -0.265867174 -0.0346568935
v -0.00266419584 -0.294180036 -0.065608725
v -0.000728128245 -0.240158513 -0.00190968299
v -0.00123111042 -0.312054276 0.0566128902
v 0.0448270515 -0.277323782 0.0269045755
v 0.0407252312 -0.343676925 0.0225576572
v 0.0391321704 -0.332220316 -0.0390038118
v -0.00635952689 -0.362916708 -0.00970219448
v -0.0552885383 -0.270924389 -0.00247330125
v -0.055597052 -0.296433926 -0.0347303413
v -0.0567077994 -0.327652216 -0.00592343044
v -0.0558500662 -0.302686185 0.0267836805
v 0.0219458379 -0.245761812 -0.0233761184
v 0.0206739157 -0.273677528 -0.0557858609
v -0.0245723277 -0.274964273 -0.0547197796
v -0.0240445398 -0.247893125 -0.0226201713
v 0.0227725022 -0.252815813 0.0183635764
v -0.0238964744 -0.252996534 0.0187706258
v -0.0239986796 -0.288270533 0.0485339351
v 0.0225293599 -0.290668219 0.0481268913
v 0.0496530049 -0.29942286 -0.0373664685
v 0.0523799509 -0.271168441 -0.00410149712
v 0.0513603799 -0.311310172 0.0251554828
v 0.0480842143 -0.339021087 -0.00855955761
v 0.0170594864 -0.360490739 0.0114298807
v 0.0201163776 -0.334341407 0.0453023538
v -0.0254159588 -0.328092813 0.0460583046
v -0.027728714 -0.353397548 0.012495962
v -0.0278767813 -0.348294139 -0.0288948361
v -0.0259896051 -0.314786524 -0.0571954139
v 0.0182609335 -0.317350686 -0.0586103946
v 0.0162328221 -0.353436768 -0.030309815
v -0.0592880771 -0.282542378 -0.0196052641
v -0.0599658079 -0.312690765 -0.0214290973
v -0.0601594895 -0.315883696 0.0115886349
v -0.0594817586 -0.285735309 0.0134124681
v 0.0231125765 -0.256372571 -0.0420857146
v -0.00183947384 -0.272360027 -0.0588815026
v -0.025929831 -0.258702606 -0.0411068574
v -0.000977778807 -0.242715135 -0.0243110694
v -0.000455602072 -0.24922803 0.020223124
v -0.0256013349 -0.268408418 0.0364450663
v -0.000535964966 -0.288618118 0.0522890352
v 0.0246097706 -0.26943773 0.0360670947
v 0.0549410768 -0.283775389 -0.0218924917
v 0.0559160896 -0.290327668 0.0117261223
v 0.053523533 -0.327108145 0.00930140633
v 0.0525485203 -0.320555896 -0.0243172087
v 0.0201652851 -0.350947946 0.0308030006
v -0.00258789095 -0.333347827 0.0494496599
v -0.0283309929 -0.343286514 0.031781856
v -0.00557781756 -0.360886633 0.0131351976
v -0.028659489 -0.333580703 -0.0457700677
v -0.00389139913 -0.317089736 -0.0617208779
v 0.0186680946 -0.337882757 -0.0473498069
v -0.00609999523 -0.354373723 -0.0313989967
v -0.0434247069 -0.258296102 -0.0160815418
v -0.0437498018 -0.282614231 -0.0458272174
v -0.044427041 -0.308536232 -0.0474074259
v -0.0458339192 -0.338339716 -0.0210015699
v -0.0459273309 -0.341245413 0.0069853575
v -0.0444694683 -0.318048298 0.0376593024
v -0.0437922329 -0.292126298 0.0392395146
v -0.0435181148 -0.261201799 0.0119053833
v 0.0409803875 -0.255692959 -0.0174335279
v 0.0391205177 -0.281753063 -0.047818847
v 0.0179499909 -0.294921845 -0.0620897077
v -0.0234371983 -0.294413686 -0.0609267056
v -0.0222541802 -0.24512729 -0.00181068666
v 0.0206677839 -0.243893504 -0.002334035
v -0.0227247924 -0.309269726 0.0525630713
v 0.019906491 -0.313353926 0.0520397276
v 0.0411704332 -0.297279418 0.038323652
v 0.0417352244 -0.261036932 0.0109895235
v 0.0392485596 -0.328015029 0.03630732
v 0.0362559222 -0.352954149 0.00499372417
v 0.0355010852 -0.347610176 -0.0234293267
v 0.0371986479 -0.312488675 -0.0498351827
v -0.0265852623 -0.355906516 -0.00874704774
v 0.0145112444 -0.361732721 -0.00991004426
vn -0.557973087 0.824688673 0.0924911872
vn -0.557011485 -0.0354138725 0.829749405
vn 0.579859555 0.804730237 0.127169594
vn 0.584015608 -0.0893412381 0.806810975
vn -0.574341238 0.0678790733 -0.815796852
vn -0.636446297 -0.766360343 -0.0873381272
vn 0.548895299 0.0226773545 -0.835583448
vn 0.479818434 -0.861915708 -0.163937867
vn -0.999697506 0.0244744383 -0.00240958063
vn -0.0441293903 0.759921074 -0.648515582
vn 0.0191740617 0.631061792 0.775495529
vn 0.997313917 -0.0614682436 -0.0398321189
vn -0.106507778 -0.786893606 0.607827723
vn -0.0818844661 -0.625920773 -0.775575995
vn -0.697194159 0.557129085 -0.451140046
vn -0.718842447 -0.439274132 -0.538798451
vn -0.733766198 -0.522520244 0.434234589
vn -0.655329168 0.501425385 0.564903677
vn 0.72230947 0.504310787 -0.473222494
vn -0.0305942576 0.0658334494 -0.9973616
vn -0.0243133847 0.990185022 0.137631714
vn 0.00167650031 -0.0707154945 0.997495115
vn 0.716300189 0.41495049 0.561008155
vn 0.68390584 -0.602903008 0.410829246
vn 0.644639969 -0.481232285 -0.594015777
vn -0.139443904 -0.980165005 -0.140825659
vn -0.836391807 0.545619011 0.0524297617
vn -0.857786059 0.0534981936 -0.51121515
vn -0.873597562 -0.483750671 -0.0530329868
vn -0.854506493 -0.0101871295 0.519340873
vn 0.332292914 0.905951798 -0.262359947
vn 0.328065306 0.399461687 -0.856039405
vn -0.36858958 0.425512612 -0.826487005
vn -0.377961546 0.887305379 -0.264261633
vn 0.341973543 0.802876711 0.488306224
vn -0.324749291 0.823490143 0.465190142
vn -0.307058752 0.321192384 0.895851791
vn 0.361214519 0.278512776 0.889918327
vn 0.848369598 -0.0173562951 -0.529119909
vn 0.89281261 0.446680874 0.0579828098
vn 0.876839757 -0.0883166045 0.472601801
vn 0.829586983 -0.544551373 -0.123488396
vn 0.233104095 -0.947844088 0.217379868
vn 0.322157294 -0.463099867 0.825683475
vn -0.39084506 -0.424761087 0.816589355
vn -0.455633223 -0.856823981 0.241352484
vn -0.43502146 -0.78354913 -0.443629473
vn -0.379137844 -0.282462895 -0.881174922
vn 0.298498064 -0.302013606 -0.905365467
vn 0.238902062 -0.834254861 -0.496935129
vn -0.922444999 0.306255698 -0.235165119
vn -0.933442652 -0.221820101 -0.281923145
vn -0.938586056 -0.259170949 0.227786735
vn -0.91554606 0.278879255 0.289830357
vn 0.33241272 0.709531426 -0.621342778
vn -0.0328894071 0.465216339 -0.884585738
vn -0.37937057 0.710302413 -0.592915297
vn -0.0433783717 0.950889945 -0.306474805
vn 0.00122703833 0.849315882 0.52788353
vn -0.304677576 0.614785671 0.727468312
vn 0.0250578076 0.342844993 0.939057648
vn 0.35334599 0.576600492 0.736667156
vn 0.947364569 0.204111934 -0.246655017
vn 0.950461209 0.169118315 0.260811239
vn 0.931077182 -0.321798623 0.171874449
vn 0.904327154 -0.276072592 -0.325539887
vn 0.27480647 -0.772987366 0.571814597
vn -0.0523939505 -0.496812284 0.866275072
vn -0.434028894 -0.7032094 0.563130081
vn -0.138033256 -0.952372968 0.271905333
vn -0.406822205 -0.575899661 -0.70910871
vn -0.0499489866 -0.330771804 -0.942387998
vn 0.269493431 -0.603741407 -0.750246286
vn -0.114605866 -0.847314239 -0.518578947
vn -0.646127164 0.750144064 -0.140724644
vn -0.654852509 0.283739567 -0.700471282
vn -0.66108048 -0.153071359 -0.734534979
vn -0.695654452 -0.660389364 -0.282755494
vn -0.704284847 -0.698026896 0.129387856
vn -0.666153669 -0.257886827 0.69980979
vn -0.620792031 0.201101869 0.757743597
vn -0.619598925 0.725215554 0.300265998
vn 0.679443359 0.722379863 -0.128545389
vn 0.650499105 0.223204792 -0.725968659
vn 0.319228798 0.0451753289 -0.946600318
vn -0.365661174 0.0718967021 -0.927966952
vn -0.357513338 0.926724076 0.115615137
vn 0.335179508 0.931509852 0.141223699
vn -0.341229051 -0.0502366722 0.93863678
vn 0.355022281 -0.0847341865 0.931009829
vn 0.670717299 0.125429749 0.731030583
vn 0.670074224 0.666752219 0.326254547
vn 0.661355555 -0.313616335 0.681361616
vn 0.595288694 -0.800307512 0.0716889948
vn 0.580767632 -0.729449749 -0.361402899
vn 0.619511724 -0.192322403 -0.761063337
vn -0.455721885 -0.883263528 -0.110286556
vn 0.221865565 -0.961654723 -0.161232337
g 
f 1//1 75//75 27//27 82//82
f 75//75 15//15 51//51 27//27
f 27//27 51//51 9//9 54//54
f 82//82 27//27 54//54 18//18
f 15//15 76//76 28//28 51//51
f 76//76 5//5 77//77 28//28
f 28//28 77//77 16//16 52//52
f 51//51 28//28 52//52 9//9
f 9//9 52//52 29//29 53//53
f 52//52 16//16 78//78 29//29
f 29//29 78//78 6//6 79//79
f 53//53 29//29 79//79 17//17
f 18//18 54//54 30//30 81//81
f 54//54 9//9 53//53 30//30
f 30//30 53//53 17//17 80//80
f 81//81 30//30 80//80 2//2
f 3//3 83//83 31//31 88//88
f 83//83 19//19 55//55 31//31
f 31//31 55//55 10//10 58//58
f 88//88 31//31 58//58 21//21
f 19//19 84//84 32//32 55//55
f 84//84 7//7 85//85 32//32
f 32//32 85//85 20//20 56//56
f 55//55 32//32 56//56 10//10
f 10//10 56//56 33//33 57//57
f 56//56 20//20 86//86 33//33
f 33//33 86//86 5//5 76//76
f 57//57 33//33 76//76 15//15
f 21//21 58//58 34//34 87//87
f 58//58 10//10 57//57 34//34
f 34//34 57//57 15//15 75//75
f 87//87 34//34 75//75 1//1
f 3//3 88//88 35//35 92//92
f 88//88 21//21 59//59 35//35
f 35//35 59//59 11//11 62//62
f 92//92 35//35 62//62 23//23
f 21//21 87//87 36//36 59//59
f 87//87 1//1 82//82 36//36
f 36//36 82//82 18//18 60//60
f 59//59 36//36 60//60 11//11
f 11//11 60//60 37//37 61//61
f 60//60 18//18 81//81 37//37
f 37//37 81//81 2//2 89//89
f 61//61 37//37 89//89 22//22
f 23//23 62//62 38//38 91//91
f 62//62 11//11 61//61 38//38
f 38//38 61//61 22//22 90//90
f 91//91 38//38 90//90 4//4
f 7//7 84//84 39//39 96//96
f 84//84 19//19 63//63 39//39
f 39//39 63//63 12//12 66//66
f 96//96 39//39 66//66 25//25
f 19//19 83//83 40//40 63//63
f 83//83 3//3 92//92 40//40
f 40//40 92//92 23//23 64//64
f 63//63 40//40 64//64 12//12
f 12//12 64//64 41//41 65//65
f 64//64 23//23 91//91 41//41
f 41//41 91//91 4//4 93//93
f 65//65 41//41 93//93 24//24
f 25//25 66//66 42//42 95//95
f 66//66 12//12 65//65 42//42
f 42//42 65//65 24//24 94//94
f 95//95 42//42 94//94 8//8
f 8//8 94//94 43//43 98//98
f 94//94 24//24 67//67 43//43
f 43//43 67//67 13//13 70//70
f 98//98 43//43 70//70 26//26
f 24//24 93//93 44//44 67//67
f 93//93 4//4 90//90 44//44
f 44//44 90//90 22//22 68//68
f 67//67 44//44 68//68 13//13
f 13//13 68//68 45//45 69//69
f 68//68 22//22 89//89 45//45
f 45//45 89//89 2//2 80//80
f 69//69 45//45 80//80 17//17
f 26//26 70//70 46//46 97//97
f 70//70 13//13 69//69 46//46
f 46//46 69//69 17//17 79//79
f 97//97 46//46 79//79 6//6
f 6//6 78//78 47//47 97//97
f 78//78 16//16 71//71 47//47
f 47//47 71//71 14//14 74//74
f 97//97 47//47 74//74 26//26
f 16//16 77//77 48//48 71//71
f 77//77 5//5 86//86 48//48
f 48//48 86//86 20//20 72//72
f 71//71 48//48 72//72 14//14
f 14//14 72//72 49//49 73//73
f 72//72 20//20 85//85 49//49
f 49//49 85//85 7//7 96//96
f 73//73 49//49 96//96 25//25
f 26//26 74//74 50//50 98//98
f 74//74 14//14 73//73 50//50
f 50//50 73//73 25//25 95//95
f 98//98 50//50 95//95 8//8
