# File exported by Houdini 17.0.459 (www.sidefx.com)
# 98 points
# 384 vertices
# 96 primitives
# Bounds: [-0.110805646, -0.409223318, -0.113896772] to [0.101272419, -0.196115077, 0.0982799679]
g 
v -0.0643397272 -0.220276326 -0.00339960447
v -0.0653278679 -0.311327755 0.0764749646
v 0.0610368475 -0.21758759 -0.00501477811
v 0.0592739396 -0.32281357 0.0748597831
v -0.0656395555 -0.291526616 -0.0906577706
v -0.0696469322 -0.379590273 -0.0132574104
v 0.0556462705 -0.293480873 -0.0939778537
v 0.0508641079 -0.395718992 -0.0165774915
v -0.110805646 -0.298244238 -0.00681544235
v -0.00227817614 -0.220684081 -0.0767685771
v -0.000579328858 -0.241873085 0.0681186393
v 0.101272419 -0.309836268 -0.0110720992
v -0.00725505082 -0.387396395 0.0588810407
v -0.00895389915 -0.366207391 -0.0860061795
v -0.0809432864 -0.245266244 -0.0570476167
v -0.0835986286 -0.343185365 -0.0630291626
v -0.0838763565 -0.354326427 0.0422768593
v -0.0812210068 -0.256407261 0.0482584015
v 0.0750541911 -0.240745246 -0.0601643994
v -0.00462505408 -0.289896429 -0.113896772
v -0.00126403756 -0.196115077 -0.00331524201
v -0.00213721721 -0.320926189 0.0982799679
v 0.0778197497 -0.260633945 0.0467063189
v 0.0706989989 -0.375823081 0.0391600728
v 0.0679334328 -0.355934381 -0.067710638
v -0.0110401455 -0.409223318 -0.0168430284
v -0.0959809199 -0.249524564 -0.00429367367
v -0.09651649 -0.293809086 -0.0602918938
v -0.0984447449 -0.348004133 -0.0102830902
v -0.0969557315 -0.304663092 0.0464964546
v 0.0380979665 -0.205842376 -0.0405809768
v 0.0358899087 -0.254304051 -0.0968442783
v -0.0426575691 -0.256537795 -0.0949935615
v -0.0417413265 -0.209542319 -0.0392686464
v 0.0395330563 -0.21808809 0.0318791419
v -0.0414842851 -0.218401849 0.0325857773
v -0.041661717 -0.279637516 0.0842548981
v 0.0391109586 -0.283799946 0.0835482627
v 0.0861975998 -0.298997968 -0.0648682117
v 0.0909315795 -0.249948263 -0.00712022744
v 0.0891616046 -0.319634318 0.0436698943
v 0.083474189 -0.367740512 -0.0148594165
v 0.0296152607 -0.405011803 0.019842254
v 0.0349220186 -0.359616578 0.0786448717
v -0.0441221148 -0.348768979 0.0799572021
v -0.0481370538 -0.39269805 0.0216929745
v -0.0483940989 -0.383838505 -0.0501614511
v -0.0451179631 -0.325669259 -0.099291265
v 0.0317009687 -0.330120683 -0.101747669
v 0.0281801689 -0.392766088 -0.0526178628
v -0.102924109 -0.269693375 -0.0340347588
v -0.104100645 -0.322030991 -0.0372009277
v -0.104436874 -0.327573955 0.0201178566
v -0.103260346 -0.275236338 0.0232840255
v 0.0401234254 -0.224262655 -0.0730608255
v -0.00319333514 -0.252016842 -0.102218315
v -0.0450141914 -0.22830756 -0.0713615343
v -0.00169743132 -0.200553343 -0.0422040485
v -0.000790932216 -0.211859718 0.0351073146
v -0.0444439277 -0.245156884 0.0632686093
v -0.000930443406 -0.280240923 0.0907737464
v 0.0427225456 -0.246943757 0.0626124516
v 0.0953776985 -0.271833956 -0.038005393
v 0.097070314 -0.283208698 0.020356521
v 0.0929168388 -0.347059637 0.0161472168
v 0.0912242234 -0.335684925 -0.0422146991
v 0.0350069255 -0.388445497 0.0534739904
v -0.00449258881 -0.357891679 0.0858445913
v -0.0491826124 -0.375145286 0.055173289
v -0.00968309864 -0.405699074 0.0228026863
v -0.0497528799 -0.358295947 -0.0794568583
v -0.00675547868 -0.329667628 -0.10714747
v 0.0324078016 -0.36576438 -0.0821992904
v -0.0105895996 -0.394392699 -0.0545086749
v -0.0753853023 -0.227601871 -0.0279175825
v -0.0759496689 -0.269818097 -0.0795560703
v -0.0771253482 -0.31481871 -0.0822993144
v -0.0795676857 -0.366557628 -0.0364587381
v -0.0797298551 -0.371601969 0.0121265668
v -0.077199012 -0.3313317 0.0653765351
v -0.0760233179 -0.286331117 0.0681197792
v -0.0755474642 -0.232646197 0.0206677206
v 0.0711419433 -0.22308287 -0.0302646328
v 0.0679132044 -0.268323183 -0.0830135494
v 0.0311611742 -0.291184187 -0.107787751
v -0.0406869836 -0.290302038 -0.105768785
v -0.0386332646 -0.204740837 -0.00314338226
v 0.0358792692 -0.202598959 -0.00405191723
v -0.0394502506 -0.316092104 0.0912494808
v 0.0345576592 -0.323182315 0.0903409421
v 0.071471855 -0.29527694 0.0665298402
v 0.0724523365 -0.232359946 0.0190777853
v 0.0681354851 -0.348634005 0.063029483
v 0.0629402697 -0.391928285 0.00866908301
v 0.0616298728 -0.38265121 -0.0406733342
v 0.0645768419 -0.321680218 -0.0865138993
v -0.0461520217 -0.397053659 -0.0151848905
v 0.0251915101 -0.407167882 -0.01720386
vn -0.557972789 0.824688852 0.0924918354
vn -0.557011247 -0.0354136527 0.829749584
vn 0.579859674 0.804730117 0.127170026
vn 0.584015667 -0.0893410146 0.806810975
vn -0.574341238 0.0678789839 -0.815796912
vn -0.636446595 -0.766360223 -0.0873378515
vn 0.548895538 0.0226772204 -0.83558327
vn 0.479817867 -0.861915946 -0.163937971
vn -0.999697506 0.0244743507 -0.00240972685
vn -0.0441291071 0.759921432 -0.648515403
vn 0.0191739798 0.631061733 0.775495589
vn 0.997313917 -0.0614680983 -0.039832145
vn -0.106507413 -0.786893189 0.607828379
vn -0.0818846598 -0.625920475 -0.775576234
vn -0.697194099 0.557129383 -0.451139897
vn -0.718842626 -0.439273894 -0.538798392
vn -0.733766317 -0.522520065 0.434234679
vn -0.655329168 0.501425564 0.564903498
vn 0.72230953 0.504310906 -0.473222524
vn -0.0305942353 0.0658334494 -0.997361481
vn -0.0243135486 0.990185022 0.137631461
vn 0.00167656678 -0.0707158744 0.997495055
vn 0.716300189 0.414950371 0.561008215
vn 0.683905542 -0.602903247 0.410829723
vn 0.64463985 -0.481232017 -0.594016016
vn -0.139443427 -0.980165064 -0.140825987
vn -0.836391568 0.54561919 0.0524302982
vn -0.857786119 0.0534983389 -0.51121515
vn -0.873597801 -0.483750373 -0.0530332625
vn -0.854506731 -0.0101870447 0.519340515
vn 0.332292944 0.905951858 -0.262359738
vn 0.328065366 0.399461597 -0.856039464
vn -0.368589669 0.425512791 -0.826486826
vn -0.377961308 0.887305498 -0.264261603
vn 0.341973215 0.802876711 0.488306493
vn -0.324749202 0.823490083 0.465190411
vn -0.307058781 0.321192563 0.895851731
vn 0.361214697 0.278512597 0.889918327
vn 0.848369718 -0.017356351 -0.529119611
vn 0.89281261 0.446680635 0.0579826012
vn 0.876839697 -0.0883164033 0.472601503
vn 0.829586983 -0.544551313 -0.123488382
vn 0.233104065 -0.947843969 0.217380375
vn 0.322157174 -0.463099957 0.825683415
vn -0.390844792 -0.42476061 0.816589653
vn -0.455632895 -0.856823921 0.241353288
vn -0.435021609 -0.783548713 -0.443630099
vn -0.379137903 -0.282463014 -0.881174803
vn 0.298497975 -0.302013427 -0.905365646
vn 0.238901705 -0.834254563 -0.496935904
vn -0.922444999 0.306255817 -0.235165358
vn -0.933442712 -0.221819878 -0.281923056
vn -0.938586116 -0.259170741 0.227786273
vn -0.91554606 0.278879195 0.289830416
vn 0.332412958 0.709531605 -0.62134248
vn -0.0328892805 0.465216249 -0.884585798
vn -0.37937057 0.710302711 -0.592914879
vn -0.0433782786 0.950889945 -0.306474626
vn 0.00122682331 0.849315822 0.52788353
vn -0.304677725 0.61478591 0.727468073
vn 0.0250579193 0.342844903 0.939057767
vn 0.35334599 0.576600194 0.736667335
vn 0.947364569 0.20411177 -0.246655107
vn 0.950461209 0.169118255 0.26081121
vn 0.931077302 -0.321798384 0.171874493
vn 0.904327273 -0.276072353 -0.325539887
vn 0.27480635 -0.772987306 0.571814835
vn -0.0523938425 -0.496812314 0.866275072
vn -0.434028536 -0.703208804 0.563130856
vn -0.138032749 -0.952372849 0.271906137
vn -0.406822205 -0.575899243 -0.709109128
vn -0.049949158 -0.330771834 -0.942387998
vn 0.269493014 -0.603741348 -0.750246584
vn -0.114605643 -0.847313523 -0.518580019
vn -0.646126926 0.750144422 -0.14072454
vn -0.654852569 0.283739835 -0.700471103
vn -0.661080837 -0.153071269 -0.734534681
vn -0.695654809 -0.660389125 -0.282755524
vn -0.704285085 -0.698026836 0.129387721
vn -0.666153431 -0.257886469 0.699810088
vn -0.620792091 0.201102018 0.757743418
vn -0.619598567 0.725215614 0.300266504
vn 0.679443479 0.722379863 -0.128545329
vn 0.650499225 0.223204598 -0.725968659
vn 0.319228798 0.0451753289 -0.946600318
vn -0.365660906 0.0718965754 -0.927967131
vn -0.35751304 0.926724017 0.115615636
vn 0.33517918 0.931509972 0.141223684
vn -0.341228992 -0.050236728 0.93863678
vn 0.355022311 -0.0847342089 0.931009829
vn 0.670717537 0.125429749 0.731030345
vn 0.670074344 0.66675204 0.326254845
vn 0.661355436 -0.313616216 0.681361675
vn 0.595288277 -0.800307751 0.0716895014
vn 0.580767095 -0.729449928 -0.361403376
vn 0.619512022 -0.192322314 -0.761063099
vn -0.455722004 -0.883263469 -0.110285915
vn 0.221865624 -0.961654603 -0.161232978
g 
f 1//1 75//75 27//27 82//82
f 75//75 15//15 51//51 27//27
f 27//27 51//51 9//9 54//54
f 82//82 27//27 54//54 18//18
f 15//15 76//76 28//28 51//51
f 76//76 5//5 77//77 28//28
f 28//28 77//77 16//16 52//52
f 51//51 28//28 52//52 9//9
f 9//9 52//52 29//29 53//53
f 52//52 16//16 78//78 29//29
f 29//29 78//78 6//6 79//79
f 53//53 29//29 79//79 17//17
f 18//18 54//54 30//30 81//81
f 54//54 9//9 53//53 30//30
f 30//30 53//53 17//17 80//80
f 81//81 30//30 80//80 2//2
f 3//3 83//83 31//31 88//88
f 83//83 19//19 55//55 31//31
f 31//31 55//55 10//10 58//58
f 88//88 31//31 58//58 21//21
f 19//19 84//84 32//32 55//55
f 84//84 7//7 85//85 32//32
f 32//32 85//85 20//20 56//56
f 55//55 32//32 56//56 10//10
f 10//10 56//56 33//33 57//57
f 56//56 20//20 86//86 33//33
f 33//33 86//86 5//5 76//76
f 57//57 33//33 76//76 15//15
f 21//21 58//58 34//34 87//87
f 58//58 10//10 57//57 34//34
f 34//34 57//57 15//15 75//75
f 87//87 34//34 75//75 1//1
f 3//3 88//88 35//35 92//92
f 88//88 21//21 59//59 35//35
f 35//35 59//59 11//11 62//62
f 92//92 35//35 62//62 23//23
f 21//21 87//87 36//36 59//59
f 87//87 1//1 82//82 36//36
f 36//36 82//82 18//18 60//60
f 59//59 36//36 60//60 11//11
f 11//11 60//60 37//37 61//61
f 60//60 18//18 81//81 37//37
f 37//37 81//81 2//2 89//89
f 61//61 37//37 89//89 22//22
f 23//23 62//62 38//38 91//91
f 62//62 11//11 61//61 38//38
f 38//38 61//61 22//22 90//90
f 91//91 38//38 90//90 4//4
f 7//7 84//84 39//39 96//96
f 84//84 19//19 63//63 39//39
f 39//39 63//63 12//12 66//66
f 96//96 39//39 66//66 25//25
f 19//19 83//83 40//40 63//63
f 83//83 3//3 92//92 40//40
f 40//40 92//92 23//23 64//64
f 63//63 40//40 64//64 12//12
f 12//12 64//64 41//41 65//65
f 64//64 23//23 91//91 41//41
f 41//41 91//91 4//4 93//93
f 65//65 41//41 93//93 24//24
f 25//25 66//66 42//42 95//95
f 66//66 12//12 65//65 42//42
f 42//42 65//65 24//24 94//94
f 95//95 42//42 94//94 8//8
f 8//8 94//94 43//43 98//98
f 94//94 24//24 67//67 43//43
f 43//43 67//67 13//13 70//70
f 98//98 43//43 70//70 26//26
f 24//24 93//93 44//44 67//67
f 93//93 4//4 90//90 44//44
f 44//44 90//90 22//22 68//68
f 67//67 44//44 68//68 13//13
f 13//13 68//68 45//45 69//69
f 68//68 22//22 89//89 45//45
f 45//45 89//89 2//2 80//80
f 69//69 45//45 80//80 17//17
f 26//26 70//70 46//46 97//97
f 70//70 13//13 69//69 46//46
f 46//46 69//69 17//17 79//79
f 97//97 46//46 79//79 6//6
f 6//6 78//78 47//47 97//97
f 78//78 16//16 71//71 47//47
f 47//47 71//71 14//14 74//74
f 97//97 47//47 74//74 26//26
f 16//16 77//77 48//48 71//71
f 77//77 5//5 86//86 48//48
f 48//48 86//86 20//20 72//72
f 71//71 48//48 72//72 14//14
f 14//14 72//72 49//49 73//73
f 72//72 20//20 85//85 49//49
f 49//49 85//85 7//7 96//96
f 73//73 49//49 96//96 25//25
f 26//26 74//74 50//50 98//98
f 74//74 14//14 73//73 50//50
f 50//50 73//73 25//25 95//95
f 98//98 50//50 95//95 8//8
