# File exported by Houdini 17.0.459 (www.sidefx.com)
# 98 points
# 384 vertices
# 96 primitives
# Bounds: [-0.0119632306, -0.311792493, -0.0122969262] to [0.0109339394, -0.288784117, 0.0106108943]
g 
v -0.00694650225 -0.291392684 -0.000367016299
v -0.00705318898 -0.301223159 0.00825669989
v 0.00658987463 -0.291102409 -0.000541399233
v 0.00639953976 -0.302463233 0.00808231719
v -0.0070868372 -0.299085319 -0.00978791062
v -0.0075194994 -0.308593154 -0.00143132289
v 0.00600787811 -0.29929629 -0.0101463646
v 0.00549156778 -0.310334504 -0.00178977684
v -0.0119632306 -0.299810588 -0.000735810609
v -0.000245978299 -0.291436732 -0.00828835275
v -6.25633547e-05 -0.293724418 0.00735450443
v 0.0109339394 -0.301062107 -0.00119538244
v -0.000783313706 -0.309435964 0.00635715947
v -0.000966728549 -0.307148278 -0.00928569771
v -0.00873911567 -0.294090748 -0.00615916494
v -0.00902580377 -0.304662704 -0.0068049673
v -0.00905579049 -0.305865526 0.0045644762
v -0.00876910333 -0.295293629 0.00521027856
v 0.00810326822 -0.293602645 -0.00649566902
v -0.000499360671 -0.298909307 -0.0122969262
v -0.000136487128 -0.288784117 -0.000357907673
v -0.000230762904 -0.302259445 0.0106108943
v 0.00840185303 -0.295749962 0.00504270755
v 0.00763305556 -0.308186442 0.00422797166
v 0.00733447028 -0.306039095 -0.00731040537
v -0.00119197334 -0.311792493 -0.00181844644
v -0.0103626661 -0.294550508 -0.000463545555
v -0.0104204901 -0.299331754 -0.00650943536
v -0.0106286779 -0.305182934 -0.00111019809
v -0.0104679149 -0.300503612 0.00502004847
v 0.00411326205 -0.289834321 -0.00438133022
v 0.00387486792 -0.295066535 -0.0104558403
v -0.00460556988 -0.295307696 -0.0102560278
v -0.00450664759 -0.290233791 -0.00423964439
v 0.00426820153 -0.291156471 0.00344187999
v -0.00447889697 -0.291190326 0.00351817254
v -0.0044980552 -0.297801673 0.00909666717
v 0.00422262866 -0.298251092 0.00902037509
v 0.00930637494 -0.299891949 -0.00700352062
v 0.0098174829 -0.294596255 -0.000768715749
v 0.00962638576 -0.30211997 0.00471487828
v 0.00901233871 -0.3073138 -0.00160428334
v 0.00319741806 -0.311337829 0.00214230781
v 0.00377036608 -0.306436688 0.00849097688
v -0.00476369448 -0.305265516 0.00863266271
v -0.00519717019 -0.310008347 0.00234212214
v -0.00522492034 -0.309051812 -0.00541569525
v -0.00487120869 -0.302771568 -0.0107200313
v 0.00342260557 -0.303252131 -0.0109852385
v 0.00304247858 -0.310015678 -0.00568090286
v -0.0111122932 -0.296728075 -0.00367456442
v -0.01123932 -0.302378744 -0.00401640311
v -0.011275623 -0.302977204 0.0021720631
v -0.0111485962 -0.297326505 0.00251390133
v 0.00433194265 -0.291823089 -0.00788804237
v -0.000344783999 -0.294819593 -0.0110360533
v -0.00486000441 -0.292259812 -0.00770457741
v -0.000183278113 -0.289263308 -0.00455656694
v -8.54085665e-05 -0.290484011 0.00379041233
v -0.00479843747 -0.294078946 0.00683086738
v -0.000100472244 -0.297866821 0.00980048068
v 0.00461255712 -0.294271886 0.00676002447
v 0.0102975108 -0.296959162 -0.00410325592
v 0.0104802558 -0.298187256 0.0021978321
v 0.0100318221 -0.30508098 0.00174337137
v 0.00984907709 -0.303852886 -0.00455771666
v 0.00377953332 -0.309549212 0.00577338412
v -0.000485062483 -0.306250453 0.00926830061
v -0.00531005487 -0.308113277 0.00595684955
v -0.00104545953 -0.311412036 0.00246193307
v -0.00537162134 -0.306294113 -0.00857859571
v -0.000729373947 -0.303203225 -0.0115682334
v 0.00349891884 -0.307100415 -0.00887468271
v -0.00114332908 -0.310191303 -0.00588504598
v -0.00813904405 -0.292183638 -0.00301411841
v -0.00819997583 -0.296741545 -0.00858930685
v -0.00832691044 -0.301600069 -0.00888548233
v -0.00859060138 -0.307186067 -0.00393627165
v -0.00860811118 -0.307730705 0.00130927737
v -0.00833486579 -0.303382903 0.00705845095
v -0.00820793211 -0.29852438 0.0073546269
v -0.00815655384 -0.292728245 0.0022314305
v 0.00768087991 -0.291695714 -0.00326751871
v 0.00733228726 -0.296580136 -0.0089625949
v 0.00336432643 -0.299048334 -0.0116373599
v -0.00439281436 -0.298953116 -0.0114193819
v -0.00417108368 -0.289715409 -0.000339352991
v 0.00387371797 -0.289484143 -0.000437443261
v -0.00425929297 -0.301737517 0.00985184219
v 0.00373102771 -0.302503049 0.0097537525
v 0.00771649741 -0.299490213 0.00718296878
v 0.00782235712 -0.29269731 0.00205977215
v 0.00735628419 -0.305250943 0.00680505019
v 0.00679537887 -0.309925258 0.000935988501
v 0.00665390119 -0.308923632 -0.00439130235
v 0.00697207404 -0.302340835 -0.0093405135
v -0.00498285424 -0.310478598 -0.00163942459
v 0.00271980511 -0.311570585 -0.00185740343
vn -0.557973862 0.824688077 0.0924924985
vn -0.557013631 -0.0354144983 0.829747915
vn 0.579859912 0.804730296 0.127167761
vn 0.584015667 -0.0893410072 0.806810915
vn -0.574340165 0.0678784326 -0.815797687
vn -0.636446059 -0.766360641 -0.0873378366
vn 0.548895717 0.0226771254 -0.83558321
vn 0.479815155 -0.861915588 -0.163947761
vn -0.999697506 0.0244740359 -0.00241049053
vn -0.0441292897 0.759921074 -0.648515642
vn 0.0191753209 0.631062031 0.775495291
vn 0.997313917 -0.0614679568 -0.039832484
vn -0.106506228 -0.786892354 0.60782969
vn -0.0818825141 -0.625920117 -0.775576711
vn -0.697194636 0.557128787 -0.451139808
vn -0.718842328 -0.439275652 -0.538797498
vn -0.733766019 -0.522520602 0.43423447
vn -0.655329585 0.501424968 0.564903677
vn 0.722310066 0.504310668 -0.473221809
vn -0.0305937082 0.0658331886 -0.9973616
vn -0.0243138745 0.990184665 0.137634411
vn 0.00167702453 -0.0707170218 0.997494996
vn 0.716299713 0.414949924 0.561009228
vn 0.683905065 -0.602903008 0.410830706
vn 0.644640386 -0.481232822 -0.594014883
vn -0.139443576 -0.980164826 -0.140827596
vn -0.836391747 0.545619011 0.0524287112
vn -0.857785702 0.0534979068 -0.511215806
vn -0.873597205 -0.483751357 -0.0530328192
vn -0.854507089 -0.0101871248 0.519339919
vn 0.332292348 0.90595299 -0.262356639
vn 0.328065574 0.399460763 -0.856039703
vn -0.368590593 0.425512224 -0.826486707
vn -0.377961248 0.887305439 -0.264261782
vn 0.341972232 0.802876353 0.488307893
vn -0.324749142 0.82348913 0.46519196
vn -0.30705893 0.321192265 0.895851672
vn 0.361215651 0.278513014 0.88991791
vn 0.848369539 -0.0173567384 -0.529119909
vn 0.892812848 0.446680337 0.0579820909
vn 0.876839995 -0.0883162692 0.472601146
vn 0.829586446 -0.544551492 -0.123491473
vn 0.233103558 -0.947844267 0.217379913
vn 0.32215789 -0.463101983 0.825682044
vn -0.390843868 -0.424758136 0.816591442
vn -0.455633879 -0.856825054 0.241347581
vn -0.435020953 -0.783550143 -0.443628192
vn -0.379136682 -0.282462597 -0.881175518
vn 0.298499495 -0.302014112 -0.905364931
vn 0.238902017 -0.834254026 -0.496936709
vn -0.922445059 0.306255043 -0.235165864
vn -0.933442652 -0.221820563 -0.281922877
vn -0.938585937 -0.259171516 0.227786183
vn -0.915545762 0.278879166 0.28983146
vn 0.332413495 0.709532857 -0.621340811
vn -0.0328896157 0.465215683 -0.884586155
vn -0.379370421 0.710301697 -0.592916012
vn -0.0433789901 0.950891078 -0.30647105
vn 0.00122778688 0.849315882 0.52788353
vn -0.304678798 0.614786148 0.727467418
vn 0.0250584036 0.34284544 0.939057529
vn 0.35334608 0.576599777 0.736667693
vn 0.94736445 0.204111651 -0.246655971
vn 0.950461209 0.169118062 0.260811388
vn 0.931077421 -0.321798116 0.171874404
vn 0.904326856 -0.276072532 -0.325540841
vn 0.274806857 -0.772986472 0.57181561
vn -0.0523923971 -0.496811122 0.866275787
vn -0.434028566 -0.703208148 0.563131869
vn -0.138032988 -0.952373981 0.271902353
vn -0.406821162 -0.575900555 -0.709108591
vn -0.0499470346 -0.330771327 -0.942388296
vn 0.269495785 -0.603741467 -0.750245392
vn -0.114604533 -0.847314656 -0.51857847
vn -0.646127522 0.750143588 -0.140726537
vn -0.654852629 0.283738852 -0.70047152
vn -0.661079705 -0.153071195 -0.734535873
vn -0.695654333 -0.660390794 -0.282752693
vn -0.704284728 -0.69802773 0.129384562
vn -0.666153729 -0.257885963 0.699810088
vn -0.620793641 0.201101393 0.757742405
vn -0.619599104 0.725214899 0.30026722
vn 0.679443896 0.722379208 -0.128546849
vn 0.650499463 0.22320421 -0.72596854
vn 0.319228858 0.045174852 -0.946600378
vn -0.365661234 0.0718962923 -0.927967012
vn -0.357512623 0.926723719 0.115619473
vn 0.335178047 0.93151021 0.14122425
vn -0.341229379 -0.0502367951 0.938636661
vn 0.355022371 -0.0847358331 0.93100965
vn 0.670718014 0.125430048 0.731029809
vn 0.670073569 0.666751802 0.326256573
vn 0.66135639 -0.313617557 0.681360304
vn 0.595287442 -0.800308526 0.0716880858
vn 0.580765367 -0.729448915 -0.361408502
vn 0.619512916 -0.192323327 -0.761062026
vn -0.455721408 -0.883263469 -0.110288873
vn 0.221863806 -0.961654246 -0.161237434
g 
f 1//1 75//75 27//27 82//82
f 75//75 15//15 51//51 27//27
f 27//27 51//51 9//9 54//54
f 82//82 27//27 54//54 18//18
f 15//15 76//76 28//28 51//51
f 76//76 5//5 77//77 28//28
f 28//28 77//77 16//16 52//52
f 51//51 28//28 52//52 9//9
f 9//9 52//52 29//29 53//53
f 52//52 16//16 78//78 29//29
f 29//29 78//78 6//6 79//79
f 53//53 29//29 79//79 17//17
f 18//18 54//54 30//30 81//81
f 54//54 9//9 53//53 30//30
f 30//30 53//53 17//17 80//80
f 81//81 30//30 80//80 2//2
f 3//3 83//83 31//31 88//88
f 83//83 19//19 55//55 31//31
f 31//31 55//55 10//10 58//58
f 88//88 31//31 58//58 21//21
f 19//19 84//84 32//32 55//55
f 84//84 7//7 85//85 32//32
f 32//32 85//85 20//20 56//56
f 55//55 32//32 56//56 10//10
f 10//10 56//56 33//33 57//57
f 56//56 20//20 86//86 33//33
f 33//33 86//86 5//5 76//76
f 57//57 33//33 76//76 15//15
f 21//21 58//58 34//34 87//87
f 58//58 10//10 57//57 34//34
f 34//34 57//57 15//15 75//75
f 87//87 34//34 75//75 1//1
f 3//3 88//88 35//35 92//92
f 88//88 21//21 59//59 35//35
f 35//35 59//59 11//11 62//62
f 92//92 35//35 62//62 23//23
f 21//21 87//87 36//36 59//59
f 87//87 1//1 82//82 36//36
f 36//36 82//82 18//18 60//60
f 59//59 36//36 60//60 11//11
f 11//11 60//60 37//37 61//61
f 60//60 18//18 81//81 37//37
f 37//37 81//81 2//2 89//89
f 61//61 37//37 89//89 22//22
f 23//23 62//62 38//38 91//91
f 62//62 11//11 61//61 38//38
f 38//38 61//61 22//22 90//90
f 91//91 38//38 90//90 4//4
f 7//7 84//84 39//39 96//96
f 84//84 19//19 63//63 39//39
f 39//39 63//63 12//12 66//66
f 96//96 39//39 66//66 25//25
f 19//19 83//83 40//40 63//63
f 83//83 3//3 92//92 40//40
f 40//40 92//92 23//23 64//64
f 63//63 40//40 64//64 12//12
f 12//12 64//64 41//41 65//65
f 64//64 23//23 91//91 41//41
f 41//41 91//91 4//4 93//93
f 65//65 41//41 93//93 24//24
f 25//25 66//66 42//42 95//95
f 66//66 12//12 65//65 42//42
f 42//42 65//65 24//24 94//94
f 95//95 42//42 94//94 8//8
f 8//8 94//94 43//43 98//98
f 94//94 24//24 67//67 43//43
f 43//43 67//67 13//13 70//70
f 98//98 43//43 70//70 26//26
f 24//24 93//93 44//44 67//67
f 93//93 4//4 90//90 44//44
f 44//44 90//90 22//22 68//68
f 67//67 44//44 68//68 13//13
f 13//13 68//68 45//45 69//69
f 68//68 22//22 89//89 45//45
f 45//45 89//89 2//2 80//80
f 69//69 45//45 80//80 17//17
f 26//26 70//70 46//46 97//97
f 70//70 13//13 69//69 46//46
f 46//46 69//69 17//17 79//79
f 97//97 46//46 79//79 6//6
f 6//6 78//78 47//47 97//97
f 78//78 16//16 71//71 47//47
f 47//47 71//71 14//14 74//74
f 97//97 47//47 74//74 26//26
f 16//16 77//77 48//48 71//71
f 77//77 5//5 86//86 48//48
f 48//48 86//86 20//20 72//72
f 71//71 48//48 72//72 14//14
f 14//14 72//72 49//49 73//73
f 72//72 20//20 85//85 49//49
f 49//49 85//85 7//7 96//96
f 73//73 49//49 96//96 25//25
f 26//26 74//74 50//50 98//98
f 74//74 14//14 73//73 50//50
f 50//50 73//73 25//25 95//95
f 98//98 50//50 95//95 8//8
