# File exported by Houdini 17.0.459 (www.sidefx.com)
# 137 points
# 512 vertices
# 128 primitives
# Bounds: [-0.111793004, -4.37761974, -0.111792997] to [0.111792997, -3.86077094, 0.111792997]
g 
v 0.0272155292 -4.0071888 -0.10046716
v 0.0215021819 -4.33178616 -0.0215021838
v 0.10046716 -4.0071888 -0.0272155292
v -0.0215021838 -4.33178616 -0.0215021819
v -0.0272155292 -4.0071888 -0.100467153
v -0.10046716 -4.0071888 -0.0272155292
v 0.10046716 -4.0071888 0.0272155292
v 0.0215021819 -4.33178616 0.0215021838
v 0.0272155292 -4.0071888 0.100467153
v -0.0272155292 -4.0071888 0.10046716
v -0.0215021819 -4.33178616 0.0215021838
v -0.10046716 -4.0071888 0.0272155292
v -0.085332945 -3.93575525 -0.0266955979
v -0.0266955998 -3.93575525 -0.0853329375
v -0.0266180225 -3.87848949 -0.0266180225
v 0.0266956016 -3.93575525 -0.0853329375
v 0.085332945 -3.93575525 -0.0266955979
v 0.0266180225 -3.87848949 -0.0266180206
v 0.085332945 -3.93575525 0.0266955979
v 0.0266955998 -3.93575525 0.0853329375
v 0.0266180225 -3.87848949 0.0266180225
v -0.0266956016 -3.93575525 0.0853329375
v -0.085332945 -3.93575525 0.0266955979
v -0.0266180225 -3.87848949 0.0266180206
v -0.0222530998 -4.17712116 -0.0656397492
v -0.0656397492 -4.17712116 -0.0222530998
v 0.0222530998 -4.17712116 -0.0656397492
v 0.0656397492 -4.17712116 -0.0222531036
v 0.0656397492 -4.17712116 0.0222530998
v 0.0222530998 -4.17712116 0.0656397492
v -0.0222530998 -4.17712116 0.0656397492
v -0.0656397492 -4.17712116 0.0222531036
v -0.0585009716 -4.08396006 -0.0585009679
v 0.0585009679 -4.08396006 -0.0585009716
v 0.0585009716 -4.08396006 0.0585009679
v -0.0585009679 -4.08396006 0.0585009716
v -0.0494506881 -3.91231561 -0.0494506806
v 0.0494506843 -3.91231561 -0.0494506806
v 0.0494506843 -3.91231561 0.0494506806
v -0.0494506843 -3.91231561 0.0494506806
v 0 -4.27761936 -0.046486292
v 0.0961717069 -4.08396006 0
v 0.0664262399 -3.96419406 -0.0664262325
v -0.0664262399 -3.96419406 -0.0664262325
v -0.046486292 -4.27761936 -4.65661287e-10
v 0 -4.08396006 0.0961717069
v 0.0664262399 -3.96419406 0.0664262325
v -0.0664262399 -3.96419406 0.0664262325
v 0 -3.89942932 -0.0623368248
v -0.0623368286 -3.89942932 0
v 0.0623368248 -3.89942932 0
v 0 -3.89942932 0.0623368248
v 0 -3.96419406 -0.110598154
v 0 -4.37761974 0
v 0.110598162 -3.96419406 0
v 0 -3.96419406 0.110598154
v -0.110598162 -3.96419406 4.65661287e-10
v 0 -3.86077094 0
v -0.0379342698 -4.24428606 -0.0379342698
v 0.0379342698 -4.24428606 -0.0379342735
v 0.0379342698 -4.24428606 0.0379342698
v -0.0379342698 -4.24428606 0.0379342735
v 0 -4.08396006 -0.0961717144
v 0.0464862883 -4.27761936 -4.65661287e-10
v -0.0961717144 -4.08396006 0
v 0 -4.27761936 0.0464862883
v -0.0664896294 -4.0071888 -0.066489622
v -0.086754024 -4.08396006 -0.0250403546
v -0.0473519564 -4.17087126 -0.0473519564
v -0.0250403546 -4.08396006 -0.086754024
v 0.0250403546 -4.08396006 -0.086754024
v 0.0473519564 -4.17087126 -0.0473519601
v 0.086754024 -4.08396006 -0.0250403546
v 0.0664896294 -4.0071888 -0.066489622
v 0.086754024 -4.08396006 0.0250403546
v 0.0473519564 -4.17087126 0.0473519564
v 0.0250403546 -4.08396006 0.086754024
v 0.0664896294 -4.0071888 0.066489622
v -0.0250403546 -4.08396006 0.086754024
v -0.0473519564 -4.17087126 0.0473519601
v -0.086754024 -4.08396006 0.0250403546
v -0.0664896294 -4.0071888 0.066489622
v -0.0242018718 -3.90265083 -0.0591152906
v -0.0591152944 -3.90265083 -0.02420187
v -0.0601376444 -3.93817139 -0.0601376407
v 0.0601376444 -3.93817139 -0.0601376407
v 0.0591152906 -3.90265083 -0.02420187
v 0.02420187 -3.90265083 -0.0591152906
v 0.0601376444 -3.93817139 0.0601376407
v 0.02420187 -3.90265083 0.0591152906
v 0.0591152906 -3.90265083 0.02420187
v -0.0601376444 -3.93817139 0.0601376407
v -0.0591152944 -3.90265083 0.02420187
v -0.02420187 -3.90265083 0.0591152906
v 0.0198986791 -4.26928616 -0.0443482883
v 0 -4.17920446 -0.0717356801
v -0.0198986791 -4.26928616 -0.0443482846
v 0 -4.35261965 -0.0220366847
v 0.0717356801 -4.17920446 -1.16415322e-10
v 0.111792997 -4.0071888 0
v 0.0995551795 -3.96419406 -0.0277337134
v 0.0277337171 -3.96419406 -0.0995551795
v -0.0277337171 -3.96419406 -0.0995551795
v -0.0995551795 -3.96419406 -0.0277337134
v -0.0443482883 -4.26928616 -0.0198986791
v -0.0717356801 -4.17920446 -1.16415322e-10
v -0.0443482846 -4.26928616 0.019898681
v -0.0220366847 -4.35261965 -1.16415322e-10
v 0 -4.17920446 0.0717356801
v 0 -4.0071888 0.111792997
v 0.0277337171 -3.96419406 0.0995551795
v 0.0995551795 -3.96419406 0.0277337134
v -0.0995551795 -3.96419406 0.0277337134
v -0.0277337171 -3.96419406 0.0995551795
v 0 -3.93494987 -0.0937313661
v 0 -3.87043548 -0.0274234042
v -0.027423406 -3.87043548 0
v -0.0937313735 -3.93494987 1.16415322e-10
v 0.0937313735 -3.93494987 0
v 0.0274234042 -3.87043548 0
v 0 -3.93494987 0.0937313661
v 0 -3.87043548 0.0274234042
v 0 -4.0071888 -0.111792997
v 0 -4.35261965 0.0220366828
v 0.0220366828 -4.35261965 -1.16415322e-10
v -0.111793004 -4.0071888 1.16415322e-10
v 0.0443482846 -4.26928616 -0.019898681
v 0.0443482846 -4.26928616 0.0198986791
v 0.0198986791 -4.26928616 0.0443482846
v -0.0198986791 -4.26928616 0.0443482846
v -0.111793004 -4.0071888 1.16415322e-10
v 0 -4.0071888 -0.111792997
v 0 -4.0071888 0.111792997
v 0.111792997 -4.0071888 0
v 0 -4.37761974 0
v 0 -4.37761974 0
v 0 -4.37761974 0
vn 0.517699301 -0.0770814717 -0.852083266
vn 0.654055715 -0.380028397 -0.654056251
vn 0.852083802 -0.0770816132 -0.517698348
vn -0.654055774 -0.380028337 -0.654056251
vn -0.517699182 -0.0770814195 -0.852083385
vn -0.852083266 -0.0770815238 -0.517699361
vn 0.852083445 -0.0770815685 0.517699063
vn 0.654055536 -0.380028218 0.65405637
vn 0.517698944 -0.077081427 0.852083504
vn -0.517699122 -0.0770814568 0.852083385
vn -0.654056013 -0.380028874 0.654055655
vn -0.852083564 -0.077081576 0.517698824
vn -0.757740855 0.503246963 -0.415417105
vn -0.415416926 0.503247082 -0.757740796
vn -0.421679497 0.802729487 -0.421677083
vn 0.415415168 0.503245652 -0.757742703
vn 0.757740855 0.503246963 -0.415417105
vn 0.421679646 0.802729249 -0.421677738
vn 0.757740855 0.503246963 0.415417105
vn 0.415416658 0.50324738 0.757740855
vn 0.421680599 0.80273068 0.421674103
vn -0.415415168 0.503245652 0.757742703
vn -0.757740855 0.503246963 0.415417105
vn -0.421678901 0.802728295 0.421680212
vn -0.449012727 -0.21189788 -0.868036211
vn -0.868036747 -0.211897895 -0.449011624
vn 0.449012995 -0.211898044 -0.868035972
vn 0.868035793 -0.211897671 -0.449013621
vn 0.868036091 -0.211897776 0.449013025
vn 0.449012607 -0.211897925 0.868036211
vn -0.449012905 -0.211897939 0.868036091
vn -0.868036747 -0.211897939 0.449011505
vn -0.697149575 -0.167232364 -0.697148323
vn 0.697149873 -0.167232409 -0.697148085
vn 0.697149098 -0.16723226 0.6971488
vn -0.697149873 -0.167232409 0.697148085
vn -0.569796562 0.592173219 -0.569791794
vn 0.569794834 0.592171431 -0.56979531
vn 0.569796681 0.592173517 0.569791496
vn -0.569793582 0.592169821 0.56979841
vn 7.72274618e-08 -0.281252921 -0.959633708
vn 0.976266861 -0.216571048 4.03980039e-07
vn 0.695284545 0.182085976 -0.695286989
vn -0.695284605 0.182086006 -0.695287049
vn -0.959633529 -0.281253427 1.96930023e-06
vn 1.82187165e-07 -0.216571316 0.976266801
vn 0.695284605 0.182086006 0.695287049
vn -0.695284545 0.182085976 0.695286989
vn 4.21882653e-08 0.717884064 -0.696162581
vn -0.696163297 0.717883587 3.83529519e-09
vn 0.696163118 0.717883527 -3.26383361e-06
vn 3.83529608e-09 0.717883885 0.69616282
vn 0 0.261037737 -0.965328574
vn 0.589217424 -0.552846074 0.589223385
vn 0.965328574 0.261037648 0
vn 0 0.261037737 0.965328574
vn -0.965328574 0.261037678 -4.89839138e-08
vn 0 0.99999994 0
vn -0.690988302 -0.212292477 -0.690989792
vn 0.690988719 -0.212292641 -0.690989554
vn 0.690988123 -0.212292418 0.690990031
vn -0.6909886 -0.212292597 0.690989435
vn -7.92118282e-09 -0.216571346 -0.976266861
vn 0.959633589 -0.281253427 -8.37918037e-07
vn -0.976266861 -0.216571078 -1.14064903e-06
vn 1.31286683e-07 -0.281252891 0.959633708
vn -0.705259562 -0.0722283125 -0.705260217
vn -0.849593759 -0.187940046 -0.492817402
vn -0.694570124 -0.187466621 -0.69457078
vn -0.492818981 -0.187940225 -0.849592865
vn 0.492819101 -0.187940359 -0.849592686
vn 0.694570363 -0.187466711 -0.694570482
vn 0.849593937 -0.187940046 -0.492817163
vn 0.705259919 -0.0722283646 -0.705259919
vn 0.84959352 -0.187940016 0.492817879
vn 0.694569886 -0.187466547 0.694570959
vn 0.492818505 -0.18794021 0.849593043
vn 0.705259323 -0.0722282678 0.705260515
vn -0.492818922 -0.1879403 0.849592865
vn -0.694570363 -0.187466711 0.694570482
vn -0.849594414 -0.18794018 0.49281624
vn -0.705259919 -0.0722283646 0.705259919
vn -0.371332228 0.667081833 -0.645843923
vn -0.645846963 0.667080224 -0.371329546
vn -0.631990016 0.448528618 -0.631989419
vn 0.631988347 0.44852674 -0.631992459
vn 0.645847142 0.667080462 -0.37132895
vn 0.371330678 0.667080045 -0.645846546
vn 0.631989598 0.448528141 0.631990254
vn 0.371332228 0.667081773 0.645843923
vn 0.645848095 0.667081654 0.371325225
vn -0.631988347 0.44852674 0.631992459
vn -0.645846486 0.667079568 0.371331483
vn -0.371329665 0.667078555 0.645848691
vn 0.45863381 -0.253083915 -0.851823568
vn 1.24158205e-07 -0.23986803 -0.970805526
vn -0.458633572 -0.253083766 -0.851823747
vn -5.17008942e-08 -0.498756051 -0.866742492
vn 0.970805526 -0.239867702 -8.34187915e-07
vn 0.924837232 -0.0801073238 -0.371831894
vn 0.838996172 0.215747684 -0.499538153
vn 0.499537528 0.215747043 -0.838996768
vn -0.499537468 0.215747014 -0.838996768
vn -0.838996112 0.215747684 -0.499538302
vn -0.851824105 -0.253084302 -0.458632708
vn -0.970805526 -0.239867717 9.3118544e-08
vn -0.85182333 -0.253084064 0.458634317
vn -0.866741061 -0.498758405 -3.61907013e-07
vn 1.20278258e-07 -0.23986803 0.970805526
vn 0.371834099 -0.0801070929 0.924836278
vn 0.499537468 0.215747014 0.838996768
vn 0.838996172 0.215747684 0.499538153
vn -0.838996053 0.215747654 0.499538243
vn -0.499537528 0.215747043 0.838996768
vn 2.71964723e-07 0.567341566 -0.823482573
vn -2.27471475e-07 0.877719223 -0.47917521
vn -0.479174495 0.8777197 0
vn -0.823482275 0.567341983 -7.77042075e-09
vn 0.823482275 0.567341983 0
vn 0.479174614 0.877719641 -3.34147899e-06
vn 0 0.567342401 0.823482037
vn 0 0.877718568 0.479176372
vn 0.371834099 -0.0801070556 -0.924836278
vn -8.53065558e-07 -0.498757362 0.866741598
vn 0.86674124 -0.498758048 0
vn -0.924836516 -0.0801072046 -0.371833652
vn 0.851823509 -0.253084123 -0.458634079
vn 0.851823688 -0.253084153 0.458633602
vn 0.458633512 -0.253083795 0.851823866
vn -0.458633751 -0.253083795 0.851823628
vn -0.924836814 -0.0801072642 0.371832818
vn -0.371834159 -0.0801069885 -0.924836278
vn -0.371833801 -0.0801070184 0.924836516
vn 0.924836934 -0.080107294 0.371832639
vn 0.589217365 -0.552846074 -0.589223325
vn -0.589217424 -0.552846074 -0.589223325
vn -0.589220405 -0.552848935 0.589217663
g prim_bottom
f 5//5 70//70 33//33 67//67
f 67//67 33//33 68//68 6//6
f 33//33 69//69 26//26 68//68
f 70//70 25//25 69//69 33//33
f 1//1 74//74 34//34 71//71
f 71//71 34//34 72//72 27//27
f 34//34 73//73 28//28 72//72
f 74//74 3//3 73//73 34//34
f 7//7 78//78 35//35 75//75
f 75//75 35//35 76//76 29//29
f 35//35 77//77 30//30 76//76
f 78//78 9//9 77//77 35//35
f 10//10 82//82 36//36 79//79
f 79//79 36//36 80//80 31//31
f 36//36 81//81 32//32 80//80
f 82//82 12//12 81//81 36//36
f 2//2 98//98 41//41 95//95
f 95//95 41//41 96//96 27//27
f 41//41 97//97 25//25 96//96
f 98//98 4//4 97//97 41//41
f 3//3 100//100 42//42 73//73
f 73//73 42//42 99//99 28//28
f 42//42 75//75 29//29 99//99
f 134//134 7//7 75//75 42//42
f 4//4 108//108 45//45 105//105
f 105//105 45//45 106//106 26//26
f 45//45 107//107 32//32 106//106
f 108//108 11//11 107//107 45//45
f 9//9 110//110 46//46 77//77
f 77//77 46//46 109//109 30//30
f 46//46 79//79 31//31 109//109
f 133//133 10//10 79//79 46//46
f 25//25 97//97 59//59 69//69
f 26//26 69//69 59//59 105//105
f 4//4 105//105 59//59 97//97
f 27//27 72//72 60//60 95//95
f 2//2 95//95 60//60 127//127
f 28//28 127//127 60//60 72//72
f 29//29 76//76 61//61 128//128
f 8//8 128//128 61//61 129//129
f 30//30 129//129 61//61 76//76
f 31//31 80//80 62//62 130//130
f 11//11 130//130 62//62 107//107
f 32//32 107//107 62//62 80//80
f 27//27 96//96 63//63 71//71
f 71//71 63//63 123//123 1//1
f 63//63 70//70 5//5 132//132
f 96//96 25//25 70//70 63//63
f 28//28 99//99 64//64 127//127
f 127//127 64//64 125//125 2//2
f 64//64 128//128 8//8 125//125
f 99//99 29//29 128//128 64//64
f 26//26 106//106 65//65 68//68
f 68//68 65//65 126//126 6//6
f 65//65 81//81 12//12 131//131
f 106//106 32//32 81//81 65//65
f 30//30 109//109 66//66 129//129
f 129//129 66//66 124//124 8//8
f 66//66 130//130 11//11 124//124
f 109//109 31//31 130//130 66//66
g 
f 14//14 85//85 37//37 83//83
f 15//15 83//83 37//37 84//84
f 13//13 84//84 37//37 85//85
f 16//16 88//88 38//38 86//86
f 17//17 86//86 38//38 87//87
f 18//18 87//87 38//38 88//88
f 19//19 91//91 39//39 89//89
f 20//20 89//89 39//39 90//90
f 21//21 90//90 39//39 91//91
f 22//22 94//94 40//40 92//92
f 23//23 92//92 40//40 93//93
f 24//24 93//93 40//40 94//94
f 1//1 102//102 43//43 74//74
f 74//74 43//43 101//101 3//3
f 43//43 86//86 17//17 101//101
f 102//102 16//16 86//86 43//43
f 6//6 104//104 44//44 67//67
f 67//67 44//44 103//103 5//5
f 44//44 85//85 14//14 103//103
f 104//104 13//13 85//85 44//44
f 7//7 112//112 47//47 78//78
f 78//78 47//47 111//111 9//9
f 47//47 89//89 20//20 111//111
f 112//112 19//19 89//89 47//47
f 10//10 114//114 48//48 82//82
f 82//82 48//48 113//113 12//12
f 48//48 92//92 23//23 113//113
f 114//114 22//22 92//92 48//48
f 15//15 116//116 49//49 83//83
f 83//83 49//49 115//115 14//14
f 49//49 88//88 16//16 115//115
f 116//116 18//18 88//88 49//49
f 13//13 118//118 50//50 84//84
f 84//84 50//50 117//117 15//15
f 50//50 93//93 24//24 117//117
f 118//118 23//23 93//93 50//50
f 18//18 120//120 51//51 87//87
f 87//87 51//51 119//119 17//17
f 51//51 91//91 19//19 119//119
f 120//120 21//21 91//91 51//51
f 21//21 122//122 52//52 90//90
f 90//90 52//52 121//121 20//20
f 52//52 94//94 22//22 121//121
f 122//122 24//24 94//94 52//52
f 5//5 103//103 53//53 132//132
f 123//123 53//53 102//102 1//1
f 53//53 115//115 16//16 102//102
f 103//103 14//14 115//115 53//53
f 2//2 125//125 135//135 98//98
f 98//98 136//136 108//108 4//4
f 137//137 124//124 11//11 108//108
f 125//125 8//8 124//124 54//54
f 3//3 101//101 55//55 100//100
f 134//134 55//55 112//112 7//7
f 55//55 119//119 19//19 112//112
f 101//101 17//17 119//119 55//55
f 9//9 111//111 56//56 110//110
f 133//133 56//56 114//114 10//10
f 56//56 121//121 22//22 114//114
f 111//111 20//20 121//121 56//56
f 6//6 126//126 57//57 104//104
f 104//104 57//57 118//118 13//13
f 57//57 113//113 23//23 118//118
f 131//131 12//12 113//113 57//57
f 15//15 117//117 58//58 116//116
f 116//116 58//58 120//120 18//18
f 58//58 122//122 21//21 120//120
f 117//117 24//24 122//122 58//58
