# File exported by Houdini 17.0.459 (www.sidefx.com)
# 200 points
# 640 vertices
# 160 primitives
# Bounds: [-0.215834409, -4.43175793, -0.215834409] to [0.215834424, -3.68010855, 0.215834409]
g 
v 0.0404369682 -3.92425704 -0.191546649
v 0.024906911 -4.38592434 -0.0249069128
v 0.191546649 -3.92425704 -0.0404369719
v -0.0249069128 -4.38592434 -0.024906911
v -0.0404369719 -3.92425704 -0.191546649
v -0.191546649 -3.92425704 -0.0404369719
v 0.191546649 -3.92425704 0.0404369719
v 0.024906911 -4.38592434 0.0249069128
v 0.0404369719 -3.92425704 0.191546649
v -0.0404369682 -3.92425704 0.191546649
v -0.024906911 -4.38592434 0.0249069128
v -0.191546649 -3.92425704 0.0404369719
v -0.167550981 -3.84995842 -0.0389497317
v -0.0389497355 -3.84995842 -0.167550981
v -0.0389042981 -3.72239947 -0.0389042981
v 0.0389497317 -3.84995842 -0.167550981
v 0.167550981 -3.84995842 -0.0389497317
v 0.0389042981 -3.72239947 -0.0389042981
v 0.167550981 -3.84995842 0.0389497317
v 0.0389497355 -3.84995842 0.167550981
v 0.0389042981 -3.72239947 0.0389042981
v -0.0389497317 -3.84995842 0.167550981
v -0.167550981 -3.84995842 0.0389497317
v -0.0389043018 -3.72239947 0.0389042981
v -0.0261325017 -4.22967434 -0.0902671963
v -0.0902671963 -4.22967434 -0.0261325017
v 0.0261325017 -4.22967434 -0.0902671963
v 0.0902671963 -4.22967434 -0.0261325017
v 0.0902671963 -4.22967434 0.0261325017
v 0.0261325017 -4.22967434 0.0902671963
v -0.0261325017 -4.22967434 0.0902671963
v -0.0902671963 -4.22967434 0.0261325035
v -0.03501077 -4.04232216 -0.154866248
v 0.154866248 -4.04232216 -0.0350107737
v 0.03501077 -4.04232216 0.154866248
v -0.154866248 -4.04232216 0.0350107737
v -0.154866248 -4.04232216 -0.0350107737
v 0.03501077 -4.04232216 -0.154866248
v 0.154866248 -4.04232216 0.0350107737
v -0.03501077 -4.04232216 0.154866248
v -0.110986173 -3.97401619 -0.110986166
v 0.110986166 -3.97401619 -0.110986173
v 0.110986173 -3.97401619 0.110986173
v -0.110986166 -3.97401619 0.110986173
v -0.085192591 -3.80313683 -0.0851925835
v 0.085192591 -3.80313683 -0.0851925835
v 0.085192591 -3.80313683 0.0851925835
v -0.085192591 -3.80313683 0.0851925835
v 0 -4.33175755 -0.0604445301
v 0.200746655 -3.97401619 0
v 0.119129308 -3.89046288 -0.119129308
v -0.119129315 -3.89046288 -0.119129308
v -0.0604445301 -4.33175755 -4.65661287e-10
v 0 -3.97401619 0.200746655
v 0.119129315 -3.89046288 0.119129308
v -0.119129308 -3.89046288 0.119129308
v 0 -3.77237964 -0.115949661
v -0.115949675 -3.77237964 0
v 0.115949668 -3.77237964 0
v 0 -3.77237964 0.115949661
v 0 -3.89046288 -0.215806574
v 0 -4.43175793 0
v 0.215806589 -3.89046288 0
v 0 -3.89046288 0.215806574
v -0.215806574 -3.89046288 0
v 0 -3.68010855 0
v -0.0473715812 -4.29842424 -0.0473715812
v 0.0473715812 -4.29842424 -0.0473715812
v 0.0473715812 -4.29842424 0.0473715812
v -0.0473715812 -4.29842424 0.0473715812
v 0 -4.13175774 -0.138882235
v 0.0604445338 -4.33175755 -4.65661287e-10
v -0.138882235 -4.13175774 4.65661287e-10
v 0 -4.33175755 0.0604445338
v -0.0800539628 -4.13175774 -0.0800539553
v 0.0800539553 -4.13175774 -0.0800539628
v 0.0800539628 -4.13175774 0.0800539553
v -0.0800539553 -4.13175774 0.0800539628
v 0.138882235 -4.13175774 4.65661287e-10
v 0 -4.13175774 0.138882235
v 0 -3.97401619 -0.200746655
v -0.200746655 -3.97401619 0
v -0.118683338 -3.92425704 -0.118683338
v -0.178306535 -3.97401619 -0.0383593813
v -0.0975917205 -4.04232216 -0.0975917205
v -0.0383593813 -3.97401619 -0.178306535
v 0.0383593813 -3.97401619 -0.178306535
v 0.0975917205 -4.04232216 -0.0975917205
v 0.178306535 -3.97401619 -0.038359385
v 0.118683338 -3.92425704 -0.118683338
v 0.178306535 -3.97401619 0.038359385
v 0.0975917205 -4.04232216 0.0975917205
v 0.0383593813 -3.97401619 0.178306535
v 0.118683338 -3.92425704 0.118683338
v -0.0383593813 -3.97401619 0.178306535
v -0.0975917205 -4.04232216 0.0975917205
v -0.178306535 -3.97401619 0.038359385
v -0.118683338 -3.92425704 0.118683338
v -0.0331373475 -3.78006887 -0.108260393
v -0.108260408 -3.78006887 -0.0331373438
v -0.10905531 -3.85572529 -0.109055303
v 0.10905531 -3.85572529 -0.109055303
v 0.108260401 -3.78006887 -0.0331373438
v 0.0331373475 -3.78006887 -0.108260393
v 0.10905531 -3.85572529 0.109055303
v 0.0331373475 -3.78006887 0.108260393
v 0.108260401 -3.78006887 0.0331373438
v -0.10905531 -3.85572529 0.109055303
v -0.108260408 -3.78006887 0.0331373438
v -0.0331373475 -3.78006887 0.108260393
v 0.0224557333 -4.32342434 -0.0571762919
v 0 -4.23175764 -0.0996633768
v -0.0224557333 -4.32342434 -0.0571762919
v 0 -4.40675783 -0.0257239714
v 0.173957765 -4.04232216 1.16415322e-10
v 0.215834424 -3.92425704 0
v 0.191637263 -3.89046288 -0.0410083458
v 0.0410083458 -3.89046288 -0.191637248
v -0.0410083495 -3.89046288 -0.191637248
v -0.191637248 -3.89046288 -0.0410083458
v -0.0571762919 -4.32342434 -0.0224557351
v -0.0996633768 -4.23175764 0
v -0.0571762919 -4.32342434 0.0224557351
v -0.0257239714 -4.40675783 -1.16415322e-10
v 0 -4.04232216 0.173957765
v 0 -3.92425704 0.215834409
v 0.0410083495 -3.89046288 0.191637248
v 0.191637263 -3.89046288 0.0410083458
v -0.191637248 -3.89046288 0.0410083458
v -0.0410083458 -3.89046288 0.191637248
v 0 -3.84803605 -0.187049538
v 0 -3.70317626 -0.0408266149
v -0.0408266187 -3.70317626 0
v -0.187049538 -3.84803605 0
v 0.187049538 -3.84803605 0
v 0.0408266149 -3.70317626 0
v 0 -3.84803605 0.187049538
v 0 -3.70317626 0.0408266149
v 0 -3.92425704 -0.215834409
v 0 -4.40675783 0.0257239714
v 0.0257239714 -4.40675783 -1.16415322e-10
v -0.215834409 -3.92425704 0
v -0.0620786473 -4.22342443 -0.062078651
v 0.0571762919 -4.32342434 -0.0224557351
v 0.0620786473 -4.22342443 -0.0620786548
v 0.0571762919 -4.32342434 0.0224557351
v 0.0224557333 -4.32342434 0.0571762919
v 0.0620786473 -4.22342443 0.062078651
v -0.0224557333 -4.32342434 0.0571762919
v -0.0620786473 -4.22342443 0.0620786548
v 0.0306263268 -4.13175774 -0.124175169
v 0 -4.04232216 -0.173957765
v -0.0306263305 -4.13175774 -0.124175169
v 0.0996633768 -4.23175764 0
v -0.124175169 -4.13175774 -0.0306263287
v -0.173957765 -4.04232216 1.16415322e-10
v -0.124175169 -4.13175774 0.0306263305
v 0 -4.23175764 0.0996633768
v 0.124175161 -4.13175774 -0.0306263305
v 0.124175161 -4.13175774 0.0306263287
v 0.0306263305 -4.13175774 0.124175161
v -0.0306263268 -4.13175774 0.124175161
v -0.173957765 -4.04232216 1.16415322e-10
v 0 -4.04232216 -0.173957765
v -0.215834409 -3.92425704 0
v 0 -3.92425704 -0.215834409
v 0 -3.70317626 0.0408266149
v 0 -3.84803605 0.187049538
v 0.0408266149 -3.70317626 0
v 0.187049538 -3.84803605 0
v -0.187049538 -3.84803605 0
v -0.0408266187 -3.70317626 0
v 0 -3.70317626 -0.0408266149
v 0 -3.84803605 -0.187049538
v 0 -3.92425704 0.215834409
v 0 -4.04232216 0.173957765
v 0.215834424 -3.92425704 0
v 0.173957765 -4.04232216 1.16415322e-10
v -0.200746655 -3.97401619 0
v 0 -3.97401619 -0.200746655
v 0 -4.13175774 0.138882235
v 0.138882235 -4.13175774 4.65661287e-10
v -0.138882235 -4.13175774 4.65661287e-10
v 0 -4.13175774 -0.138882235
v 0 -3.68010855 0
v 0 -3.68010855 0
v 0 -3.68010855 0
v -0.215806574 -3.89046288 0
v 0 -3.89046288 0.215806574
v 0.215806589 -3.89046288 0
v 0 -4.43175793 0
v 0 -4.43175793 0
v 0 -4.43175793 0
v 0 -3.89046288 -0.215806574
v 0 -3.77237964 0.115949661
v 0.115949668 -3.77237964 0
v -0.115949675 -3.77237964 0
v 0 -3.77237964 -0.115949661
v 0 -3.97401619 0.200746655
v 0.200746655 -3.97401619 0
vn 0.594773948 -0.122573324 -0.794493377
vn 0.62719363 -0.461797416 -0.627193093
vn 0.794493377 -0.122573301 -0.594774008
vn -0.627193034 -0.461797088 -0.627194166
vn -0.594773591 -0.122573502 -0.794493616
vn -0.794493496 -0.122573413 -0.594773889
vn 0.794493735 -0.122573465 0.594773531
vn 0.627193809 -0.461797416 0.627193034
vn 0.594773591 -0.122573547 0.794493616
vn -0.59477365 -0.122573167 0.794493616
vn -0.627193749 -0.461797386 0.627193093
vn -0.794493496 -0.122573182 0.594773889
vn -0.694846988 0.52793324 -0.488338143
vn -0.488337308 0.527933836 -0.694847107
vn -0.494667977 0.714568257 -0.49466756
vn 0.488336712 0.52793324 -0.694848001
vn 0.694847524 0.527933836 -0.488336682
vn 0.494668096 0.714568377 -0.494667083
vn 0.694847941 0.527934074 0.488336116
vn 0.488337308 0.527933836 0.694847107
vn 0.494668156 0.714568496 0.494666904
vn -0.488336712 0.52793324 0.694848001
vn -0.694847703 0.527933717 0.488336682
vn -0.494668037 0.714568317 0.494667351
vn -0.487551153 -0.308235645 -0.816874981
vn -0.816875041 -0.308235884 -0.487550974
vn 0.487550765 -0.308235466 -0.816875219
vn 0.816874862 -0.308235765 -0.487551183
vn 0.816875041 -0.308235824 0.487550974
vn 0.487551033 -0.308235526 0.8168751
vn -0.487550884 -0.308235466 0.81687516
vn -0.816874325 -0.308235615 0.487552136
vn -0.55385536 -0.296587169 -0.777997613
vn 0.777996957 -0.296586305 -0.553856671
vn 0.553855062 -0.29658705 0.777997911
vn -0.777997792 -0.296586633 0.553855419
vn -0.777997911 -0.296586663 -0.55385524
vn 0.553854764 -0.296586901 -0.777998149
vn 0.777997553 -0.296586573 0.553855658
vn -0.553854764 -0.296586931 0.777998149
vn -0.685812354 -0.243569076 -0.685810089
vn 0.685811102 -0.243568644 -0.68581146
vn 0.685812056 -0.243568987 0.685810387
vn -0.685811102 -0.243568644 0.68581146
vn -0.57496053 0.582102001 -0.574958861
vn 0.574959219 0.58210063 -0.574961543
vn 0.574959755 0.582101166 0.574960351
vn -0.574960053 0.582101643 0.574959636
vn -2.35744189e-08 -0.394205481 -0.919022322
vn 0.830189705 -0.281518638 0.481177956
vn 0.692825794 0.199967906 -0.692824125
vn -0.692824721 0.199967891 -0.692825079
vn -0.919021904 -0.394206613 0
vn -0.481177807 -0.281518996 0.830189705
vn 0.692824721 0.199967891 0.692825079
vn -0.692825794 0.199967921 0.692824125
vn 0.345427603 0.666852236 -0.660293818
vn -0.660293937 0.666851759 0.345428318
vn 0.660295248 0.666853189 0.345423013
vn -0.345427662 0.666852355 0.660293639
vn -0.4850474 0.25284487 -0.837137103
vn 0.560663879 -0.609352589 0.56066519
vn 0.837135434 0.252844691 -0.485050321
vn 0.4850474 0.25284487 0.837137103
vn -0.837136686 0.252845049 0.485048056
vn -0.430929631 0.792842269 0.430930167
vn -0.674631059 -0.299574077 -0.674631953
vn 0.674632013 -0.299574614 -0.674630761
vn 0.674632013 -0.299574614 0.674630761
vn -0.674632013 -0.299574614 0.674630761
vn -0.406722128 -0.324408382 -0.854011953
vn 0.919021845 -0.394206613 0
vn -0.854010046 -0.324407637 0.406726629
vn -3.14325597e-08 -0.394205451 0.919022262
vn -0.68028456 -0.272816718 -0.680282474
vn 0.680283546 -0.2728163 -0.680283427
vn 0.680283964 -0.272816479 0.680282891
vn -0.680283546 -0.2728163 0.680283546
vn 0.85401082 -0.324407935 0.406724721
vn -0.406722188 -0.324408352 0.854011834
vn -0.481177866 -0.281519026 -0.830189645
vn -0.830189407 -0.281518579 0.481178612
vn -0.702284813 -0.116586156 -0.702284575
vn -0.775605023 -0.264010221 -0.573354602
vn -0.680559456 -0.271440595 -0.680557728
vn -0.573355734 -0.264010608 -0.775604069
vn 0.57335484 -0.26401034 -0.775604725
vn 0.680558741 -0.271440387 -0.680558562
vn 0.775604486 -0.264009982 -0.573355377
vn 0.702284694 -0.116585806 -0.702284813
vn 0.775605023 -0.264010191 0.573354602
vn 0.68055886 -0.271440417 0.680558443
vn 0.573355615 -0.264010608 0.775604188
vn 0.702284753 -0.116586156 0.702284575
vn -0.573354661 -0.26401028 0.775604904
vn -0.680558741 -0.271440387 0.680558562
vn -0.775604606 -0.264010042 0.573355258
vn -0.702284694 -0.116585739 0.702284813
vn -0.450381547 0.634602427 -0.628041565
vn -0.6280424 0.634601355 -0.450381786
vn -0.618834734 0.483827859 -0.618832946
vn 0.618834138 0.483827323 -0.618833959
vn 0.628043115 0.634602129 -0.450379699
vn 0.450380534 0.634601235 -0.628043592
vn 0.618834555 0.48382774 0.618833125
vn 0.45038107 0.634601891 0.6280424
vn 0.628043115 0.634602129 0.450379699
vn -0.618834198 0.483827353 0.618833721
vn -0.628042698 0.634601831 0.450380743
vn -0.4503811 0.634601951 0.62804234
vn 0.484383404 -0.347846776 -0.802729905
vn -7.93577826e-09 -0.354869395 -0.93491596
vn -0.48438257 -0.347846299 -0.80273062
vn 3.42180755e-08 -0.58485651 -0.811136723
vn 0.834212661 -0.317767531 0.450680673
vn 0.852765083 -0.127281114 -0.506548464
vn 0.783711314 0.22754401 -0.577944934
vn 0.577944517 0.227544099 -0.783711612
vn -0.577943325 0.227543995 -0.783712447
vn -0.783711255 0.22754401 -0.577945054
vn -0.802730262 -0.347846866 -0.484382808
vn -0.934915721 -0.354869813 1.02371587e-06
vn -0.802730799 -0.347847164 0.484381765
vn -0.811135888 -0.584857702 0
vn -0.450678825 -0.317768127 0.834213376
vn 0.506548345 -0.127281338 0.852765024
vn 0.577943325 0.227543995 0.783712447
vn 0.783711731 0.227544218 0.577944279
vn -0.78371197 0.227544218 0.577943802
vn -0.577944517 0.227544099 0.783711612
vn 0.387204856 0.565895259 -0.727897584
vn -0.39045915 0.750845075 -0.532703698
vn -0.532704175 0.750844419 0.390459806
vn -0.727895796 0.565894902 -0.387208819
vn 0.727897346 0.565896213 0.387203962
vn 0.532705128 0.750845492 -0.390456349
vn -0.387204856 0.565895259 0.727897584
vn 0.39045915 0.750845075 0.532703698
vn 0.506548345 -0.127281323 -0.852765024
vn 6.8436151e-08 -0.584856451 0.811136723
vn 0.811135948 -0.584857762 8.55452686e-09
vn -0.852764964 -0.127281219 -0.506548643
vn -0.679623127 -0.276089072 -0.679622829
vn 0.80273068 -0.347847164 -0.484381765
vn 0.67962265 -0.276088864 -0.679623365
vn 0.802730799 -0.347847164 0.484381765
vn 0.484383523 -0.347846746 0.802729905
vn 0.679622948 -0.276088953 0.679622948
vn -0.484383494 -0.347846746 0.802729845
vn -0.67962271 -0.276088864 0.679623485
vn 0.528181195 -0.301238745 -0.793901682
vn -0.450678945 -0.317768186 -0.834213257
vn -0.52818197 -0.301239073 -0.793901086
vn 0.934915781 -0.354869843 7.93577914e-09
vn -0.793901086 -0.301238686 -0.52818197
vn -0.834212661 -0.317767531 0.450680673
vn -0.79390049 -0.301238447 0.528183043
vn -1.03165128e-07 -0.354869455 0.9349159
vn 0.793900549 -0.301238477 -0.528182983
vn 0.793901086 -0.301238656 0.528182149
vn 0.528181732 -0.301239014 0.793901324
vn -0.528181136 -0.301238716 0.793901801
vn -0.834212661 -0.317767531 -0.450680643
vn 0.450678825 -0.317768127 -0.834213376
vn -0.852765143 -0.12728098 0.506548166
vn -0.506547868 -0.1272811 -0.852765381
vn -0.39045909 0.750844955 0.532703876
vn 0.387204975 0.565895438 0.727897346
vn 0.532705128 0.750845492 0.390456349
vn 0.727896869 0.565895915 -0.387205392
vn -0.727896869 0.565895617 0.38720569
vn -0.532704175 0.750844419 -0.390459865
vn 0.39045909 0.750844955 -0.532704055
vn -0.387204975 0.565895438 -0.727897346
vn -0.506547809 -0.12728104 0.852765501
vn 0.450678825 -0.317768157 0.834213376
vn 0.852765083 -0.127281159 0.506548464
vn 0.834211409 -0.317767084 -0.450683355
vn -0.830189705 -0.281518668 -0.481177956
vn 0.481178194 -0.281519175 -0.830189407
vn 0.406722456 -0.324408501 0.854011774
vn 0.854010165 -0.324407667 -0.40672648
vn -0.85401088 -0.324407965 -0.406724751
vn 0.406722277 -0.324408501 -0.854011714
vn -0.430929691 0.792842329 -0.430930227
vn 0.43092972 0.792842329 -0.430930227
vn 0.430929691 0.792842329 0.430930227
vn -0.837135315 0.252844691 -0.485050499
vn -0.4850474 0.252844959 0.837137103
vn 0.83713609 0.252845079 0.48504892
vn 0.560663879 -0.609352589 -0.56066519
vn -0.560663879 -0.609352529 -0.56066519
vn -0.560663879 -0.609352589 0.56066519
vn 0.4850474 0.252844959 -0.837137103
vn 0.345427841 0.666852653 0.660293221
vn 0.660295248 0.666853189 -0.345423013
vn -0.6602934 0.666851282 -0.345430046
vn -0.345427841 0.666852653 -0.660293221
vn 0.481178194 -0.281519175 0.830189407
vn 0.830189228 -0.281518459 -0.481178939
g prim_bottom
f 5//5 86//86 41//41 83//83
f 83//83 41//41 84//84 6//6
f 41//41 85//85 37//37 84//84
f 86//86 33//33 85//85 41//41
f 1//1 90//90 42//42 87//87
f 87//87 42//42 88//88 38//38
f 42//42 89//89 34//34 88//88
f 90//90 3//3 89//89 42//42
f 7//7 94//94 43//43 91//91
f 91//91 43//43 92//92 39//39
f 43//43 93//93 35//35 92//92
f 94//94 9//9 93//93 43//43
f 10//10 98//98 44//44 95//95
f 95//95 44//44 96//96 40//40
f 44//44 97//97 36//36 96//96
f 98//98 12//12 97//97 44//44
f 2//2 114//114 49//49 111//111
f 111//111 49//49 112//112 27//27
f 49//49 113//113 25//25 112//112
f 114//114 4//4 113//113 49//49
f 3//3 116//116 200//200 89//89
f 89//89 200//200 178//178 34//34
f 50//50 91//91 39//39 115//115
f 177//177 7//7 91//91 50//50
f 4//4 124//124 53//53 121//121
f 121//121 53//53 122//122 26//26
f 53//53 123//123 32//32 122//122
f 124//124 11//11 123//123 53//53
f 9//9 126//126 199//199 93//93
f 93//93 199//199 176//176 35//35
f 54//54 95//95 40//40 125//125
f 175//175 10//10 95//95 54//54
f 25//25 113//113 67//67 143//143
f 26//26 143//143 67//67 121//121
f 4//4 121//121 67//67 113//113
f 27//27 145//145 68//68 111//111
f 2//2 111//111 68//68 144//144
f 28//28 144//144 68//68 145//145
f 29//29 148//148 69//69 146//146
f 8//8 146//146 69//69 147//147
f 30//30 147//147 69//69 148//148
f 31//31 150//150 70//70 149//149
f 11//11 149//149 70//70 123//123
f 32//32 123//123 70//70 150//150
f 27//27 112//112 184//184 151//151
f 151//151 184//184 164//164 38//38
f 71//71 153//153 33//33 152//152
f 112//112 25//25 153//153 71//71
f 28//28 154//154 72//72 144//144
f 144//144 72//72 141//141 2//2
f 72//72 146//146 8//8 141//141
f 154//154 29//29 146//146 72//72
f 26//26 122//122 183//183 155//155
f 155//155 183//183 163//163 37//37
f 73//73 157//157 36//36 156//156
f 122//122 32//32 157//157 73//73
f 30//30 158//158 74//74 147//147
f 147//147 74//74 140//140 8//8
f 74//74 149//149 11//11 140//140
f 158//158 31//31 149//149 74//74
f 33//33 153//153 75//75 85//85
f 85//85 75//75 155//155 37//37
f 75//75 143//143 26//26 155//155
f 153//153 25//25 143//143 75//75
f 38//38 88//88 76//76 151//151
f 151//151 76//76 145//145 27//27
f 76//76 159//159 28//28 145//145
f 88//88 34//34 159//159 76//76
f 39//39 92//92 77//77 160//160
f 160//160 77//77 148//148 29//29
f 77//77 161//161 30//30 148//148
f 92//92 35//35 161//161 77//77
f 40//40 96//96 78//78 162//162
f 162//162 78//78 150//150 31//31
f 78//78 157//157 32//32 150//150
f 96//96 36//36 157//157 78//78
f 34//34 178//178 182//182 159//159
f 159//159 182//182 154//154 28//28
f 79//79 160//160 29//29 154//154
f 115//115 39//39 160//160 79//79
f 35//35 176//176 181//181 161//161
f 161//161 181//181 158//158 30//30
f 80//80 162//162 31//31 158//158
f 125//125 40//40 162//162 80//80
f 38//38 164//164 180//180 87//87
f 87//87 180//180 139//139 1//1
f 81//81 86//86 5//5 166//166
f 152//152 33//33 86//86 81//81
f 37//37 163//163 179//179 84//84
f 84//84 179//179 142//142 6//6
f 82//82 97//97 12//12 165//165
f 156//156 36//36 97//97 82//82
g 
f 14//14 101//101 45//45 99//99
f 15//15 99//99 45//45 100//100
f 13//13 100//100 45//45 101//101
f 16//16 104//104 46//46 102//102
f 17//17 102//102 46//46 103//103
f 18//18 103//103 46//46 104//104
f 19//19 107//107 47//47 105//105
f 20//20 105//105 47//47 106//106
f 21//21 106//106 47//47 107//107
f 22//22 110//110 48//48 108//108
f 23//23 108//108 48//48 109//109
f 24//24 109//109 48//48 110//110
f 1//1 118//118 51//51 90//90
f 90//90 51//51 117//117 3//3
f 51//51 102//102 17//17 117//117
f 118//118 16//16 102//102 51//51
f 6//6 120//120 52//52 83//83
f 83//83 52//52 119//119 5//5
f 52//52 101//101 14//14 119//119
f 120//120 13//13 101//101 52//52
f 7//7 128//128 55//55 94//94
f 94//94 55//55 127//127 9//9
f 55//55 105//105 20//20 127//127
f 128//128 19//19 105//105 55//55
f 10//10 130//130 56//56 98//98
f 98//98 56//56 129//129 12//12
f 56//56 108//108 23//23 129//129
f 130//130 22//22 108//108 56//56
f 15//15 132//132 198//198 99//99
f 99//99 198//198 174//174 14//14
f 57//57 104//104 16//16 131//131
f 173//173 18//18 104//104 57//57
f 13//13 134//134 197//197 100//100
f 100//100 197//197 172//172 15//15
f 58//58 109//109 24//24 133//133
f 171//171 23//23 109//109 58//58
f 18//18 136//136 196//196 103//103
f 103//103 196//196 170//170 17//17
f 59//59 107//107 19//19 135//135
f 169//169 21//21 107//107 59//59
f 21//21 138//138 195//195 106//106
f 106//106 195//195 168//168 20//20
f 60//60 110//110 22//22 137//137
f 167//167 24//24 110//110 60//60
f 5//5 119//119 61//61 166//166
f 139//139 194//194 118//118 1//1
f 194//194 131//131 16//16 118//118
f 119//119 14//14 174//174 61//61
f 2//2 141//141 191//191 114//114
f 114//114 192//192 124//124 4//4
f 193//193 140//140 11//11 124//124
f 141//141 8//8 140//140 62//62
f 3//3 117//117 63//63 116//116
f 177//177 190//190 128//128 7//7
f 190//190 135//135 19//19 128//128
f 117//117 17//17 170//170 63//63
f 9//9 127//127 64//64 126//126
f 175//175 189//189 130//130 10//10
f 189//189 137//137 22//22 130//130
f 127//127 20//20 168//168 64//64
f 6//6 142//142 188//188 120//120
f 120//120 188//188 134//134 13//13
f 65//65 129//129 23//23 171//171
f 165//165 12//12 129//129 65//65
f 15//15 172//172 185//185 132//132
f 173//173 186//186 136//136 18//18
f 187//187 138//138 21//21 169//169
f 133//133 24//24 167//167 66//66
