# File exported by Houdini 17.0.459 (www.sidefx.com)
# 157 points
# 512 vertices
# 128 primitives
# Bounds: [-0.0476932414, -1.23847723, -0.0476932414] to [0.0476932451, -0.974612951, 0.0476932451]
g 
v 0.0187754557 -1.02350521 -0.0422618389
v 0.0184783824 -1.19264388 -0.0184783824
v 0.0422618389 -1.02350521 -0.0187754557
v -0.0184783824 -1.19264388 -0.0184783824
v -0.0187754557 -1.02350521 -0.0422618389
v -0.0422618389 -1.02350521 -0.0187754557
v 0.0422618389 -1.02350521 0.0187754557
v 0.0184783824 -1.19264388 0.0184783824
v 0.0187754557 -1.02350521 0.0422618389
v -0.0187754557 -1.02350521 0.0422618389
v -0.0184783824 -1.19264388 0.0184783824
v -0.0422618352 -1.02350521 0.0187754557
v -0.0274565611 -0.982695103 -0.0180721488
v -0.0180721469 -0.982695103 -0.027456563
v -0.0179545879 -0.975004673 -0.0179545879
v 0.0180721488 -0.982695103 -0.0274565611
v 0.027456563 -0.982695103 -0.0180721488
v 0.0179545879 -0.975004673 -0.0179545879
v 0.0274565611 -0.982695103 0.0180721488
v 0.0180721469 -0.982695103 0.027456563
v 0.0179545879 -0.975004673 0.0179545879
v -0.0180721488 -0.982695103 0.0274565611
v -0.027456563 -0.982695103 0.0180721488
v -0.0179545879 -0.975004673 0.0179545879
v -0.0184982345 -1.06019354 -0.0411324501
v -0.0411324464 -1.06019354 -0.0184982345
v 0.0184982345 -1.06019354 -0.0411324464
v 0.0411324501 -1.06019354 -0.0184982345
v 0.0411324501 -1.06019354 0.0184982345
v 0.0184982345 -1.06019354 0.0411324501
v -0.0184982345 -1.06019354 0.0411324501
v -0.0411324501 -1.06019354 0.0184982345
v -0.0341440625 -1.03367543 -0.0341440625
v 0.0341440588 -1.03367567 -0.0341440625
v 0.0341440625 -1.03367567 0.0341440588
v -0.0341440588 -1.03367567 0.0341440625
v -0.0242479667 -0.975751877 -0.0242479667
v 0.0242479648 -0.975751877 -0.0242479648
v 0.0242479648 -0.975751877 0.0242479667
v -0.0242479648 -0.975751877 0.0242479648
v 0 -1.13847733 -0.0338263959
v 0.0476932451 -1.03367567 0
v 0.029497236 -1.00259781 -0.029497236
v -0.029497236 -1.00259781 -0.0294972379
v -0.0338263959 -1.13847733 0
v 0 -1.03367567 0.0476932451
v 0.029497236 -1.00259781 0.0294972379
v -0.029497236 -1.00259781 0.029497236
v 0 -0.975467205 -0.0245327484
v -0.0245327465 -0.975467205 0
v 0.0245327465 -0.975467205 0
v 0 -0.975467205 0.0245327484
v 4.65661287e-10 -1.00259781 -0.0368578322
v 0 -1.23847723 0
v 0.0368578322 -1.00259781 0
v -4.65661287e-10 -1.00259781 0.0368578322
v -0.0368578322 -1.00259781 -4.65661287e-10
v 0 -0.974612951 0
v -0.0294158906 -1.10514379 -0.0294158906
v 0.0294158906 -1.10514379 -0.0294158906
v 0.0294158906 -1.10514379 0.0294158906
v -0.0294158906 -1.10514379 0.0294158906
v 0 -1.03367567 -0.0476932414
v 0.0338263959 -1.13847733 0
v -0.0476932414 -1.03367567 0
v 0 -1.13847733 0.0338263959
v -0.0331411883 -1.02350521 -0.0331411883
v -0.0443059467 -1.03367567 -0.0188334547
v -0.0328031853 -1.0539434 -0.0328031853
v -0.0188334547 -1.03367567 -0.0443059467
v 0.0188334547 -1.03367567 -0.0443059467
v 0.0328031853 -1.0539434 -0.0328031853
v 0.0443059504 -1.03367567 -0.0188334547
v 0.0331411883 -1.02350521 -0.0331411883
v 0.0443059504 -1.03367567 0.0188334547
v 0.0328031853 -1.0539434 0.0328031853
v 0.0188334547 -1.03367567 0.0443059504
v 0.0331411883 -1.02350521 0.0331411883
v -0.0188334547 -1.03367567 0.0443059504
v -0.0328031853 -1.0539434 0.0328031853
v -0.0443059467 -1.03367567 0.0188334547
v -0.0331411883 -1.02350521 0.0331411883
v -0.0179011915 -0.975538254 -0.0244615525
v -0.0244615525 -0.975538254 -0.0179011915
v -0.0257026739 -0.98274827 -0.0257026739
v 0.0257026739 -0.98274827 -0.0257026739
v 0.0244615525 -0.975538254 -0.0179011915
v 0.0179011915 -0.975538254 -0.0244615525
v 0.0257026739 -0.98274827 0.0257026739
v 0.0179011915 -0.975538254 0.0244615525
v 0.0244615525 -0.975538254 0.0179011915
v -0.0257026739 -0.98274827 0.0257026739
v -0.0244615525 -0.975538254 0.0179011915
v -0.0179011915 -0.975538254 0.0244615525
v 0.0176514126 -1.13014388 -0.0327237695
v 0 -1.06227684 -0.043908868
v -0.0176514126 -1.13014388 -0.0327237695
v 0 -1.21347713 -0.018754039
v 0.043908868 -1.06227684 0
v 0.0453020521 -1.02350521 0
v 0.0350176841 -1.00259781 -0.0184426289
v 0.0184426289 -1.00259781 -0.0350176841
v -0.018442627 -1.00259781 -0.0350176841
v -0.0350176841 -1.00259781 -0.0184426289
v -0.0327237695 -1.13014388 -0.0176514126
v -0.043908868 -1.06227684 0
v -0.0327237695 -1.13014388 0.0176514126
v -0.018754039 -1.21347713 0
v 0 -1.06227684 0.043908868
v -1.16415322e-10 -1.02350521 0.0453020521
v 0.018442627 -1.00259781 0.0350176841
v 0.0350176841 -1.00259781 0.0184426289
v -0.0350176841 -1.00259781 0.0184426289
v -0.0184426289 -1.00259781 0.0350176841
v 5.82076609e-10 -0.982676983 -0.0280411914
v 0 -0.974826574 -0.0179723874
v -0.0179723874 -0.974826574 0
v -0.0280411914 -0.982676983 -1.16415322e-10
v 0.0280411914 -0.982676983 0
v 0.0179723874 -0.974826574 0
v -5.82076609e-10 -0.982676983 0.0280411914
v 0 -0.974826574 0.0179723874
v 1.16415322e-10 -1.02350521 -0.0453020521
v 0 -1.21347713 0.018754039
v 0.018754039 -1.21347713 0
v -0.0453020521 -1.02350521 -1.16415322e-10
v 0.0327237695 -1.13014388 -0.0176514126
v 0.0327237695 -1.13014388 0.0176514126
v 0.0176514126 -1.13014388 0.0327237695
v -0.0176514126 -1.13014388 0.0327237695
v -0.0179011915 -0.975538254 0.0244615525
v -0.0244615525 -0.975538254 0.0179011915
v -0.0257026739 -0.98274827 0.0257026739
v 0.0244615525 -0.975538254 0.0179011915
v 0.0179011915 -0.975538254 0.0244615525
v 0.0257026739 -0.98274827 0.0257026739
v 0.0179011915 -0.975538254 -0.0244615525
v 0.0244615525 -0.975538254 -0.0179011915
v 0.0257026739 -0.98274827 -0.0257026739
v -0.0257026739 -0.98274827 -0.0257026739
v -0.0244615525 -0.975538254 -0.0179011915
v -0.0179011915 -0.975538254 -0.0244615525
v 0 -1.23847723 0
v 0 -1.23847723 0
v 0 -1.23847723 0
v 0 -0.975467205 0.0245327484
v 0.0245327465 -0.975467205 0
v -0.0245327465 -0.975467205 0
v 0 -0.975467205 -0.0245327484
v -0.0242479648 -0.975751877 0.0242479648
v -0.0242479648 -0.975751877 0.0242479648
v 0.0242479648 -0.975751877 0.0242479667
v 0.0242479648 -0.975751877 0.0242479667
v 0.0242479648 -0.975751877 -0.0242479648
v 0.0242479648 -0.975751877 -0.0242479648
v -0.0242479667 -0.975751877 -0.0242479667
v -0.0242479667 -0.975751877 -0.0242479667
vn 0.333859026 0.249355197 -0.90904361
vn 0.675779283 -0.294353873 -0.675779641
vn 0.909043312 0.249355197 -0.333859444
vn -0.675779343 -0.294353873 -0.675779581
vn -0.333858371 0.249355584 -0.90904367
vn -0.909043312 0.249355584 -0.333859324
vn 0.909043789 0.249355331 0.333858252
vn 0.675779343 -0.294353873 0.675779581
vn 0.333858192 0.249354944 0.909043849
vn -0.333859146 0.249355406 0.909043491
vn -0.675779283 -0.294353873 0.675779641
vn -0.909043789 0.249355271 0.333858401
vn -0.925023735 0.352112472 -0.142646253
vn -0.142646328 0.352112383 -0.925023675
vn -0.0417322218 0.998256862 -0.041734051
vn 0.142646402 0.352112353 -0.925023675
vn 0.925023615 0.352112472 -0.142646477
vn 0.0417322218 0.998256803 -0.0417343862
vn 0.925023675 0.352112412 0.142646268
vn 0.142646328 0.352112383 0.925023675
vn 0.0417322181 0.998256862 0.041734051
vn -0.142646402 0.352112353 0.925023675
vn -0.925023735 0.352112532 0.142646387
vn -0.0417322181 0.998256803 0.0417343862
vn -0.345774263 -0.114900067 -0.931256294
vn -0.931256235 -0.114900067 -0.345773995
vn 0.345774055 -0.114900187 -0.931256235
vn 0.931256354 -0.114900202 -0.345773846
vn 0.931256235 -0.114900246 0.345774323
vn 0.345774144 -0.114900194 0.931256235
vn -0.345774144 -0.114900246 0.931256294
vn -0.931256294 -0.114900179 0.345773935
vn -0.706849456 0.0269493498 -0.70685035
vn 0.706850111 0.0269482844 -0.706849813
vn 0.706849933 0.0269482564 0.706849992
vn -0.706850588 0.0269485544 0.706849456
vn -0.940143883 0.311460316 -0.13828221
vn 0.0591561683 0.996494114 -0.0591625012
vn 0.0591561645 0.996494114 0.0591628477
vn -0.0591561683 0.996494114 0.0591625012
vn -2.65014464e-08 -0.166774541 -0.985995054
vn 0.999017596 0.0443168133 2.95209873e-07
vn 0.676017702 0.293256432 -0.676018298
vn -0.676017761 0.293256551 -0.676018059
vn -0.985995054 -0.166774571 -1.74152348e-07
vn -1.45687963e-07 0.0443165042 0.999017537
vn 0.676017761 0.293256551 0.676018059
vn -0.676017702 0.293256402 0.676018298
vn -6.9850975e-10 0.995983839 -0.0895331949
vn -0.910927474 0.412566483 0
vn 0.0895269588 0.995984435 0
vn 6.9850975e-10 0.995983839 0.0895331949
vn -9.35802991e-10 0.366569996 -0.930390477
vn 0.614275277 -0.495308071 0.614276648
vn 0.930390477 0.366569966 -2.76997696e-07
vn 9.35802991e-10 0.366569996 0.930390477
vn -0.930390418 0.366569936 -5.74582941e-07
vn 2.32858344e-10 1 0
vn -0.701269329 -0.128230438 -0.70126909
vn 0.70126915 -0.128230423 -0.701269269
vn 0.701269329 -0.128230467 0.701269031
vn -0.70126915 -0.128230438 0.701269269
vn -4.21728252e-08 0.0443164408 -0.999017477
vn 0.985994995 -0.166774571 0
vn -0.999017596 0.044316709 7.28439886e-08
vn 1.89296046e-08 -0.166774556 0.985995054
vn -0.690739334 0.213906512 -0.690741003
vn -0.930372894 0.0357288495 -0.364869565
vn -0.703325391 -0.103284694 -0.703324795
vn -0.36486882 0.0357287973 -0.930373192
vn 0.364869386 0.0357281938 -0.930373013
vn 0.703325272 -0.103284925 -0.703324854
vn 0.930372953 0.035728354 -0.364869624
vn 0.690739989 0.213905647 -0.690740705
vn 0.930373073 0.0357284918 0.364869058
vn 0.703324974 -0.103284918 0.703325093
vn 0.364868492 0.035728015 0.930373251
vn 0.690740287 0.213905707 0.690740407
vn -0.364869565 0.0357283801 0.930372894
vn -0.703324974 -0.103284881 0.703325152
vn -0.930373073 0.0357285105 0.364868939
vn -0.690740705 0.213905901 0.69073987
vn -0.0331644826 0.996678293 -0.0743801817
vn -0.928444147 0.363146663 -0.0782051235
vn -0.244473815 0.303023458 -0.921091378
vn 0.921091318 0.303023338 -0.244474307
vn 0.0743741542 0.99667865 -0.0331676826
vn 0.078205362 0.363146842 -0.928443968
vn 0.244473815 0.303023458 0.921091378
vn 0.0331644826 0.996678293 0.0743801817
vn 0.928444088 0.363146544 0.0782055259
vn -0.921091318 0.303023338 0.244474307
vn -0.0743741542 0.99667865 0.0331676826
vn -0.078205362 0.363146842 0.928443968
vn 0.398851007 -0.156040102 -0.903642356
vn -1.88558253e-08 -0.126298621 -0.991992235
vn -0.398851186 -0.156040147 -0.903642237
vn 1.73189907e-08 -0.405889452 -0.91392225
vn 0.991992295 -0.126298755 0
vn 0.958890915 0.283774912 1.13246621e-08
vn 0.909554005 0.326337427 -0.257323593
vn 0.257323176 0.326337397 -0.909554124
vn -0.257323116 0.326337397 -0.909554124
vn -0.909554064 0.326337487 -0.257323444
vn -0.903642297 -0.156040147 -0.398850799
vn -0.991992235 -0.126298696 -3.95972336e-07
vn -0.903642356 -0.156040177 0.398850769
vn -0.913922012 -0.405889779 0
vn 1.50846606e-08 -0.126298681 0.991992235
vn -1.17021528e-07 0.283774972 0.958890855
vn 0.257323116 0.326337397 0.909554124
vn 0.909554064 0.326337487 0.257323056
vn -0.909554064 0.326337427 0.257323146
vn -0.257323176 0.326337397 0.909554124
vn 2.4242814e-08 0.396775693 -0.917915642
vn -2.33021158e-10 0.998736262 -0.0502578355
vn -0.0502571017 0.998736262 0
vn -0.917915463 0.396775991 -2.92778594e-07
vn 0.917915523 0.396775961 -9.32415922e-10
vn 0.0502571017 0.998736262 0
vn -2.4242814e-08 0.396775693 0.917915642
vn 4.66042316e-10 0.998736262 0.0502578355
vn -7.1722873e-08 0.283774853 -0.958890915
vn -2.59784834e-08 -0.405889422 0.913922191
vn 0.913922071 -0.405889779 0
vn -0.958890975 0.283774763 1.13246621e-08
vn 0.903642416 -0.156040192 -0.398850799
vn 0.903642416 -0.156040192 0.39885065
vn 0.398851186 -0.156040132 0.903642237
vn -0.398850977 -0.156040132 0.903642297
vn -0.0331644863 0.996678293 0.0743808672
vn -0.928444028 0.363146782 0.0782054067
vn -0.244473875 0.303023368 0.921091378
vn 0.0743741542 0.99667865 0.033167854
vn 0.0782053694 0.363146991 0.928443968
vn 0.921091437 0.303023189 0.24447386
vn 0.0331644863 0.996678293 -0.0743808672
vn 0.928444088 0.363146782 -0.0782054067
vn 0.244473875 0.303023368 -0.921091378
vn -0.921091616 0.303023249 -0.244473487
vn -0.0743741542 0.99667865 -0.033167854
vn -0.0782053694 0.363146991 -0.928443968
vn 0.614275277 -0.495308071 -0.614276648
vn -0.614275277 -0.495308101 -0.614276648
vn -0.614275277 -0.495308071 0.614276648
vn -5.02992314e-08 0.412566692 0.910927355
vn 0.910927534 0.412566394 -1.86293447e-09
vn -0.0895269588 0.995984435 0
vn 5.02992314e-08 0.412566692 -0.910927355
vn -0.138281971 0.311460704 0.940143764
vn -0.940143764 0.311460704 0.138282791
vn 0.940143824 0.311460286 0.138283029
vn 0.13828209 0.311460793 0.940143764
vn 0.138281971 0.311460704 -0.940143764
vn 0.940143764 0.311460704 -0.138282791
vn -0.13828209 0.311460793 -0.940143764
vn -0.0591561645 0.996494114 -0.0591628477
g prim_bottom
f 5//5 70//70 33//33 67//67
f 67//67 33//33 68//68 6//6
f 33//33 69//69 26//26 68//68
f 70//70 25//25 69//69 33//33
f 1//1 74//74 34//34 71//71
f 71//71 34//34 72//72 27//27
f 34//34 73//73 28//28 72//72
f 74//74 3//3 73//73 34//34
f 7//7 78//78 35//35 75//75
f 75//75 35//35 76//76 29//29
f 35//35 77//77 30//30 76//76
f 78//78 9//9 77//77 35//35
f 10//10 82//82 36//36 79//79
f 79//79 36//36 80//80 31//31
f 36//36 81//81 32//32 80//80
f 82//82 12//12 81//81 36//36
f 2//2 98//98 41//41 95//95
f 95//95 41//41 96//96 27//27
f 41//41 97//97 25//25 96//96
f 98//98 4//4 97//97 41//41
f 3//3 100//100 42//42 73//73
f 73//73 42//42 99//99 28//28
f 42//42 75//75 29//29 99//99
f 100//100 7//7 75//75 42//42
f 4//4 108//108 45//45 105//105
f 105//105 45//45 106//106 26//26
f 45//45 107//107 32//32 106//106
f 108//108 11//11 107//107 45//45
f 9//9 110//110 46//46 77//77
f 77//77 46//46 109//109 30//30
f 46//46 79//79 31//31 109//109
f 110//110 10//10 79//79 46//46
f 25//25 97//97 59//59 69//69
f 26//26 69//69 59//59 105//105
f 4//4 105//105 59//59 97//97
f 27//27 72//72 60//60 95//95
f 2//2 95//95 60//60 127//127
f 28//28 127//127 60//60 72//72
f 29//29 76//76 61//61 128//128
f 8//8 128//128 61//61 129//129
f 30//30 129//129 61//61 76//76
f 31//31 80//80 62//62 130//130
f 11//11 130//130 62//62 107//107
f 32//32 107//107 62//62 80//80
f 27//27 96//96 63//63 71//71
f 71//71 63//63 123//123 1//1
f 63//63 70//70 5//5 123//123
f 96//96 25//25 70//70 63//63
f 28//28 99//99 64//64 127//127
f 127//127 64//64 125//125 2//2
f 64//64 128//128 8//8 125//125
f 99//99 29//29 128//128 64//64
f 26//26 106//106 65//65 68//68
f 68//68 65//65 126//126 6//6
f 65//65 81//81 12//12 126//126
f 106//106 32//32 81//81 65//65
f 30//30 109//109 66//66 129//129
f 129//129 66//66 124//124 8//8
f 66//66 130//130 11//11 124//124
f 109//109 31//31 130//130 66//66
g 
f 14//14 85//85 156//156 142//142
f 15//15 83//83 157//157 141//141
f 13//13 84//84 37//37 140//140
f 16//16 88//88 154//154 139//139
f 17//17 86//86 155//155 138//138
f 18//18 87//87 38//38 137//137
f 19//19 91//91 152//152 136//136
f 20//20 89//89 153//153 135//135
f 21//21 90//90 39//39 134//134
f 22//22 94//94 150//150 133//133
f 23//23 92//92 151//151 132//132
f 24//24 93//93 40//40 131//131
f 1//1 102//102 43//43 74//74
f 74//74 43//43 101//101 3//3
f 43//43 86//86 17//17 101//101
f 102//102 16//16 139//139 43//43
f 6//6 104//104 44//44 67//67
f 67//67 44//44 103//103 5//5
f 44//44 85//85 14//14 103//103
f 104//104 13//13 140//140 44//44
f 7//7 112//112 47//47 78//78
f 78//78 47//47 111//111 9//9
f 47//47 89//89 20//20 111//111
f 112//112 19//19 136//136 47//47
f 10//10 114//114 48//48 82//82
f 82//82 48//48 113//113 12//12
f 48//48 92//92 23//23 113//113
f 114//114 22//22 133//133 48//48
f 15//15 116//116 49//49 83//83
f 142//142 149//149 115//115 14//14
f 149//149 88//88 16//16 115//115
f 116//116 18//18 137//137 49//49
f 13//13 118//118 50//50 84//84
f 141//141 148//148 117//117 15//15
f 148//148 93//93 24//24 117//117
f 118//118 23//23 132//132 50//50
f 18//18 120//120 51//51 87//87
f 138//138 147//147 119//119 17//17
f 147//147 91//91 19//19 119//119
f 120//120 21//21 134//134 51//51
f 21//21 122//122 52//52 90//90
f 135//135 146//146 121//121 20//20
f 146//146 94//94 22//22 121//121
f 122//122 24//24 131//131 52//52
f 5//5 103//103 53//53 123//123
f 123//123 53//53 102//102 1//1
f 53//53 115//115 16//16 102//102
f 103//103 14//14 115//115 53//53
f 2//2 125//125 143//143 98//98
f 98//98 144//144 108//108 4//4
f 145//145 124//124 11//11 108//108
f 125//125 8//8 124//124 54//54
f 3//3 101//101 55//55 100//100
f 100//100 55//55 112//112 7//7
f 55//55 119//119 19//19 112//112
f 101//101 17//17 119//119 55//55
f 9//9 111//111 56//56 110//110
f 110//110 56//56 114//114 10//10
f 56//56 121//121 22//22 114//114
f 111//111 20//20 121//121 56//56
f 6//6 126//126 57//57 104//104
f 104//104 57//57 118//118 13//13
f 57//57 113//113 23//23 118//118
f 126//126 12//12 113//113 57//57
f 15//15 117//117 58//58 116//116
f 116//116 58//58 120//120 18//18
f 58//58 122//122 21//21 120//120
f 117//117 24//24 122//122 58//58
