# File exported by Houdini 17.0.459 (www.sidefx.com)
# 188 points
# 640 vertices
# 160 primitives
# Bounds: [-0.169607729, -4.41434193, -0.169607729] to [0.169607729, -3.77190757, 0.169607729]
g 
v 0.0345590636 -3.95800114 -0.151078373
v 0.023458302 -4.36850882 -0.023458302
v 0.151078373 -3.95800114 -0.0345590636
v -0.023458302 -4.36850882 -0.023458302
v -0.0345590636 -3.95800114 -0.151078373
v -0.151078373 -3.95800114 -0.0345590636
v 0.151078373 -3.95800114 0.0345590636
v 0.023458302 -4.36850882 0.023458302
v 0.0345590636 -3.95800114 0.151078373
v -0.0345590636 -3.95800114 0.151078373
v -0.023458302 -4.36850882 0.023458302
v -0.151078373 -3.95800114 0.0345590636
v -0.128434628 -3.89665198 -0.0331202671
v -0.0331202708 -3.89665198 -0.128434628
v -0.033062648 -3.80251527 -0.033062648
v 0.0331202671 -3.89665198 -0.128434628
v 0.128434628 -3.89665198 -0.0331202671
v 0.033062648 -3.80251527 -0.033062648
v 0.128434628 -3.89665198 0.0331202671
v 0.0331202708 -3.89665198 0.128434628
v 0.033062648 -3.80251527 0.033062648
v -0.0331202671 -3.89665198 0.128434628
v -0.128434628 -3.89665198 0.0331202671
v -0.033062648 -3.80251527 0.033062648
v -0.0245049726 -4.21225882 -0.0800061226
v -0.0800061226 -4.21225882 -0.0245049745
v 0.0245049745 -4.21225882 -0.0800061226
v 0.0800061226 -4.21225882 -0.0245049745
v 0.0800061226 -4.21225882 0.0245049726
v 0.0245049745 -4.21225882 0.0800061226
v -0.0245049726 -4.21225882 0.0800061226
v -0.0800061226 -4.21225882 0.0245049726
v -0.0317809582 -4.03222036 -0.133031383
v 0.133031383 -4.03222036 -0.0317809582
v 0.0317809582 -4.03222036 0.133031383
v -0.133031383 -4.03222036 0.0317809582
v -0.133031383 -4.03222036 -0.0317809582
v 0.0317809582 -4.03222036 -0.133031383
v 0.133031383 -4.03222036 0.0317809582
v -0.0317809582 -4.03222036 0.133031383
v -0.092801407 -3.98585415 -0.0928014144
v 0.092801407 -3.98585415 -0.092801407
v 0.092801407 -3.98585415 0.092801407
v -0.092801407 -3.98585415 0.092801407
v -0.0681986958 -3.86094832 -0.0681986883
v 0.0681986958 -3.86094832 -0.0681986883
v 0.0681986958 -3.86094832 0.0681986883
v -0.0681986958 -3.86094832 0.0681986883
v 0 -4.31434202 -0.05453711
v 0.164559215 -3.98585415 0
v 0.0940155238 -3.93141747 -0.0940155238
v -0.0940155238 -3.93141747 -0.0940155163
v -0.05453711 -4.31434202 0
v 0 -3.98585415 0.164559215
v 0.0940155238 -3.93141747 0.0940155163
v -0.0940155238 -3.93141747 0.0940155238
v 0 -3.83868814 -0.0904588252
v -0.0904588327 -3.83868814 0
v 0.0904588327 -3.83868814 0
v 0 -3.83868814 0.0904588252
v 0 -3.93141747 -0.165670037
v 0 -4.41434193 0
v 0.165670037 -3.93141747 0
v 0 -3.93141747 0.165670037
v -0.165670037 -3.93141747 0
v 0 -3.77190757 0
v -0.0433726087 -4.28100872 -0.0433726087
v 0.0433726087 -4.28100872 -0.0433726087
v 0.0433726087 -4.28100872 0.0433726087
v -0.0433726087 -4.28100872 0.0433726087
v 4.65661287e-10 -4.11434221 -0.12152411
v 0.05453711 -4.31434202 0
v -0.12152411 -4.11434221 -4.65661287e-10
v 0 -4.31434202 0.05453711
v -0.071283862 -4.11434221 -0.071283862
v 0.071283862 -4.11434221 -0.0712838545
v 0.0712838545 -4.11434221 0.071283862
v -0.071283862 -4.11434221 0.0712838545
v 0.12152411 -4.11434221 -4.65661287e-10
v 4.65661287e-10 -4.11434221 0.12152411
v 0 -3.98585415 -0.164559215
v -0.164559215 -3.98585415 0
v -0.0954903364 -3.95800114 -0.0954903364
v -0.146619767 -3.98585415 -0.0337221585
v -0.0850366205 -4.03222036 -0.0850366205
v -0.0337221548 -3.98585415 -0.146619767
v 0.0337221548 -3.98585415 -0.146619767
v 0.0850366205 -4.03222036 -0.0850366205
v 0.146619767 -3.98585415 -0.0337221548
v 0.0954903364 -3.95800114 -0.0954903364
v 0.146619767 -3.98585415 0.0337221548
v 0.0850366205 -4.03222036 0.0850366205
v 0.0337221548 -3.98585415 0.146619767
v 0.0954903364 -3.95800114 0.0954903364
v -0.0337221548 -3.98585415 0.146619767
v -0.0850366205 -4.03222036 0.0850366205
v -0.146619767 -3.98585415 0.0337221548
v -0.0954903364 -3.95800114 0.0954903364
v -0.0288888738 -3.84425306 -0.0848937929
v -0.0848938003 -3.84425306 -0.02888887
v -0.085782975 -3.90082574 -0.0857829601
v 0.085782975 -3.90082574 -0.0857829601
v 0.0848938003 -3.84425306 -0.02888887
v 0.0288888738 -3.84425306 -0.0848937929
v 0.085782975 -3.90082574 0.0857829601
v 0.0288888738 -3.84425306 0.0848937929
v 0.0848938003 -3.84425306 0.02888887
v -0.085782975 -3.90082574 0.0857829601
v -0.0848938003 -3.84425306 0.02888887
v -0.0288888738 -3.84425306 0.0848937929
v 0.0213649571 -4.30600882 -0.051745981
v 1.16415322e-10 -4.21434212 -0.0880306065
v -0.0213649571 -4.30600882 -0.051745981
v 0 -4.38934231 -0.0241560824
v 0.149029642 -4.03222036 -1.16415322e-10
v 0.169607729 -3.95800114 0
v 0.147756413 -3.93141747 -0.0346843824
v 0.0346843824 -3.93141747 -0.147756413
v -0.0346843824 -3.93141747 -0.147756398
v -0.147756413 -3.93141747 -0.0346843824
v -0.051745981 -4.30600882 -0.0213649571
v -0.0880306065 -4.21434212 -1.16415322e-10
v -0.051745981 -4.30600882 0.0213649571
v -0.0241560824 -4.38934231 0
v 1.16415322e-10 -4.03222036 0.149029642
v 0 -3.95800114 0.169607729
v 0.0346843824 -3.93141747 0.147756398
v 0.147756413 -3.93141747 0.0346843824
v -0.147756413 -3.93141747 0.0346843824
v -0.0346843824 -3.93141747 0.147756413
v 0 -3.89526057 -0.142651841
v 0 -3.78860283 -0.0344539061
v -0.0344539061 -3.78860283 0
v -0.142651856 -3.89526057 0
v 0.142651856 -3.89526057 0
v 0.0344539061 -3.78860283 0
v 0 -3.89526057 0.142651841
v 0 -3.78860283 0.0344539061
v 0 -3.95800114 -0.169607729
v 0 -4.38934231 0.0241560824
v 0.0241560824 -4.38934231 0
v -0.169607729 -3.95800114 0
v -0.0559326746 -4.20600891 -0.0559326746
v 0.0517459884 -4.30600882 -0.0213649571
v 0.0559326746 -4.20600891 -0.0559326708
v 0.0517459884 -4.30600882 0.0213649571
v 0.0213649571 -4.30600882 0.0517459884
v 0.0559326708 -4.20600891 0.0559326746
v -0.0213649571 -4.30600882 0.0517459884
v -0.0559326746 -4.20600891 0.0559326708
v 0.0283427704 -4.11434221 -0.108964048
v 1.16415322e-10 -4.03222036 -0.149029642
v -0.0283427704 -4.11434221 -0.108964056
v 0.0880306065 -4.21434212 -1.16415322e-10
v -0.108964056 -4.11434221 -0.0283427704
v -0.149029642 -4.03222036 -1.16415322e-10
v -0.108964056 -4.11434221 0.0283427685
v 1.16415322e-10 -4.21434212 0.0880306065
v 0.108964041 -4.11434221 -0.0283427685
v 0.108964041 -4.11434221 0.0283427704
v 0.0283427685 -4.11434221 0.108964041
v -0.0283427704 -4.11434221 0.108964041
v -0.149029642 -4.03222036 -1.16415322e-10
v 1.16415322e-10 -4.03222036 -0.149029642
v -0.169607729 -3.95800114 0
v 0 -3.95800114 -0.169607729
v 0 -3.95800114 0.169607729
v 1.16415322e-10 -4.03222036 0.149029642
v 0.169607729 -3.95800114 0
v 0.149029642 -4.03222036 -1.16415322e-10
v -0.164559215 -3.98585415 0
v 0 -3.98585415 -0.164559215
v 4.65661287e-10 -4.11434221 0.12152411
v 0.12152411 -4.11434221 -4.65661287e-10
v -0.12152411 -4.11434221 -4.65661287e-10
v 4.65661287e-10 -4.11434221 -0.12152411
v 0 -3.77190757 0
v 0 -3.77190757 0
v 0 -3.77190757 0
v -0.165670037 -3.93141747 0
v 0 -3.93141747 0.165670037
v 0.165670037 -3.93141747 0
v 0 -4.41434193 0
v 0 -4.41434193 0
v 0 -4.41434193 0
v 0 -3.93141747 -0.165670037
v 0 -3.98585415 0.164559215
v 0.164559215 -3.98585415 0
vn 0.575349092 -0.0227171239 -0.817592382
vn 0.638834774 -0.428697169 -0.638834
vn 0.817591667 -0.0227170251 -0.575350165
vn -0.638834 -0.428696662 -0.638835073
vn -0.575348973 -0.0227168631 -0.817592502
vn -0.817592263 -0.0227170195 -0.575349331
vn 0.817593038 -0.022717094 0.575348198
vn 0.63883394 -0.428696752 0.638834953
vn 0.575349748 -0.0227170978 0.817592025
vn -0.575348616 -0.0227169693 0.81759274
vn -0.638834655 -0.42869699 0.638834357
vn -0.817592382 -0.0227169711 0.575349212
vn -0.717714667 0.51947403 -0.463715881
vn -0.463717282 0.519474685 -0.717713177
vn -0.47103861 0.745819509 -0.47103703
vn 0.463716835 0.519474268 -0.717713833
vn 0.717714369 0.519473851 -0.463716388
vn 0.47103861 0.745819569 -0.471036851
vn 0.717713952 0.519473553 0.463717371
vn 0.463717282 0.519474685 0.717713177
vn 0.47103864 0.745819509 0.47103703
vn -0.463716835 0.519474268 0.717713833
vn -0.717713714 0.519473493 0.463717908
vn -0.47103861 0.745819569 0.471036851
vn -0.475767463 -0.268848479 -0.837475896
vn -0.83747679 -0.268848211 -0.475765944
vn 0.475767463 -0.268848479 -0.837475896
vn 0.837476313 -0.268847942 -0.475767076
vn 0.837476432 -0.268848062 0.475766659
vn 0.475767076 -0.2688483 0.837476254
vn -0.475767702 -0.268848509 0.837475717
vn -0.83747673 -0.268848181 0.475766093
vn -0.543128788 -0.259055734 -0.798687279
vn 0.798687756 -0.259056181 -0.543127716
vn 0.543129146 -0.259055912 0.798686862
vn -0.798686624 -0.259055763 0.543129504
vn -0.79868716 -0.259055942 -0.543128848
vn 0.543128908 -0.259055823 -0.79868716
vn 0.7986871 -0.259055942 0.543128848
vn -0.543128788 -0.259055763 0.79868722
vn -0.694816709 -0.185627431 -0.694818199
vn 0.694816232 -0.185627356 -0.694818676
vn 0.694817424 -0.185627654 0.694817424
vn -0.694816232 -0.185627356 0.694818676
vn -0.57359004 0.584796309 -0.573592007
vn 0.573589802 0.584796011 -0.573592484
vn 0.57359004 0.584796309 0.573592007
vn -0.573589802 0.584796011 0.573592484
vn 7.02597163e-08 -0.3482849 -0.937388659
vn 0.863909185 -0.21683839 0.454578936
vn 0.68700397 0.23675774 -0.687001765
vn -0.687003851 0.23675777 -0.687001884
vn -0.937389016 -0.348284125 -2.81038695e-07
vn -0.454577088 -0.2168383 0.863910198
vn 0.687003851 0.23675777 0.687001884
vn -0.68700397 0.23675774 0.687001765
vn -1.48579318e-07 0.712540925 -0.701630533
vn -0.701630056 0.712541461 -7.81997134e-09
vn 0.701630056 0.712541401 -7.81997134e-09
vn 1.48579318e-07 0.712540925 0.701630533
vn -0.430957556 0.304774076 -0.849345744
vn 0.572799981 -0.586340964 0.572804093
vn 0.849348307 0.304772794 -0.430953443
vn 0.430957556 0.304774076 0.849345744
vn -0.849348068 0.304772288 0.430954397
vn -0.387279004 0.836682916 0.387268245
vn -0.682123244 -0.263475418 -0.682120562
vn 0.682122231 -0.263474911 -0.682121813
vn 0.682121873 -0.263474822 0.682122111
vn -0.682123363 -0.263475388 0.682120562
vn -0.38478604 -0.284208536 -0.878160179
vn 0.937388957 -0.348284155 2.49812103e-07
vn -0.878160417 -0.284208864 0.384785146
vn 1.17099532e-07 -0.34828493 0.937388659
vn -0.687110126 -0.236130401 -0.687111378
vn 0.687110782 -0.23613064 -0.687110722
vn 0.687110126 -0.236130446 0.687111437
vn -0.687110364 -0.236130491 0.68711108
vn 0.878160417 -0.284208864 0.384785146
vn -0.384786189 -0.284208536 0.878160059
vn -0.454577088 -0.2168383 -0.863910198
vn -0.863908827 -0.216838285 0.45457983
vn -0.706858814 -0.0265100915 -0.706857681
vn -0.801766455 -0.202710301 -0.562209189
vn -0.687333524 -0.234829426 -0.687333703
vn -0.56220752 -0.20271033 -0.801767647
vn 0.562207818 -0.202710524 -0.801767349
vn 0.687333703 -0.234829471 -0.687333584
vn 0.801766574 -0.20271036 -0.56220901
vn 0.706858337 -0.0265101213 -0.706858218
vn 0.801766694 -0.20271042 0.562208891
vn 0.687333822 -0.23482953 0.687333465
vn 0.562208593 -0.202710718 0.801766753
vn 0.70685941 -0.0265102796 0.706857145
vn -0.562207162 -0.202710256 0.801767886
vn -0.687333703 -0.234829456 0.687333584
vn -0.801766098 -0.202710211 0.562209845
vn -0.706858337 -0.0265101213 0.706858218
vn -0.422468156 0.646091878 -0.635677576
vn -0.635676622 0.646091402 -0.422470123
vn -0.624094963 0.470115066 -0.624097168
vn 0.624094844 0.470114887 -0.624097526
vn 0.635676622 0.646091402 -0.422470093
vn 0.422467828 0.646091461 -0.635678113
vn 0.624094963 0.470115066 0.624097168
vn 0.422468156 0.646091878 0.635677576
vn 0.635676622 0.646091402 0.422470123
vn -0.624094844 0.470114887 0.624097526
vn -0.635676622 0.646091402 0.422470093
vn -0.422467828 0.646091461 0.635678113
vn 0.476537466 -0.309264004 -0.822962701
vn 3.93532495e-08 -0.307834208 -0.951439917
vn -0.476538599 -0.309264421 -0.822961986
vn 1.20164302e-07 -0.55046916 -0.834855556
vn 0.86014688 -0.279024571 0.426957577
vn 0.883351684 -0.0185820051 -0.468342185
vn 0.793108165 0.272806108 -0.54456985
vn 0.544572771 0.272806585 -0.7931059
vn -0.544573009 0.272806644 -0.7931059
vn -0.793108821 0.272806317 -0.544568896
vn -0.822963059 -0.309263855 -0.476537049
vn -0.951439977 -0.307834208 1.49542274e-07
vn -0.822963238 -0.309263945 0.47653681
vn -0.834855139 -0.550469637 -1.09864641e-06
vn -0.426957607 -0.279024631 0.860146761
vn 0.46833992 -0.0185819138 0.883352876
vn 0.544573009 0.272806644 0.7931059
vn 0.793108463 0.272805929 0.544569433
vn -0.793107927 0.27280581 0.544570208
vn -0.544572771 0.272806585 0.7931059
vn -2.70936027e-07 0.596821606 -0.802373946
vn 4.00927433e-08 0.83837682 -0.545091033
vn -0.545093894 0.838375092 0
vn -0.802375972 0.596818805 2.21529694e-06
vn 0.802375972 0.596818864 1.10764859e-06
vn 0.545093894 0.838375092 0
vn 2.70936027e-07 0.596821606 0.802373946
vn -4.00927433e-08 0.83837682 0.545091033
vn 0.468339741 -0.0185820293 -0.883352995
vn 1.20164302e-07 -0.55046916 0.834855556
vn 0.834855258 -0.550469637 1.0900626e-06
vn -0.88335228 -0.0185819343 -0.468341142
vn -0.686549544 -0.239377275 -0.686548114
vn 0.822963238 -0.309263945 -0.476536989
vn 0.686549664 -0.239377245 -0.686547935
vn 0.82296294 -0.309263855 0.476537466
vn 0.476537228 -0.309263885 0.822962999
vn 0.686549067 -0.239377081 0.686548591
vn -0.476538658 -0.309264481 0.822962046
vn -0.686549723 -0.239377305 0.686547995
vn 0.517928183 -0.262841702 -0.814042032
vn -0.426957607 -0.279024601 -0.860146761
vn -0.517927468 -0.262841463 -0.814042628
vn 0.951440096 -0.307834148 -7.47711908e-07
vn -0.81404233 -0.26284188 -0.517927825
vn -0.860146046 -0.279024273 0.426959544
vn -0.814042389 -0.26284188 0.517927825
vn 1.02318459e-07 -0.307834208 0.951439977
vn 0.814042687 -0.262842 -0.517927349
vn 0.814042211 -0.262841821 0.517928183
vn 0.517927885 -0.262841582 0.814042389
vn -0.517927825 -0.262841582 0.814042389
vn -0.86014688 -0.279024541 -0.426957577
vn 0.426957846 -0.27902475 -0.860146642
vn -0.883352876 -0.0185818803 0.468340129
vn -0.468338996 -0.0185816046 -0.883353472
vn -0.468338817 -0.0185817219 0.883353591
vn 0.426957846 -0.27902478 0.860146642
vn 0.883353233 -0.0185818728 0.468339354
vn 0.860147655 -0.279024899 -0.426955611
vn -0.863909245 -0.21683836 -0.454578936
vn 0.454578489 -0.216838881 -0.863909364
vn 0.384786159 -0.284208536 0.878160119
vn 0.878160894 -0.284209043 -0.384784043
vn -0.878160417 -0.284208894 -0.384785146
vn 0.38478601 -0.284208536 -0.878160179
vn -0.387279004 0.836682916 -0.387268245
vn 0.387279004 0.836682916 -0.387268245
vn 0.387279004 0.836682916 0.387268245
vn -0.84934932 0.304773152 -0.430951387
vn -0.430957258 0.304774106 0.849345982
vn 0.849348962 0.304772496 0.430952668
vn 0.572799981 -0.586340964 -0.572804093
vn -0.572799981 -0.586340964 -0.572804093
vn -0.572799981 -0.586340964 0.572804093
vn 0.430957258 0.304774106 -0.849345982
vn 0.454578489 -0.216838911 0.863909364
vn 0.863909602 -0.216838509 -0.454578131
g prim_bottom
f 5//5 86//86 41//41 83//83
f 83//83 41//41 84//84 6//6
f 41//41 85//85 37//37 84//84
f 86//86 33//33 85//85 41//41
f 1//1 90//90 42//42 87//87
f 87//87 42//42 88//88 38//38
f 42//42 89//89 34//34 88//88
f 90//90 3//3 89//89 42//42
f 7//7 94//94 43//43 91//91
f 91//91 43//43 92//92 39//39
f 43//43 93//93 35//35 92//92
f 94//94 9//9 93//93 43//43
f 10//10 98//98 44//44 95//95
f 95//95 44//44 96//96 40//40
f 44//44 97//97 36//36 96//96
f 98//98 12//12 97//97 44//44
f 2//2 114//114 49//49 111//111
f 111//111 49//49 112//112 27//27
f 49//49 113//113 25//25 112//112
f 114//114 4//4 113//113 49//49
f 3//3 116//116 188//188 89//89
f 89//89 188//188 170//170 34//34
f 50//50 91//91 39//39 115//115
f 169//169 7//7 91//91 50//50
f 4//4 124//124 53//53 121//121
f 121//121 53//53 122//122 26//26
f 53//53 123//123 32//32 122//122
f 124//124 11//11 123//123 53//53
f 9//9 126//126 187//187 93//93
f 93//93 187//187 168//168 35//35
f 54//54 95//95 40//40 125//125
f 167//167 10//10 95//95 54//54
f 25//25 113//113 67//67 143//143
f 26//26 143//143 67//67 121//121
f 4//4 121//121 67//67 113//113
f 27//27 145//145 68//68 111//111
f 2//2 111//111 68//68 144//144
f 28//28 144//144 68//68 145//145
f 29//29 148//148 69//69 146//146
f 8//8 146//146 69//69 147//147
f 30//30 147//147 69//69 148//148
f 31//31 150//150 70//70 149//149
f 11//11 149//149 70//70 123//123
f 32//32 123//123 70//70 150//150
f 27//27 112//112 176//176 151//151
f 151//151 176//176 164//164 38//38
f 71//71 153//153 33//33 152//152
f 112//112 25//25 153//153 71//71
f 28//28 154//154 72//72 144//144
f 144//144 72//72 141//141 2//2
f 72//72 146//146 8//8 141//141
f 154//154 29//29 146//146 72//72
f 26//26 122//122 175//175 155//155
f 155//155 175//175 163//163 37//37
f 73//73 157//157 36//36 156//156
f 122//122 32//32 157//157 73//73
f 30//30 158//158 74//74 147//147
f 147//147 74//74 140//140 8//8
f 74//74 149//149 11//11 140//140
f 158//158 31//31 149//149 74//74
f 33//33 153//153 75//75 85//85
f 85//85 75//75 155//155 37//37
f 75//75 143//143 26//26 155//155
f 153//153 25//25 143//143 75//75
f 38//38 88//88 76//76 151//151
f 151//151 76//76 145//145 27//27
f 76//76 159//159 28//28 145//145
f 88//88 34//34 159//159 76//76
f 39//39 92//92 77//77 160//160
f 160//160 77//77 148//148 29//29
f 77//77 161//161 30//30 148//148
f 92//92 35//35 161//161 77//77
f 40//40 96//96 78//78 162//162
f 162//162 78//78 150//150 31//31
f 78//78 157//157 32//32 150//150
f 96//96 36//36 157//157 78//78
f 34//34 170//170 174//174 159//159
f 159//159 174//174 154//154 28//28
f 79//79 160//160 29//29 154//154
f 115//115 39//39 160//160 79//79
f 35//35 168//168 173//173 161//161
f 161//161 173//173 158//158 30//30
f 80//80 162//162 31//31 158//158
f 125//125 40//40 162//162 80//80
f 38//38 164//164 172//172 87//87
f 87//87 172//172 139//139 1//1
f 81//81 86//86 5//5 166//166
f 152//152 33//33 86//86 81//81
f 37//37 163//163 171//171 84//84
f 84//84 171//171 142//142 6//6
f 82//82 97//97 12//12 165//165
f 156//156 36//36 97//97 82//82
g 
f 14//14 101//101 45//45 99//99
f 15//15 99//99 45//45 100//100
f 13//13 100//100 45//45 101//101
f 16//16 104//104 46//46 102//102
f 17//17 102//102 46//46 103//103
f 18//18 103//103 46//46 104//104
f 19//19 107//107 47//47 105//105
f 20//20 105//105 47//47 106//106
f 21//21 106//106 47//47 107//107
f 22//22 110//110 48//48 108//108
f 23//23 108//108 48//48 109//109
f 24//24 109//109 48//48 110//110
f 1//1 118//118 51//51 90//90
f 90//90 51//51 117//117 3//3
f 51//51 102//102 17//17 117//117
f 118//118 16//16 102//102 51//51
f 6//6 120//120 52//52 83//83
f 83//83 52//52 119//119 5//5
f 52//52 101//101 14//14 119//119
f 120//120 13//13 101//101 52//52
f 7//7 128//128 55//55 94//94
f 94//94 55//55 127//127 9//9
f 55//55 105//105 20//20 127//127
f 128//128 19//19 105//105 55//55
f 10//10 130//130 56//56 98//98
f 98//98 56//56 129//129 12//12
f 56//56 108//108 23//23 129//129
f 130//130 22//22 108//108 56//56
f 15//15 132//132 57//57 99//99
f 99//99 57//57 131//131 14//14
f 57//57 104//104 16//16 131//131
f 132//132 18//18 104//104 57//57
f 13//13 134//134 58//58 100//100
f 100//100 58//58 133//133 15//15
f 58//58 109//109 24//24 133//133
f 134//134 23//23 109//109 58//58
f 18//18 136//136 59//59 103//103
f 103//103 59//59 135//135 17//17
f 59//59 107//107 19//19 135//135
f 136//136 21//21 107//107 59//59
f 21//21 138//138 60//60 106//106
f 106//106 60//60 137//137 20//20
f 60//60 110//110 22//22 137//137
f 138//138 24//24 110//110 60//60
f 5//5 119//119 61//61 166//166
f 139//139 186//186 118//118 1//1
f 186//186 131//131 16//16 118//118
f 119//119 14//14 131//131 61//61
f 2//2 141//141 183//183 114//114
f 114//114 184//184 124//124 4//4
f 185//185 140//140 11//11 124//124
f 141//141 8//8 140//140 62//62
f 3//3 117//117 63//63 116//116
f 169//169 182//182 128//128 7//7
f 182//182 135//135 19//19 128//128
f 117//117 17//17 135//135 63//63
f 9//9 127//127 64//64 126//126
f 167//167 181//181 130//130 10//10
f 181//181 137//137 22//22 130//130
f 127//127 20//20 137//137 64//64
f 6//6 142//142 180//180 120//120
f 120//120 180//180 134//134 13//13
f 65//65 129//129 23//23 134//134
f 165//165 12//12 129//129 65//65
f 15//15 133//133 177//177 132//132
f 132//132 178//178 136//136 18//18
f 179//179 138//138 21//21 136//136
f 133//133 24//24 138//138 66//66
