# File exported by Houdini 17.0.459 (www.sidefx.com)
# 212 points
# 640 vertices
# 160 primitives
# Bounds: [-0.329571784, -1.55023623, -0.329571784] to [0.329571784, -0.675137043, 0.329571784]
g 
v 0.0543679819 -1.03586006 -0.286183238
v 0.0301701296 -1.50440288 -0.0301701296
v 0.286183238 -1.03586006 -0.0543679781
v -0.0301701296 -1.50440264 -0.0301701296
v -0.0543679781 -1.03586006 -0.286183238
v -0.286183238 -1.03586006 -0.0543679819
v 0.286183238 -1.03586006 0.0543679819
v 0.0301701296 -1.50440311 0.0301701296
v 0.0543679781 -1.03586006 0.286183238
v -0.0543679819 -1.03586006 0.286183238
v -0.0301701296 -1.50440264 0.0301701296
v -0.286183238 -1.03586006 0.0543679781
v -0.256845325 -0.948110819 -0.0522855781
v -0.0522855744 -0.948110819 -0.256845355
v -0.0522695296 -0.744158506 -0.0522695296
v 0.0522855781 -0.94811058 -0.256845325
v 0.256845355 -0.948110819 -0.0522855744
v 0.0522695296 -0.744158506 -0.0522695333
v 0.256845325 -0.94811058 0.0522855781
v 0.0522855744 -0.948110819 0.256845355
v 0.0522695333 -0.744158506 0.0522695296
v -0.0522855781 -0.94811058 0.256845325
v -0.256845355 -0.948110819 0.0522855744
v -0.0522695296 -0.744158506 0.0522695333
v -0.0320342109 -1.34815288 -0.127010196
v -0.127010196 -1.34815288 -0.0320342109
v 0.0320342109 -1.34815288 -0.127010196
v 0.127010196 -1.34815288 -0.0320342109
v 0.127010196 -1.34815288 0.0320342109
v 0.0320342109 -1.34815288 0.127010196
v -0.0320342109 -1.34815288 0.127010196
v -0.127010196 -1.34815288 0.0320342109
v -0.045612637 -1.15979671 -0.225787371
v 0.225787371 -1.15979671 -0.045612637
v 0.045612637 -1.15979671 0.225787371
v -0.225787371 -1.15979671 0.045612637
v -0.225787356 -1.15979671 -0.045612637
v 0.045612637 -1.15979671 -0.225787356
v 0.225787356 -1.15979671 0.045612637
v -0.045612637 -1.15979671 0.225787356
v -0.159720972 -1.08847809 -0.159720957
v 0.159720972 -1.08847809 -0.159720957
v 0.159720957 -1.08847809 0.159720972
v -0.159720972 -1.08847809 0.159720957
v -0.124073252 -0.875926733 -0.12407326
v 0.12407326 -0.875926495 -0.12407326
v 0.12407326 -0.875926495 0.12407326
v -0.12407326 -0.875926495 0.12407326
v 0 -1.45023632 -0.0816508681
v 0.297441661 -1.08847809 0
v 0.176205575 -1.00152111 -0.176205561
v -0.176205561 -1.00152111 -0.176205575
v -0.0816508681 -1.45023632 0
v 0 -1.08847809 0.297441661
v 0.176205561 -1.00152111 0.176205575
v -0.176205575 -1.00152111 0.176205561
v 0 -0.82572937 -0.174270689
v -0.174270675 -0.82572937 0
v 0.174270689 -0.82572937 0
v 0 -0.82572937 0.174270689
v 0 -1.00152111 -0.329571784
v 0 -1.55023623 0
v 0.329571784 -1.00152111 0
v 0 -1.00152111 0.329571784
v -0.329571784 -1.00152111 0
v 0 -0.675137043 0
v -0.061767336 -1.41690278 -0.061767336
v 0.0617673397 -1.41690278 -0.061767336
v 0.061767336 -1.41690278 0.0617673397
v -0.0617673397 -1.41690278 0.061767336
v 4.65661287e-10 -1.25023603 -0.200952113
v 0.0816508755 -1.45023632 0
v -0.200952113 -1.25023603 -4.65661287e-10
v 0 -1.45023632 0.0816508755
v -0.111476175 -1.25023603 -0.111476175
v 0.111476183 -1.25023603 -0.111476175
v 0.111476175 -1.25023603 0.111476183
v -0.111476183 -1.25023603 0.111476175
v 0.200952098 -1.25023603 -4.65661287e-10
v 4.65661287e-10 -1.25023603 0.200952098
v 0 -1.08847809 -0.297441661
v -0.297441661 -1.08847809 0
v -0.173051864 -1.03585982 -0.173051849
v -0.263011485 -1.08847809 -0.0509303696
v -0.138450027 -1.15979671 -0.138450027
v -0.0509303734 -1.08847809 -0.263011485
v 0.0509303734 -1.08847809 -0.263011485
v 0.138450027 -1.15979671 -0.138450027
v 0.263011485 -1.08847809 -0.0509303696
v 0.173051864 -1.03585982 -0.173051849
v 0.263011485 -1.08847809 0.0509303734
v 0.138450027 -1.15979671 0.138450027
v 0.0509303696 -1.08847809 0.263011485
v 0.173051849 -1.03585982 0.173051864
v -0.0509303734 -1.08847809 0.263011485
v -0.138450027 -1.15979671 0.138450027
v -0.263011485 -1.08847809 0.0509303696
v -0.173051864 -1.03585982 0.173051849
v -0.0428575128 -0.83827877 -0.161721319
v -0.161721319 -0.83827877 -0.0428575128
v -0.16220504 -0.957522869 -0.16220504
v 0.16220504 -0.957522631 -0.16220504
v 0.161721319 -0.83827877 -0.0428575128
v 0.0428575128 -0.83827877 -0.161721319
v 0.16220504 -0.957522631 0.16220504
v 0.0428575128 -0.83827877 0.161721319
v 0.161721319 -0.83827877 0.0428575128
v -0.16220504 -0.957522631 0.16220504
v -0.161721319 -0.83827877 0.0428575128
v -0.0428575128 -0.83827877 0.161721319
v 0.0264419671 -1.44190288 -0.0766799897
v 1.16415322e-10 -1.35023618 -0.141301483
v -0.0264419653 -1.44190288 -0.0766799897
v 0 -1.52523613 -0.0314128473
v 0.2548998 -1.15979671 -1.16415322e-10
v 0.323893666 -1.03585982 0
v 0.291230232 -1.00152111 -0.0554710552
v 0.0554710589 -1.00152111 -0.291230232
v -0.0554710552 -1.00152111 -0.291230232
v -0.291230232 -1.00152111 -0.0554710589
v -0.0766799897 -1.44190288 -0.0264419653
v -0.141301483 -1.35023618 -1.16415322e-10
v -0.0766799897 -1.44190288 0.0264419653
v -0.0314128473 -1.52523613 0
v 1.16415322e-10 -1.15979671 0.2548998
v 0 -1.03585982 0.323893666
v 0.0554710552 -1.00152111 0.291230232
v 0.291230232 -1.00152111 0.0554710589
v -0.291230232 -1.00152111 0.0554710552
v -0.0554710589 -1.00152111 0.291230232
v 0 -0.944973469 -0.288392097
v 0 -0.712785244 -0.0554068722
v -0.0554068685 -0.712785244 0
v -0.288392097 -0.944973469 0
v 0.288392097 -0.944973469 0
v 0.0554068722 -0.712785244 0
v 0 -0.944973469 0.288392097
v 0 -0.712785244 0.0554068722
v 0 -1.03586006 -0.323893666
v 0 -1.52523613 0.0314128511
v 0.0314128511 -1.52523613 0
v -0.323893666 -1.03586006 0
v -0.0841363147 -1.34190273 -0.0841363147
v 0.0766799897 -1.44190288 -0.0264419653
v 0.0841363221 -1.34190273 -0.0841363147
v 0.0766799897 -1.44190288 0.0264419671
v 0.0264419653 -1.44190288 0.0766799897
v 0.0841363147 -1.34190273 0.0841363221
v -0.0264419671 -1.44190288 0.0766799897
v -0.0841363221 -1.34190273 0.0841363147
v 0.0388691798 -1.25023603 -0.178583115
v 1.16415322e-10 -1.15979671 -0.2548998
v -0.0388691761 -1.25023603 -0.178583115
v 0.141301483 -1.35023618 -1.16415322e-10
v -0.178583115 -1.25023603 -0.0388691761
v -0.2548998 -1.15979671 -1.16415322e-10
v -0.178583115 -1.25023603 0.0388691761
v 1.16415322e-10 -1.35023618 0.141301483
v 0.17858313 -1.25023603 -0.0388691761
v 0.178583115 -1.25023603 0.0388691798
v 0.0388691761 -1.25023603 0.17858313
v -0.0388691798 -1.25023603 0.178583115
v 1.16415322e-10 -1.35023618 0.141301483
v -0.2548998 -1.15979671 -1.16415322e-10
v 0.141301483 -1.35023618 -1.16415322e-10
v 1.16415322e-10 -1.15979671 -0.2548998
v -0.323893666 -1.03586006 0
v 0.0314128511 -1.52523613 0
v 0 -1.52523613 0.0314128511
v 0 -1.03586006 -0.323893666
v 0 -0.712785244 0.0554068722
v 0 -0.944973469 0.288392097
v 0.0554068722 -0.712785244 0
v 0.288392097 -0.944973469 0
v -0.288392097 -0.944973469 0
v -0.0554068685 -0.712785244 0
v 0 -0.712785244 -0.0554068722
v 0 -0.944973469 -0.288392097
v 0 -1.03585982 0.323893666
v 1.16415322e-10 -1.15979671 0.2548998
v -0.0314128473 -1.52523613 0
v -0.141301483 -1.35023618 -1.16415322e-10
v 0.323893666 -1.03585982 0
v 0.2548998 -1.15979671 -1.16415322e-10
v 0 -1.52523613 -0.0314128473
v 1.16415322e-10 -1.35023618 -0.141301483
v -0.297441661 -1.08847809 0
v 0 -1.08847809 -0.297441661
v 4.65661287e-10 -1.25023603 0.200952098
v 0.200952098 -1.25023603 -4.65661287e-10
v 0 -1.45023632 0.0816508755
v -0.200952113 -1.25023603 -4.65661287e-10
v 0.0816508755 -1.45023632 0
v 4.65661287e-10 -1.25023603 -0.200952113
v 0 -0.675137043 0
v 0 -0.675137043 0
v 0 -0.675137043 0
v -0.329571784 -1.00152111 0
v 0 -1.00152111 0.329571784
v 0.329571784 -1.00152111 0
v 0 -1.55023623 0
v 0 -1.55023623 0
v 0 -1.55023623 0
v 0 -1.00152111 -0.329571784
v 0 -0.82572937 0.174270689
v 0.174270689 -0.82572937 0
v -0.174270675 -0.82572937 0
v 0 -0.82572937 -0.174270689
v 0 -1.08847809 0.297441661
v -0.0816508681 -1.45023632 0
v 0.297441661 -1.08847809 0
v 0 -1.45023632 -0.0816508681
vn 0.610980511 -0.247790545 -0.751866102
vn 0.583737493 -0.564358473 -0.583738029
vn 0.751866579 -0.24779065 -0.610979855
vn -0.58373791 -0.564358234 -0.58373791
vn -0.610980332 -0.247790501 -0.751866221
vn -0.751866341 -0.247790396 -0.610980213
vn 0.7518664 -0.247790396 0.610980153
vn 0.583737195 -0.564359009 0.583737791
vn 0.610980034 -0.247790456 0.751866519
vn -0.610980332 -0.247790515 0.751866281
vn -0.583737969 -0.564358175 0.58373785
vn -0.751866341 -0.247790679 0.610980093
vn -0.665912986 0.535346687 -0.519580424
vn -0.519580364 0.535346448 -0.665913165
vn -0.522545099 0.673716068 -0.522545099
vn 0.519579947 0.535346448 -0.665913582
vn 0.665913343 0.535346448 -0.519580185
vn 0.52254498 0.673716247 -0.522544861
vn 0.665913403 0.535346329 0.519580245
vn 0.519580245 0.535346448 0.665913463
vn 0.52254492 0.673716187 0.522544801
vn -0.519579947 0.535346448 0.665913582
vn -0.665913403 0.535346568 0.519579947
vn -0.52254498 0.673716247 0.52254498
vn -0.501781642 -0.43338412 -0.748594344
vn -0.748594344 -0.433384299 -0.501781523
vn 0.501781762 -0.433384269 -0.748594165
vn 0.748594284 -0.43338418 -0.501781642
vn 0.748594344 -0.43338421 0.501781464
vn 0.501781523 -0.43338415 0.748594403
vn -0.501781702 -0.43338418 0.748594105
vn -0.748594344 -0.433384299 0.501781464
vn -0.557247937 -0.418722481 -0.717039943
vn 0.717040002 -0.41872251 -0.557247758
vn 0.557247996 -0.418722481 0.717039764
vn -0.717040002 -0.418722481 0.557247818
vn -0.717040062 -0.4187226 -0.557247698
vn 0.557247937 -0.41872251 -0.717039824
vn 0.717039883 -0.418722421 0.557247996
vn -0.557247937 -0.418722481 0.717039824
vn -0.658024848 -0.366069585 -0.658024669
vn 0.658024907 -0.366069645 -0.65802449
vn 0.658024728 -0.366069525 0.658024728
vn -0.658024907 -0.366069645 0.65802449
vn -0.576524436 0.578998327 -0.576524317
vn 0.576524258 0.578998685 -0.576524258
vn 0.576524079 0.578998864 0.576524138
vn -0.576524258 0.578998685 0.576524258
vn -0.354431391 -0.500746071 -0.789703667
vn 0.757838666 -0.408060133 0.509085
vn 0.697975159 0.160191417 -0.697975278
vn -0.697974741 0.160192057 -0.697975457
vn -0.789703906 -0.50074625 0.354430377
vn -0.509085298 -0.408060014 0.757838428
vn 0.697974622 0.160191268 0.697975695
vn -0.697975159 0.160191417 0.697975278
vn 0.410898745 0.645788908 -0.643520653
vn -0.643520653 0.64578867 0.410899192
vn 0.643520653 0.645788908 0.410898894
vn -0.410898745 0.645788908 0.643520653
vn -0.552255034 0.19588846 -0.810334623
vn 0.517556369 -0.681373894 0.517556906
vn 0.81033504 0.195888162 -0.552254379
vn 0.552254736 0.195888266 0.810334742
vn -0.81033504 0.19588834 0.55225426
vn -0.482581198 0.730911553 0.482580334
vn -0.642416418 -0.417853534 -0.642416954
vn 0.642416894 -0.417853475 -0.642416656
vn 0.642416596 -0.417852759 0.642417312
vn -0.642416835 -0.417853832 0.642416418
vn -0.442827165 -0.450522363 -0.775199175
vn 0.789704859 -0.500745952 0.354428828
vn -0.775199115 -0.450522304 0.442827135
vn -0.35443157 -0.500745952 0.789703608
vn -0.649974525 -0.393785179 -0.649974108
vn 0.649974346 -0.393785 -0.649974465
vn 0.649974465 -0.393785149 0.649974227
vn -0.649974406 -0.393785059 0.649974346
vn 0.775198877 -0.450522125 0.442827731
vn -0.442826927 -0.450522363 0.775199234
vn -0.509085417 -0.408060193 -0.757838309
vn -0.757838368 -0.408060253 0.509085178
vn -0.68724227 -0.235363096 -0.687242627
vn -0.718855083 -0.388264 -0.576626837
vn -0.650366426 -0.39248842 -0.650366127
vn -0.576627076 -0.388263851 -0.718855023
vn 0.576627135 -0.388263911 -0.718854904
vn 0.650366485 -0.39248842 -0.650366306
vn 0.718855441 -0.388263822 -0.576626539
vn 0.687242448 -0.235363245 -0.687242448
vn 0.718855202 -0.388263822 0.576626837
vn 0.650366545 -0.39248845 0.650366187
vn 0.576627076 -0.388263792 0.718855023
vn 0.687242091 -0.235363096 0.687242806
vn -0.576627076 -0.388263822 0.718854964
vn -0.650366426 -0.39248842 0.650366366
vn -0.718855143 -0.388263911 0.576626778
vn -0.687242448 -0.235363245 0.687242448
vn -0.487328708 0.618587017 -0.616328537
vn -0.616328537 0.618587017 -0.487328768
vn -0.612179995 0.500470936 -0.612179995
vn 0.612180293 0.500470519 -0.612180054
vn 0.616328537 0.618587196 -0.48732838
vn 0.487328142 0.618587494 -0.616328537
vn 0.612179995 0.500470519 0.612180471
vn 0.48732847 0.618587315 0.616328418
vn 0.616328418 0.618587494 0.487328202
vn -0.612180293 0.500470519 0.612180054
vn -0.616328537 0.618587255 0.48732841
vn -0.487328142 0.618587494 0.616328537
vn 0.490643889 -0.469159782 -0.734273553
vn -0.385223925 -0.463159472 -0.798176587
vn -0.490644008 -0.469159782 -0.734273434
vn 0.443887025 -0.614697218 -0.652005851
vn 0.757858574 -0.441713363 0.480145633
vn 0.795454741 -0.258824915 -0.547961295
vn 0.766039789 0.178454176 -0.617524981
vn 0.617525041 0.178453892 -0.766039908
vn -0.617524922 0.178454384 -0.766039789
vn -0.76603955 0.178454742 -0.61752522
vn -0.734273553 -0.469159871 -0.49064377
vn -0.798176885 -0.46315971 0.38522324
vn -0.734273612 -0.46916005 0.49064362
vn -0.652005494 -0.614696145 -0.443888932
vn -0.480145216 -0.441713482 0.757858634
vn 0.547962248 -0.258824527 0.795454204
vn 0.617524743 0.178454041 0.766040027
vn 0.766039848 0.178453878 0.617525101
vn -0.766039789 0.17845428 0.617524981
vn -0.617524922 0.178453818 0.766040027
vn 0.446424961 0.566710114 -0.692491472
vn -0.448146969 0.701458156 -0.554184854
vn -0.554185152 0.701458097 0.448146671
vn -0.692490757 0.566710055 -0.446426183
vn 0.692491233 0.566710055 0.446425408
vn 0.554185152 0.701458037 -0.448146582
vn -0.446424961 0.566710114 0.692491472
vn 0.44814682 0.701457918 0.554185152
vn 0.547962606 -0.258824527 -0.795453846
vn 0.443885505 -0.61469841 0.652005613
vn 0.652005255 -0.61469698 -0.443888217
vn -0.795454264 -0.258824736 -0.54796195
vn -0.649032474 -0.396879524 -0.649032772
vn 0.734273553 -0.469159395 -0.490644157
vn 0.649032533 -0.396879554 -0.649032652
vn 0.734274209 -0.469159275 0.490643382
vn 0.490643173 -0.469159216 0.734274387
vn 0.649032474 -0.396879494 0.649032831
vn -0.490644425 -0.469159931 0.734273076
vn -0.649032652 -0.396879584 0.649032593
vn 0.536114097 -0.424443036 -0.729677796
vn -0.480145276 -0.441713482 -0.757858694
vn -0.536114275 -0.424443156 -0.729677558
vn 0.798176765 -0.463159621 -0.385223508
vn -0.729677796 -0.424443126 -0.536114097
vn -0.757858813 -0.441713482 0.480145067
vn -0.729677796 -0.424443156 0.536114156
vn 0.385223776 -0.463159472 0.798176587
vn 0.729677856 -0.424443126 -0.536113918
vn 0.729677618 -0.424442977 0.536114335
vn 0.536114097 -0.424443215 0.729677677
vn -0.536114097 -0.424443036 0.729677796
vn -0.385223925 -0.463159591 0.798176587
vn -0.757858753 -0.441713482 -0.480145037
vn 0.798176825 -0.463159621 0.38522321
vn 0.480145305 -0.441713542 -0.757858634
vn -0.795454323 -0.258824974 0.547961771
vn 0.652005434 -0.614698112 0.44388625
vn -0.443888754 -0.614696026 0.652005851
vn -0.547962606 -0.258824497 -0.795453846
vn -0.448146939 0.701458156 0.554184794
vn 0.446426004 0.566709936 0.692490935
vn 0.554185152 0.701458037 0.448146611
vn 0.692490935 0.566710174 -0.446425825
vn -0.692491055 0.566710293 0.446425408
vn -0.554185152 0.701458037 -0.448146641
vn 0.44814682 0.701457977 -0.554185152
vn -0.446426004 0.566709936 -0.692490935
vn -0.547962248 -0.258824468 0.795454204
vn 0.480145276 -0.441713482 0.757858634
vn -0.652005553 -0.614696205 0.443888932
vn -0.798176825 -0.463159651 -0.38522324
vn 0.795454562 -0.258824587 0.547961652
vn 0.757858813 -0.441713482 -0.480145097
vn -0.443888754 -0.614696205 -0.652005613
vn 0.385223925 -0.463159621 -0.798176587
vn -0.757838309 -0.408060461 -0.509085119
vn 0.509085417 -0.408060223 -0.75783819
vn 0.442826957 -0.450522453 0.775199115
vn 0.775199354 -0.450522482 -0.44282645
vn 0.354429424 -0.500746012 0.789704561
vn -0.775199115 -0.450522304 -0.442827195
vn 0.789703906 -0.500745714 -0.354431182
vn 0.442827016 -0.450522304 -0.775199234
vn -0.482581198 0.730911493 -0.482580334
vn 0.48258099 0.730911255 -0.482581049
vn 0.48258099 0.730911195 0.482581049
vn -0.810334742 0.195888609 -0.552254796
vn -0.552254319 0.195888013 0.810335159
vn 0.810335219 0.195888072 0.5522542
vn 0.517557621 -0.681371987 -0.517558157
vn -0.517558873 -0.68137008 -0.517559409
vn -0.517558873 -0.68137002 0.51755935
vn 0.552254617 0.195888177 -0.810334861
vn 0.410899431 0.64578855 0.643520594
vn 0.643520653 0.64578861 -0.410899192
vn -0.643520534 0.645788491 -0.41089955
vn -0.410899431 0.64578855 -0.643520594
vn 0.509085417 -0.408060044 0.757838368
vn -0.789703965 -0.500746191 -0.354430377
vn 0.757838905 -0.408059925 -0.509084702
vn 0.354430318 -0.500746071 -0.789704025
g prim_bottom
f 5//5 86//86 41//41 83//83
f 83//83 41//41 84//84 6//6
f 41//41 85//85 37//37 84//84
f 86//86 33//33 85//85 41//41
f 1//1 90//90 42//42 87//87
f 87//87 42//42 88//88 38//38
f 42//42 89//89 34//34 88//88
f 90//90 3//3 89//89 42//42
f 7//7 94//94 43//43 91//91
f 91//91 43//43 92//92 39//39
f 43//43 93//93 35//35 92//92
f 94//94 9//9 93//93 43//43
f 10//10 98//98 44//44 95//95
f 95//95 44//44 96//96 40//40
f 44//44 97//97 36//36 96//96
f 98//98 12//12 97//97 44//44
f 2//2 114//114 212//212 111//111
f 111//111 212//212 186//186 27//27
f 49//49 113//113 25//25 112//112
f 185//185 4//4 113//113 49//49
f 3//3 116//116 211//211 89//89
f 89//89 211//211 184//184 34//34
f 50//50 91//91 39//39 115//115
f 183//183 7//7 91//91 50//50
f 4//4 124//124 210//210 121//121
f 121//121 210//210 182//182 26//26
f 53//53 123//123 32//32 122//122
f 181//181 11//11 123//123 53//53
f 9//9 126//126 209//209 93//93
f 93//93 209//209 180//180 35//35
f 54//54 95//95 40//40 125//125
f 179//179 10//10 95//95 54//54
f 25//25 113//113 67//67 143//143
f 26//26 143//143 67//67 121//121
f 4//4 121//121 67//67 113//113
f 27//27 145//145 68//68 111//111
f 2//2 111//111 68//68 144//144
f 28//28 144//144 68//68 145//145
f 29//29 148//148 69//69 146//146
f 8//8 146//146 69//69 147//147
f 30//30 147//147 69//69 148//148
f 31//31 150//150 70//70 149//149
f 11//11 149//149 70//70 123//123
f 32//32 123//123 70//70 150//150
f 27//27 186//186 194//194 151//151
f 151//151 194//194 166//166 38//38
f 71//71 153//153 33//33 152//152
f 112//112 25//25 153//153 71//71
f 28//28 154//154 193//193 144//144
f 144//144 193//193 141//141 2//2
f 72//72 146//146 8//8 168//168
f 165//165 29//29 146//146 72//72
f 26//26 182//182 192//192 155//155
f 155//155 192//192 164//164 37//37
f 73//73 157//157 36//36 156//156
f 122//122 32//32 157//157 73//73
f 30//30 158//158 191//191 147//147
f 147//147 191//191 140//140 8//8
f 74//74 149//149 11//11 169//169
f 163//163 31//31 149//149 74//74
f 33//33 153//153 75//75 85//85
f 85//85 75//75 155//155 37//37
f 75//75 143//143 26//26 155//155
f 153//153 25//25 143//143 75//75
f 38//38 88//88 76//76 151//151
f 151//151 76//76 145//145 27//27
f 76//76 159//159 28//28 145//145
f 88//88 34//34 159//159 76//76
f 39//39 92//92 77//77 160//160
f 160//160 77//77 148//148 29//29
f 77//77 161//161 30//30 148//148
f 92//92 35//35 161//161 77//77
f 40//40 96//96 78//78 162//162
f 162//162 78//78 150//150 31//31
f 78//78 157//157 32//32 150//150
f 96//96 36//36 157//157 78//78
f 34//34 184//184 190//190 159//159
f 159//159 190//190 154//154 28//28
f 79//79 160//160 29//29 165//165
f 115//115 39//39 160//160 79//79
f 35//35 180//180 189//189 161//161
f 161//161 189//189 158//158 30//30
f 80//80 162//162 31//31 163//163
f 125//125 40//40 162//162 80//80
f 38//38 166//166 188//188 87//87
f 87//87 188//188 139//139 1//1
f 81//81 86//86 5//5 170//170
f 152//152 33//33 86//86 81//81
f 37//37 164//164 187//187 84//84
f 84//84 187//187 142//142 6//6
f 82//82 97//97 12//12 167//167
f 156//156 36//36 97//97 82//82
g 
f 14//14 101//101 45//45 99//99
f 15//15 99//99 45//45 100//100
f 13//13 100//100 45//45 101//101
f 16//16 104//104 46//46 102//102
f 17//17 102//102 46//46 103//103
f 18//18 103//103 46//46 104//104
f 19//19 107//107 47//47 105//105
f 20//20 105//105 47//47 106//106
f 21//21 106//106 47//47 107//107
f 22//22 110//110 48//48 108//108
f 23//23 108//108 48//48 109//109
f 24//24 109//109 48//48 110//110
f 1//1 118//118 51//51 90//90
f 90//90 51//51 117//117 3//3
f 51//51 102//102 17//17 117//117
f 118//118 16//16 102//102 51//51
f 6//6 120//120 52//52 83//83
f 83//83 52//52 119//119 5//5
f 52//52 101//101 14//14 119//119
f 120//120 13//13 101//101 52//52
f 7//7 128//128 55//55 94//94
f 94//94 55//55 127//127 9//9
f 55//55 105//105 20//20 127//127
f 128//128 19//19 105//105 55//55
f 10//10 130//130 56//56 98//98
f 98//98 56//56 129//129 12//12
f 56//56 108//108 23//23 129//129
f 130//130 22//22 108//108 56//56
f 15//15 132//132 208//208 99//99
f 99//99 208//208 178//178 14//14
f 57//57 104//104 16//16 131//131
f 177//177 18//18 104//104 57//57
f 13//13 134//134 207//207 100//100
f 100//100 207//207 176//176 15//15
f 58//58 109//109 24//24 133//133
f 175//175 23//23 109//109 58//58
f 18//18 136//136 206//206 103//103
f 103//103 206//206 174//174 17//17
f 59//59 107//107 19//19 135//135
f 173//173 21//21 107//107 59//59
f 21//21 138//138 205//205 106//106
f 106//106 205//205 172//172 20//20
f 60//60 110//110 22//22 137//137
f 171//171 24//24 110//110 60//60
f 5//5 119//119 61//61 170//170
f 139//139 204//204 118//118 1//1
f 204//204 131//131 16//16 118//118
f 119//119 14//14 178//178 61//61
f 2//2 141//141 201//201 114//114
f 185//185 202//202 124//124 4//4
f 203//203 169//169 11//11 181//181
f 168//168 8//8 140//140 62//62
f 3//3 117//117 63//63 116//116
f 183//183 200//200 128//128 7//7
f 200//200 135//135 19//19 128//128
f 117//117 17//17 174//174 63//63
f 9//9 127//127 64//64 126//126
f 179//179 199//199 130//130 10//10
f 199//199 137//137 22//22 130//130
f 127//127 20//20 172//172 64//64
f 6//6 142//142 198//198 120//120
f 120//120 198//198 134//134 13//13
f 65//65 129//129 23//23 175//175
f 167//167 12//12 129//129 65//65
f 15//15 176//176 195//195 132//132
f 177//177 196//196 136//136 18//18
f 197//197 138//138 21//21 173//173
f 133//133 24//24 171//171 66//66
