# File exported by Houdini 17.0.459 (www.sidefx.com)
# 220 points
# 640 vertices
# 160 primitives
# Bounds: [-0.401498765, -1.61727667, -0.401498735] to [0.401498735, -0.602522135, 0.401498735]
g 
v 0.0626290143 -1.04396963 -0.343205065
v 0.031527698 -1.57144332 -0.031527698
v 0.343205065 -1.04396963 -0.0626290143
v -0.031527698 -1.57144332 -0.031527698
v -0.0626290143 -1.04396963 -0.343205065
v -0.343205065 -1.04396939 -0.0626290068
v 0.343205065 -1.04396963 0.0626290143
v 0.0315277018 -1.57144332 0.031527698
v 0.0626290143 -1.04396963 0.343205065
v -0.0626290143 -1.04396963 0.343205065
v -0.031527698 -1.57144332 0.031527698
v -0.343205065 -1.04396963 0.0626290143
v -0.312672257 -0.939745426 -0.0606014654
v -0.0606014617 -0.939745426 -0.312672257
v -0.0605899952 -0.6881845 -0.0605899952
v 0.0606014654 -0.939745426 -0.312672257
v 0.312672257 -0.939745426 -0.0606014617
v 0.0605899952 -0.6881845 -0.060589999
v 0.312672257 -0.939745426 0.0606014654
v 0.0606014617 -0.939745426 0.312672257
v 0.060589999 -0.6881845 0.0605899952
v -0.0606014654 -0.939745426 0.312672257
v -0.312672257 -0.939745426 0.0606014617
v -0.0605899952 -0.6881845 0.060589999
v -0.0335547552 -1.41519332 -0.136407599
v -0.136407614 -1.41519308 -0.0335547514
v 0.0335547514 -1.41519308 -0.136407614
v 0.136407599 -1.41519308 -0.0335547552
v 0.136407599 -1.41519332 0.0335547552
v 0.0335547552 -1.41519308 0.136407599
v -0.0335547552 -1.41519332 0.136407599
v -0.136407599 -1.41519332 0.0335547552
v -0.0490034446 -1.21841192 -0.248602569
v 0.248602569 -1.21841192 -0.0490034521
v 0.0490034483 -1.21841192 0.248602569
v -0.248602569 -1.21841192 0.0490034521
v -0.248602569 -1.21841192 -0.0490034446
v 0.0490034483 -1.21841192 -0.248602569
v 0.248602569 -1.21841192 0.0490034521
v -0.0490034483 -1.21841192 0.248602569
v -0.182908282 -1.12181807 -0.182908282
v 0.182908297 -1.12181807 -0.182908297
v 0.182908297 -1.12181807 0.182908297
v -0.182908297 -1.12181807 0.182908297
v -0.148278251 -0.851721525 -0.148278251
v 0.148278251 -0.851721764 -0.148278251
v 0.148278251 -0.851721764 0.148278251
v -0.148278251 -0.851721764 0.148278251
v -4.65661287e-10 -1.51727676 -0.0870825946
v 0.343599737 -1.12181807 0
v 0.212223202 -1.00134087 -0.212223187
v -0.212223187 -1.00134087 -0.212223202
v -0.0870825946 -1.51727676 0
v 0 -1.12181807 0.343599737
v 0.212223187 -1.00134087 0.212223202
v -0.212223202 -1.00134087 0.212223187
v 0 -0.789422035 -0.210578173
v -0.210578158 -0.789422035 0
v 0.210578173 -0.789422035 0
v 0 -0.789422035 0.210578173
v 0 -1.00134087 -0.401498735
v 0 -1.61727667 0
v 0.401498735 -1.00134087 0
v 0 -1.00134087 0.401498735
v -0.401498765 -1.00134063 4.65661287e-10
v 0 -0.602522135 0
v -0.0654606819 -1.48394322 -0.0654606745
v 0.0654606745 -1.48394322 -0.0654606819
v 0.0654606819 -1.48394322 0.0654606745
v -0.0654606745 -1.48394322 0.0654606819
v 4.65661287e-10 -1.31727648 -0.216814101
v 0.0870825946 -1.51727676 0
v -0.216814101 -1.31727648 4.65661287e-10
v -4.65661287e-10 -1.51727676 0.0870825946
v -0.119515471 -1.31727648 -0.119515464
v 0.119515471 -1.31727648 -0.119515471
v 0.119515471 -1.31727648 0.119515471
v -0.119515471 -1.31727648 0.119515471
v 0.216814101 -1.31727648 4.65661287e-10
v 4.65661287e-10 -1.31727648 0.216814101
v 0 -1.12181807 -0.343599737
v -0.343599737 -1.12181807 0
v -0.205716968 -1.04396963 -0.205716968
v -0.303426862 -1.12181807 -0.0568354875
v -0.15158011 -1.21841192 -0.15158011
v -0.0568354875 -1.12181807 -0.303426862
v 0.0568354912 -1.12181807 -0.303426862
v 0.15158011 -1.21841192 -0.15158011
v 0.303426862 -1.12181807 -0.0568354949
v 0.205716968 -1.04396963 -0.205716968
v 0.303426862 -1.12181807 0.0568354949
v 0.15158011 -1.21841192 0.15158011
v 0.0568354912 -1.12181807 0.303426862
v 0.205716968 -1.04396963 0.205716968
v -0.0568354912 -1.12181807 0.303426862
v -0.15158011 -1.21841192 0.15158011
v -0.303426862 -1.12181807 0.0568354949
v -0.205716968 -1.04396963 0.205716968
v -0.0489087626 -0.804996967 -0.195003182
v -0.195003182 -0.804996967 -0.0489087626
v -0.195414439 -0.951426506 -0.195414454
v 0.195414454 -0.951426506 -0.195414439
v 0.195003182 -0.804996967 -0.0489087626
v 0.0489087626 -0.804996967 -0.195003182
v 0.195414439 -0.951426506 0.195414454
v 0.0489087626 -0.804996967 0.195003182
v 0.195003182 -0.804996967 0.0489087626
v -0.195414454 -0.951426506 0.195414439
v -0.195003182 -0.804996967 0.0489087626
v -0.0489087626 -0.804996967 0.195003182
v 0.0274735875 -1.50894332 -0.0816771239
v 0 -1.41727662 -0.151948363
v -0.0274735894 -1.50894332 -0.0816771165
v -1.16415322e-10 -1.59227657 -0.0328790694
v 0.280943394 -1.21841192 1.16415322e-10
v 0.38903445 -1.04396963 0
v 0.354179859 -1.00134087 -0.0645296052
v 0.0645296127 -1.00134087 -0.354179859
v -0.0645296052 -1.00134087 -0.354179859
v -0.354179889 -1.00134087 -0.0645296127
v -0.0816771239 -1.50894332 -0.0274735875
v -0.151948363 -1.41727662 1.16415322e-10
v -0.0816771165 -1.50894332 0.0274735913
v -0.0328790694 -1.59227657 0
v 1.16415322e-10 -1.21841192 0.280943394
v 0 -1.04396963 0.38903445
v 0.0645296052 -1.00134087 0.354179859
v 0.354179859 -1.00134087 0.0645296127
v -0.354179889 -1.00134087 0.0645296052
v -0.0645296127 -1.00134087 0.354179859
v 0 -0.935851574 -0.351758182
v 0 -0.649247169 -0.0644837394
v -0.0644837394 -0.649247169 0
v -0.351758212 -0.935851574 1.16415322e-10
v 0.351758182 -0.935851574 0
v 0.0644837394 -0.649247169 0
v 0 -0.935851574 0.351758182
v 0 -0.649247169 0.0644837394
v 0 -1.04396963 -0.38903445
v -1.16415322e-10 -1.59227657 0.0328790694
v 0.0328790694 -1.59227657 0
v -0.38903445 -1.04396963 1.16415322e-10
v -0.0897853374 -1.40894318 -0.0897853374
v 0.0816771165 -1.50894332 -0.0274735913
v 0.0897853374 -1.40894318 -0.0897853374
v 0.0816771239 -1.50894332 0.0274735875
v 0.0274735894 -1.50894332 0.0816771165
v 0.0897853374 -1.40894318 0.0897853374
v -0.0274735875 -1.50894332 0.0816771239
v -0.0897853374 -1.40894318 0.0897853374
v 0.0409872867 -1.31727648 -0.19248946
v 1.16415322e-10 -1.21841192 -0.280943394
v -0.0409872867 -1.31727648 -0.192489445
v 0.151948363 -1.41727662 1.16415322e-10
v -0.19248946 -1.31727648 -0.040987283
v -0.280943394 -1.21841192 1.16415322e-10
v -0.192489445 -1.31727648 0.0409872867
v 0 -1.41727662 0.151948363
v 0.192489445 -1.31727648 -0.0409872867
v 0.192489445 -1.31727648 0.0409872867
v 0.0409872867 -1.31727648 0.192489445
v -0.0409872867 -1.31727648 0.192489445
v 0 -1.41727662 0.151948363
v -0.280943394 -1.21841192 1.16415322e-10
v 0.151948363 -1.41727662 1.16415322e-10
v 1.16415322e-10 -1.21841192 -0.280943394
v -0.38903445 -1.04396963 1.16415322e-10
v 0.0328790694 -1.59227657 0
v -1.16415322e-10 -1.59227657 0.0328790694
v 0 -1.04396963 -0.38903445
v 0 -0.649247169 0.0644837394
v 0 -0.935851574 0.351758182
v 0.0644837394 -0.649247169 0
v 0.351758182 -0.935851574 0
v -0.351758212 -0.935851574 1.16415322e-10
v -0.0644837394 -0.649247169 0
v 0 -0.649247169 -0.0644837394
v 0 -0.935851574 -0.351758182
v 0 -1.04396963 0.38903445
v 1.16415322e-10 -1.21841192 0.280943394
v -0.0328790694 -1.59227657 0
v -0.151948363 -1.41727662 1.16415322e-10
v 0.38903445 -1.04396963 0
v 0.280943394 -1.21841192 1.16415322e-10
v -1.16415322e-10 -1.59227657 -0.0328790694
v 0 -1.41727662 -0.151948363
v -0.343599737 -1.12181807 0
v 0 -1.12181807 -0.343599737
v 4.65661287e-10 -1.31727648 0.216814101
v 0.216814101 -1.31727648 4.65661287e-10
v -4.65661287e-10 -1.51727676 0.0870825946
v -0.216814101 -1.31727648 4.65661287e-10
v 0.0870825946 -1.51727676 0
v 4.65661287e-10 -1.31727648 -0.216814101
v 0 -0.602522135 0
v 0 -0.602522135 0
v 0 -0.602522135 0
v -0.401498765 -1.00134063 4.65661287e-10
v -0.401498765 -1.00134063 4.65661287e-10
v -0.401498765 -1.00134063 4.65661287e-10
v 0 -1.00134087 0.401498735
v 0 -1.00134087 0.401498735
v 0 -1.00134087 0.401498735
v 0.401498735 -1.00134087 0
v 0.401498735 -1.00134087 0
v 0.401498735 -1.00134087 0
v 0 -1.61727667 0
v 0 -1.61727667 0
v 0 -1.61727667 0
v 0 -1.00134087 -0.401498735
v 0 -1.00134087 -0.401498735
v 0 -1.00134087 -0.401498735
v 0 -0.789422035 0.210578173
v 0.210578173 -0.789422035 0
v -0.210578158 -0.789422035 0
v 0 -0.789422035 -0.210578173
v 0 -1.12181807 0.343599737
v -0.0870825946 -1.51727676 0
v 0.343599737 -1.12181807 0
v -4.65661287e-10 -1.51727676 -0.0870825946
vn 0.609401882 -0.314035803 -0.728018463
vn 0.572498143 -0.586933732 -0.572498441
vn 0.728018761 -0.314035743 -0.609401643
vn -0.572498381 -0.586933911 -0.572498322
vn -0.609401643 -0.314035714 -0.728018701
vn -0.728018582 -0.314035773 -0.609401703
vn 0.728018641 -0.314035803 0.609401643
vn 0.5724985 -0.58693403 0.572497904
vn 0.609401643 -0.314035684 0.728018701
vn -0.609401822 -0.314035803 0.728018463
vn -0.572498202 -0.586933792 0.5724985
vn -0.728018641 -0.314035743 0.609401703
vn -0.653260112 0.540803134 -0.529889822
vn -0.529889345 0.540803194 -0.65326041
vn -0.532060862 0.65865165 -0.532061279
vn 0.529889464 0.540803254 -0.65326035
vn 0.65326035 0.540803075 -0.529889524
vn 0.53206104 0.65865165 -0.532061279
vn 0.653260231 0.540803194 0.529889643
vn 0.529889524 0.540803254 0.653260291
vn 0.5320611 0.65865165 0.5320611
vn -0.529889464 0.540803254 0.65326035
vn -0.653260112 0.540803194 0.529889703
vn -0.532060981 0.658651531 0.532061398
vn -0.500901699 -0.461604714 -0.732132852
vn -0.732132673 -0.461604625 -0.500902057
vn 0.500902236 -0.461604714 -0.732132554
vn 0.732132554 -0.461604536 -0.500902295
vn 0.732132792 -0.461604774 0.500901759
vn 0.500902176 -0.461604595 0.732132673
vn -0.500901759 -0.461604714 0.732132792
vn -0.732132673 -0.461604655 0.500901878
vn -0.556091845 -0.446055591 -0.701281846
vn 0.701281786 -0.446055651 -0.556092024
vn 0.556091785 -0.446055621 0.701281786
vn -0.701281786 -0.446055651 0.556091845
vn -0.701281846 -0.44605571 -0.556091845
vn 0.556091845 -0.446055621 -0.701281786
vn 0.701281905 -0.44605577 0.556091666
vn -0.556091785 -0.446055621 0.701281786
vn -0.647228479 -0.402728885 -0.647228479
vn 0.647228479 -0.402729064 -0.64722836
vn 0.64722836 -0.402729005 0.64722836
vn -0.647228479 -0.402729064 0.64722836
vn -0.576797307 0.578454316 -0.576797545
vn 0.576797426 0.578454375 -0.576797426
vn 0.576797366 0.578454435 0.576797545
vn -0.576797426 0.578454375 0.576797426
vn -0.358889133 -0.528270841 -0.769498944
vn 0.733335078 -0.443581402 0.515223384
vn 0.70127964 0.128116801 -0.701279521
vn -0.701279461 0.128116757 -0.70127964
vn -0.769498825 -0.528270781 0.358889371
vn -0.515223384 -0.443581372 0.733335137
vn 0.701279461 0.128116995 0.70127964
vn -0.70127964 0.128116786 0.701279581
vn 0.436003625 0.637111127 -0.635602176
vn -0.635602117 0.637111068 0.436003953
vn 0.635602057 0.637111068 0.436003923
vn -0.436003625 0.637111127 0.635602176
vn -0.497530997 0.516024053 -0.697267652
vn 0.506844699 -0.697293401 0.506843567
vn 0.69726783 0.516023993 -0.497530758
vn 0.497530997 0.516024053 0.697267652
vn -0.785326123 -0.228726894 0.575280011
vn -0.499927312 0.707208991 0.499928117
vn -0.633164167 -0.445203483 -0.633164287
vn 0.633164287 -0.445203602 -0.633164167
vn 0.633163869 -0.445203602 0.633164525
vn -0.633164227 -0.445203811 0.633164048
vn -0.446532249 -0.478424579 -0.75612092
vn 0.769499183 -0.528271079 0.358888119
vn -0.756121039 -0.478424489 0.446532071
vn -0.358889163 -0.5282709 0.769498825
vn -0.64109689 -0.421888232 -0.641096771
vn 0.641096711 -0.421888441 -0.641096771
vn 0.641096711 -0.421888322 0.64109689
vn -0.641096771 -0.421888202 0.64109689
vn 0.756121039 -0.478424489 0.446532071
vn -0.44653219 -0.478424549 0.75612092
vn -0.515223384 -0.443581343 -0.733335137
vn -0.733334899 -0.443581283 0.515223801
vn -0.674646735 -0.299505323 -0.674646735
vn -0.699442863 -0.424194485 -0.575185895
vn -0.641536713 -0.420548767 -0.641536772
vn -0.575185537 -0.424194783 -0.699442983
vn 0.575185716 -0.424194902 -0.699442685
vn 0.641536653 -0.420548826 -0.641536713
vn 0.699442863 -0.424194813 -0.575185597
vn 0.674647033 -0.299505264 -0.674646676
vn 0.699442863 -0.424194783 0.575185657
vn 0.641536772 -0.420548826 0.641536653
vn 0.575185597 -0.424194843 0.699442804
vn 0.674646735 -0.299505174 0.674646974
vn -0.575185657 -0.424194872 0.699442744
vn -0.641536653 -0.420548826 0.641536713
vn -0.699442804 -0.424194783 0.575185776
vn -0.674646914 -0.299505353 0.674646497
vn -0.501111209 0.612669826 -0.611165524
vn -0.611165345 0.612669766 -0.501111567
vn -0.608166575 0.510163426 -0.608166695
vn 0.608166575 0.510163486 -0.608166695
vn 0.611165404 0.612669766 -0.501111507
vn 0.501111448 0.612669885 -0.611165404
vn 0.608166516 0.510163605 0.608166635
vn 0.501111388 0.612669826 0.611165464
vn 0.611165345 0.612669647 0.501111567
vn -0.608166575 0.510163546 0.608166635
vn -0.611165345 0.612669766 0.501111627
vn -0.501111448 0.612669885 0.611165404
vn 0.48860237 -0.496234089 -0.717648566
vn -0.389996052 -0.491740584 -0.778520525
vn -0.488601774 -0.496234089 -0.717648923
vn 0.43939963 -0.635060728 -0.635315418
vn 0.738269091 -0.468621582 0.485131562
vn 0.764514089 -0.327250332 -0.555360675
vn 0.760385275 0.141802102 -0.63380301
vn 0.633803308 0.141801909 -0.760385215
vn -0.633803129 0.141802117 -0.760385275
vn -0.760385096 0.141801685 -0.633803427
vn -0.717649221 -0.496234149 -0.488601357
vn -0.778520644 -0.491740435 0.389995992
vn -0.717648804 -0.496234149 0.488601953
vn -0.635315418 -0.635060906 -0.4393996
vn -0.48513189 -0.468621403 0.738268852
vn 0.555360854 -0.327250302 0.764513969
vn 0.633803129 0.141802117 0.760385275
vn 0.760385334 0.141801968 0.633803189
vn -0.760384977 0.141802162 0.633803368
vn -0.633803308 0.141801909 0.760385215
vn 0.467738062 0.568811774 -0.676516175
vn -0.469040155 0.682662189 -0.56033355
vn -0.560333073 0.682662189 0.469040692
vn -0.676515579 0.568811834 -0.467738807
vn 0.676516175 0.568811715 0.46773833
vn 0.560333133 0.682662308 -0.469040453
vn -0.467738062 0.568811774 0.676516175
vn 0.469040215 0.682662308 0.560333252
vn 0.555360913 -0.327250361 -0.76451391
vn 0.439399719 -0.635060847 0.635315299
vn 0.635315001 -0.635060489 -0.439400762
vn -0.764513791 -0.327250302 -0.555361211
vn -0.640091121 -0.424931228 -0.64009124
vn 0.717648864 -0.496233851 -0.488602132
vn 0.640091121 -0.424931467 -0.640091121
vn 0.717649102 -0.496234387 0.488601357
vn 0.488601953 -0.496233642 0.717649102
vn 0.640090764 -0.424931347 0.640091479
vn -0.488602042 -0.496234268 0.717648625
vn -0.640091062 -0.424931347 0.64009124
vn 0.534338176 -0.452327073 -0.714060843
vn -0.48513186 -0.468621343 -0.738268971
vn -0.534338176 -0.452326953 -0.714060903
vn 0.778520167 -0.491740167 -0.389997572
vn -0.714060724 -0.452326983 -0.534338474
vn -0.738268852 -0.468621433 0.485131979
vn -0.714061081 -0.452326983 0.534338057
vn 0.389997721 -0.491740316 0.778519928
vn 0.714060664 -0.452327073 -0.534338415
vn 0.714061022 -0.452326953 0.534337997
vn 0.534338295 -0.452327162 0.714060783
vn -0.534337997 -0.452326924 0.714061022
vn -0.389995962 -0.491740465 0.778520763
vn -0.738268971 -0.468621582 -0.485131562
vn 0.778520644 -0.491740435 0.389995992
vn 0.485131949 -0.468621403 -0.738268852
vn -0.764513969 -0.327250242 0.555360794
vn 0.635315716 -0.635061204 0.439398587
vn -0.43939963 -0.635060728 0.635315478
vn -0.555360913 -0.327250391 -0.76451391
vn -0.469040126 0.682662308 0.56033349
vn 0.467738062 0.568811774 0.676516175
vn 0.560333252 0.682662427 0.469040215
vn 0.676516235 0.568811774 -0.467738062
vn -0.676515758 0.568811893 0.467738539
vn -0.560333014 0.682662189 -0.469040692
vn 0.469040126 0.682662308 -0.56033349
vn -0.467738062 0.568811774 -0.676516175
vn -0.555360794 -0.327250332 0.764514029
vn 0.48513186 -0.468621343 0.738268971
vn -0.635315001 -0.635060489 0.439400762
vn -0.778520405 -0.491740346 -0.389996737
vn 0.764514089 -0.32725057 0.555360556
vn 0.738268793 -0.468621343 -0.485132039
vn -0.439399511 -0.635060489 -0.635315716
vn 0.389997661 -0.491740316 -0.778519988
vn -0.733334899 -0.443580925 -0.515224099
vn 0.515223503 -0.443581462 -0.733335018
vn 0.446532845 -0.478424609 0.756120503
vn 0.756120324 -0.47842437 -0.446533322
vn 0.358889967 -0.528270185 0.769499004
vn -0.756120563 -0.478424519 -0.446532935
vn 0.769498706 -0.528270423 -0.358890086
vn 0.446532905 -0.478424609 -0.756120563
vn -0.499927372 0.707208991 -0.499928117
vn 0.499927312 0.707208991 -0.499928117
vn 0.499927551 0.707209229 0.49992764
vn -0.785326064 -0.228728056 -0.575279474
vn -0.697266936 0.516024292 -0.497531772
vn -0.697266936 0.516024232 0.497531772
vn 0.575279951 -0.228727072 0.785326064
vn -0.575279951 -0.228727147 0.785326064
vn -0.497530997 0.516024053 0.697267652
vn 0.785326242 -0.228727058 -0.575279593
vn 0.785326242 -0.228727549 0.575279474
vn 0.69726783 0.516023993 0.497530758
vn 0.506844044 -0.697292507 -0.506845415
vn -0.506844044 -0.697292507 -0.506845415
vn -0.506844044 -0.697292507 0.506845415
vn -0.575279951 -0.228727072 -0.785326064
vn 0.575279951 -0.228727147 -0.785326064
vn 0.497530997 0.516024053 -0.697267652
vn 0.436003625 0.637111127 0.635602176
vn 0.635602176 0.637111127 -0.436003685
vn -0.635601938 0.637111008 -0.436004162
vn -0.436003685 0.637111127 -0.635602236
vn 0.515223384 -0.443581343 0.733335137
vn -0.769499302 -0.52827096 -0.35888806
vn 0.733335137 -0.443581372 -0.515223384
vn 0.358890265 -0.528270781 -0.769498467
g prim_bottom
f 5//5 86//86 41//41 83//83
f 83//83 41//41 84//84 6//6
f 41//41 85//85 37//37 84//84
f 86//86 33//33 85//85 41//41
f 1//1 90//90 42//42 87//87
f 87//87 42//42 88//88 38//38
f 42//42 89//89 34//34 88//88
f 90//90 3//3 89//89 42//42
f 7//7 94//94 43//43 91//91
f 91//91 43//43 92//92 39//39
f 43//43 93//93 35//35 92//92
f 94//94 9//9 93//93 43//43
f 10//10 98//98 44//44 95//95
f 95//95 44//44 96//96 40//40
f 44//44 97//97 36//36 96//96
f 98//98 12//12 97//97 44//44
f 2//2 114//114 220//220 111//111
f 111//111 220//220 186//186 27//27
f 49//49 113//113 25//25 112//112
f 185//185 4//4 113//113 49//49
f 3//3 116//116 219//219 89//89
f 89//89 219//219 184//184 34//34
f 50//50 91//91 39//39 115//115
f 183//183 7//7 91//91 50//50
f 4//4 124//124 218//218 121//121
f 121//121 218//218 182//182 26//26
f 53//53 123//123 32//32 122//122
f 181//181 11//11 123//123 53//53
f 9//9 126//126 217//217 93//93
f 93//93 217//217 180//180 35//35
f 54//54 95//95 40//40 125//125
f 179//179 10//10 95//95 54//54
f 25//25 113//113 67//67 143//143
f 26//26 143//143 67//67 121//121
f 4//4 121//121 67//67 113//113
f 27//27 145//145 68//68 111//111
f 2//2 111//111 68//68 144//144
f 28//28 144//144 68//68 145//145
f 29//29 148//148 69//69 146//146
f 8//8 146//146 69//69 147//147
f 30//30 147//147 69//69 148//148
f 31//31 150//150 70//70 149//149
f 11//11 149//149 70//70 123//123
f 32//32 123//123 70//70 150//150
f 27//27 186//186 194//194 151//151
f 151//151 194//194 166//166 38//38
f 71//71 153//153 33//33 152//152
f 112//112 25//25 153//153 71//71
f 28//28 154//154 193//193 144//144
f 144//144 193//193 141//141 2//2
f 72//72 146//146 8//8 168//168
f 165//165 29//29 146//146 72//72
f 26//26 182//182 192//192 155//155
f 155//155 192//192 164//164 37//37
f 73//73 157//157 36//36 156//156
f 122//122 32//32 157//157 73//73
f 30//30 158//158 191//191 147//147
f 147//147 191//191 140//140 8//8
f 74//74 149//149 11//11 169//169
f 163//163 31//31 149//149 74//74
f 33//33 153//153 75//75 85//85
f 85//85 75//75 155//155 37//37
f 75//75 143//143 26//26 155//155
f 153//153 25//25 143//143 75//75
f 38//38 88//88 76//76 151//151
f 151//151 76//76 145//145 27//27
f 76//76 159//159 28//28 145//145
f 88//88 34//34 159//159 76//76
f 39//39 92//92 77//77 160//160
f 160//160 77//77 148//148 29//29
f 77//77 161//161 30//30 148//148
f 92//92 35//35 161//161 77//77
f 40//40 96//96 78//78 162//162
f 162//162 78//78 150//150 31//31
f 78//78 157//157 32//32 150//150
f 96//96 36//36 157//157 78//78
f 34//34 184//184 190//190 159//159
f 159//159 190//190 154//154 28//28
f 79//79 160//160 29//29 165//165
f 115//115 39//39 160//160 79//79
f 35//35 180//180 189//189 161//161
f 161//161 189//189 158//158 30//30
f 80//80 162//162 31//31 163//163
f 125//125 40//40 162//162 80//80
f 38//38 166//166 188//188 87//87
f 87//87 188//188 139//139 1//1
f 81//81 86//86 5//5 170//170
f 152//152 33//33 86//86 81//81
f 37//37 164//164 187//187 84//84
f 84//84 187//187 142//142 6//6
f 82//82 97//97 12//12 167//167
f 156//156 36//36 97//97 82//82
g 
f 14//14 101//101 45//45 99//99
f 15//15 99//99 45//45 100//100
f 13//13 100//100 45//45 101//101
f 16//16 104//104 46//46 102//102
f 17//17 102//102 46//46 103//103
f 18//18 103//103 46//46 104//104
f 19//19 107//107 47//47 105//105
f 20//20 105//105 47//47 106//106
f 21//21 106//106 47//47 107//107
f 22//22 110//110 48//48 108//108
f 23//23 108//108 48//48 109//109
f 24//24 109//109 48//48 110//110
f 1//1 118//118 51//51 90//90
f 90//90 51//51 117//117 3//3
f 51//51 102//102 17//17 117//117
f 118//118 16//16 102//102 51//51
f 6//6 120//120 52//52 83//83
f 83//83 52//52 119//119 5//5
f 52//52 101//101 14//14 119//119
f 120//120 13//13 101//101 52//52
f 7//7 128//128 55//55 94//94
f 94//94 55//55 127//127 9//9
f 55//55 105//105 20//20 127//127
f 128//128 19//19 105//105 55//55
f 10//10 130//130 56//56 98//98
f 98//98 56//56 129//129 12//12
f 56//56 108//108 23//23 129//129
f 130//130 22//22 108//108 56//56
f 15//15 132//132 216//216 99//99
f 99//99 216//216 178//178 14//14
f 57//57 104//104 16//16 131//131
f 177//177 18//18 104//104 57//57
f 13//13 134//134 215//215 100//100
f 100//100 215//215 176//176 15//15
f 58//58 109//109 24//24 133//133
f 175//175 23//23 109//109 58//58
f 18//18 136//136 214//214 103//103
f 103//103 214//214 174//174 17//17
f 59//59 107//107 19//19 135//135
f 173//173 21//21 107//107 59//59
f 21//21 138//138 213//213 106//106
f 106//106 213//213 172//172 20//20
f 60//60 110//110 22//22 137//137
f 171//171 24//24 110//110 60//60
f 5//5 119//119 210//210 170//170
f 139//139 211//211 118//118 1//1
f 212//212 131//131 16//16 118//118
f 119//119 14//14 178//178 61//61
f 2//2 141//141 207//207 114//114
f 185//185 208//208 124//124 4//4
f 209//209 169//169 11//11 181//181
f 168//168 8//8 140//140 62//62
f 3//3 117//117 204//204 116//116
f 183//183 205//205 128//128 7//7
f 206//206 135//135 19//19 128//128
f 117//117 17//17 174//174 63//63
f 9//9 127//127 201//201 126//126
f 179//179 202//202 130//130 10//10
f 203//203 137//137 22//22 130//130
f 127//127 20//20 172//172 64//64
f 6//6 142//142 198//198 120//120
f 120//120 199//199 134//134 13//13
f 200//200 129//129 23//23 175//175
f 167//167 12//12 129//129 65//65
f 15//15 176//176 195//195 132//132
f 177//177 196//196 136//136 18//18
f 197//197 138//138 21//21 173//173
f 133//133 24//24 171//171 66//66
